<?xml version="1.0" encoding="UTF-8"?>
<svg width="16px" height="15px" viewBox="0 0 16 15" version="1.1" xmlns="http://www.w3.org/2000/svg" xmlns:xlink="http://www.w3.org/1999/xlink">
    <!-- Generator: Sketch 53.2 (72643) - https://sketchapp.com -->
    <title>zuoduiqi copy 2</title>
    <desc>Created with Sketch.</desc>
    <defs>
        <polygon id="path-1" points="6.05780025e-17 0 16 0 16 14.2222222 6.05780025e-17 14.2222222"></polygon>
    </defs>
    <g id="dianzibignli" stroke="none" stroke-width="1" fill="none" fill-rule="evenodd">
        <g id="zuoduiqi-copy-2">
            <mask id="mask-2" fill="white">
                <use xlink:href="#path-1"></use>
            </mask>
            <g id="Clip-2"></g>
            <path d="M0,0.676581193 L0,1.35305875 C0,1.72582226 0.309279414,2.02966585 0.694967157,2.02966585 L10.4350198,2.02966585 C10.8188446,2.02966585 11.129987,1.7267291 11.129987,1.35305875 L11.129987,0.676581193 C11.129987,0.302910838 10.8188446,0 10.4350198,0 L0.699039074,0 C0.314575567,0 0.00228879009,0.302211275 0,0.676581193 Z M0.00404530341,4.74117257 L0.00404530341,5.41775376 C0.00404530341,5.78919588 0.313431172,6.09425723 0.699039074,6.09425723 L13.9151784,6.09425723 C14.2990031,6.09425723 14.6100657,5.79142412 14.6100657,5.41775376 L14.6100657,4.74117257 C14.6100657,4.36750222 14.2990031,4.06459138 13.9151784,4.06459138 L0.699039074,4.06459138 C0.514392265,4.0635809 0.336931192,4.13452178 0.206470157,4.26163499 C0.0759026665,4.38874821 0.00300736372,4.56143666 0.00404530341,4.74117257 Z M0.699039074,8.1266436 C0.314282815,8.1258404 0.0014637611,8.42854396 0,8.80312115 L0,9.47972826 C0,9.85246586 0.312100481,10.1563094 0.696324463,10.1563094 L9.74005266,10.1563094 C10.123771,10.1556099 10.4349134,9.85329497 10.4363771,9.47972826 L10.4363771,8.80312115 C10.4363771,8.43170495 10.1242766,8.1266436 9.74005266,8.1266436 L0.699039074,8.1266436 Z M0.699039074,12.1925564 C0.314282815,12.1918568 0.0014637611,12.4945604 0,12.8691376 L0,13.5457188 C0,13.9184823 0.312100481,14.2222222 0.696324463,14.2222222 L15.3050328,14.2222222 C15.6888576,14.2222222 16,13.9192855 16,13.5457188 L16,12.8691376 C16,12.4954672 15.6888576,12.1925564 15.3050328,12.1925564 L0.699039074,12.1925564 Z" id="Fill-1" fill="#000000" mask="url(#mask-2)"></path>
        </g>
    </g>
</svg>