<?xml version="1.0" encoding="UTF-8"?>
<svg width="16px" height="15px" viewBox="0 0 16 15" version="1.1" xmlns="http://www.w3.org/2000/svg" xmlns:xlink="http://www.w3.org/1999/xlink">
    <!-- Generator: Sketch 53.2 (72643) - https://sketchapp.com -->
    <title>zuoduiqi copy 3</title>
    <desc>Created with Sketch.</desc>
    <defs>
        <polygon id="path-1" points="6.05780025e-17 0 16 0 16 14.2222222 6.05780025e-17 14.2222222"></polygon>
    </defs>
    <g id="dianzibignli" stroke="none" stroke-width="1" fill="none" fill-rule="evenodd">
        <g id="zuoduiqi-copy-3">
            <mask id="mask-2" fill="white">
                <use xlink:href="#path-1"></use>
            </mask>
            <g id="Clip-2"></g>
            <path d="M4.8,0.676581193 L4.8,1.35305875 C4.8,1.72582226 5.10927941,2.02966585 5.49496716,2.02966585 L15.2350198,2.02966585 C15.6188446,2.02966585 15.929987,1.7267291 15.929987,1.35305875 L15.929987,0.676581193 C15.929987,0.302910838 15.6188446,0 15.2350198,0 L5.49903907,0 C5.11457557,0 4.80228879,0.302211275 4.8,0.676581193 Z M1.40001093,4.67659184 L1.40001093,5.35317303 C1.40001093,5.72461515 1.7093968,6.0296765 2.0950047,6.0296765 L15.311144,6.0296765 C15.6949688,6.0296765 16.0060313,5.72684339 16.0060313,5.35317303 L16.0060313,4.67659184 C16.0060313,4.30292149 15.6949688,4.00001065 15.311144,4.00001065 L2.0950047,4.00001065 C1.9103579,3.99900017 1.73289682,4.06994105 1.60243579,4.19705427 C1.4718683,4.32416748 1.39897299,4.49685593 1.40001093,4.67659184 Z M6.19903907,8.00000159 C5.81428282,7.99919839 5.50146376,8.30190195 5.5,8.67647915 L5.5,9.35308625 C5.5,9.72582385 5.81210048,10.0296674 6.19632446,10.0296674 L15.2400527,10.0296674 C15.623771,10.0289679 15.9349134,9.72665297 15.9363771,9.35308625 L15.9363771,8.67647915 C15.9363771,8.30506294 15.6242766,8.00000159 15.2400527,8.00000159 L6.19903907,8.00000159 Z M0.699039074,12.0000012 C0.314282815,11.9993016 0.0014637611,12.3020052 0,12.6765824 L0,13.3531636 C0,13.7259271 0.312100481,14.0296671 0.696324463,14.0296671 L15.3050328,14.0296671 C15.6888576,14.0296671 16,13.7267303 16,13.3531636 L16,12.6765824 C16,12.302912 15.6888576,12.0000012 15.3050328,12.0000012 L0.699039074,12.0000012 Z" id="Fill-1" fill="#000000" mask="url(#mask-2)"></path>
        </g>
    </g>
</svg>