<?xml version="1.0" encoding="UTF-8"?>
<svg width="15px" height="15px" viewBox="0 0 15 15" version="1.1" xmlns="http://www.w3.org/2000/svg" xmlns:xlink="http://www.w3.org/1999/xlink">
    <!-- Generator: Sketch 53.2 (72643) - https://sketchapp.com -->
    <title>juzhongduiqi copy</title>
    <desc>Created with Sketch.</desc>
    <defs>
        <polygon id="path-1" points="4.67956033e-17 0 15 0 15 14.1176471 4.67956033e-17 14.1176471"></polygon>
    </defs>
    <g id="电子病历" stroke="none" stroke-width="1" fill="none" fill-rule="evenodd">
        <g id="新增病历模版--编辑" transform="translate(-933.000000, -288.000000)">
            <g id="juzhongduiqi-copy" transform="translate(933.000000, 288.000000)">
                <mask id="mask-2" fill="white">
                    <use xlink:href="#path-1"></use>
                </mask>
                <g id="Clip-2"></g>
                <path d="M0.936317781,0 L14.0636822,0 C14.5838883,0 15,0.301777057 15,0.67146349 L15,1.34290579 C15,1.71598345 14.5791594,2.01436928 14.0636822,2.01436928 L0.936317781,2.01436928 C0.416200347,2.01436928 0,1.71259222 0,1.34290579 L0,0.67146349 C0,0.301777057 0.416200347,0 0.936317781,0 Z M0.713403155,4.03552101 L14.2864842,4.03552101 C14.6828769,4.03552101 15,4.33740405 15,4.7069845 L15,5.37853277 C15,5.75150446 14.6792737,6.04997507 14.2864842,6.04997507 L0.713403155,6.04997507 C0.317123117,6.04997507 0,5.74811323 0,5.37853277 L0,4.7069845 C0,4.33399162 0.320726277,4.03552101 0.713403155,4.03552101 Z M0.99865501,8.06775677 L14.001345,8.06775677 C14.5511411,8.06775677 15,8.36953383 15,8.73919907 L15,9.41066256 C15,9.78032779 14.5511411,10.082126 14.001345,10.082126 L0.99865501,10.082126 C0.44895343,10.082126 0,9.78032779 0,9.41066256 L0,8.73919907 C0,8.36953383 0.44895343,8.06775677 0.99865501,8.06775677 Z M0.651314004,12.1032778 L14.348686,12.1032778 C14.707176,12.1032778 15,12.4051396 15,12.7747413 L15,13.4461836 C15,13.81587 14.707176,14.1176471 14.348686,14.1176471 L0.651314004,14.1176471 C0.292721237,14.1176471 0,13.81587 0,13.4461836 L0,12.7747413 C0,12.4051396 0.292721237,12.1032778 0.651314004,12.1032778 Z" id="Fill-1" fill="#000000" mask="url(#mask-2)"></path>
            </g>
        </g>
    </g>
</svg>