<?xml version="1.0" encoding="UTF-8"?>
<svg width="15px" height="15px" viewBox="0 0 15 15" version="1.1" xmlns="http://www.w3.org/2000/svg" xmlns:xlink="http://www.w3.org/1999/xlink">
    <!-- Generator: Sketch 53.2 (72643) - https://sketchapp.com -->
    <title>juzhongduiqi copy</title>
    <desc>Created with Sketch.</desc>
    <defs>
        <polygon id="path-1" points="4.67956033e-17 0 15 0 15 14.1176471 4.67956033e-17 14.1176471"></polygon>
    </defs>
    <g id="dianzibignli" stroke="none" stroke-width="1" fill="none" fill-rule="evenodd">
        <g id="juzhongduiqi-copy">
            <mask id="mask-2" fill="white">
                <use xlink:href="#path-1"></use>
            </mask>
            <g id="Clip-2"></g>
            <path d="M2.93418192,0 L12.0657358,0 C12.4275975,0 12.7170498,0.301777057 12.7170498,0.67146349 L12.7170498,1.34290579 C12.7170498,1.71598345 12.424308,2.01436928 12.0657358,2.01436928 L2.93418192,2.01436928 C2.57238193,2.01436928 2.28286792,1.71259222 2.28286792,1.34290579 L2.28286792,0.67146349 C2.28286792,0.301777057 2.57238193,0 2.93418192,0 Z M1.30260745,4.03552101 L13.6940003,4.03552101 C14.0558825,4.03552101 14.3453965,4.33740405 14.3453965,4.7069845 L14.3453965,5.37853277 C14.3453965,5.75150446 14.0525931,6.04997507 13.6940003,6.04997507 L1.30260745,6.04997507 C0.940828013,6.04997507 0.651314004,5.74811323 0.651314004,5.37853277 L0.651314004,4.7069845 C0.651314004,4.33399162 0.944117478,4.03552101 1.30260745,4.03552101 Z M3.25983893,8.06775677 L11.7400788,8.06775677 C12.098651,8.06775677 12.3913928,8.36953383 12.3913928,8.73919907 L12.3913928,9.41066256 C12.3913928,9.78032779 12.098651,10.082126 11.7400788,10.082126 L3.25983893,10.082126 C2.9013284,10.082126 2.60852492,9.78032779 2.60852492,9.41066256 L2.60852492,8.73919907 C2.60852492,8.36953383 2.9013284,8.06775677 3.25983893,8.06775677 Z M0.651314004,12.1032778 L14.348686,12.1032778 C14.707176,12.1032778 15,12.4051396 15,12.7747413 L15,13.4461836 C15,13.81587 14.707176,14.1176471 14.348686,14.1176471 L0.651314004,14.1176471 C0.292721237,14.1176471 0,13.81587 0,13.4461836 L0,12.7747413 C0,12.4051396 0.292721237,12.1032778 0.651314004,12.1032778 Z" id="Fill-1" fill="#000000" mask="url(#mask-2)"></path>
        </g>
    </g>
</svg>