<?xml version="1.0" encoding="UTF-8"?>
<svg width="32px" height="40px" viewBox="0 0 32 40" version="1.1" xmlns="http://www.w3.org/2000/svg" xmlns:xlink="http://www.w3.org/1999/xlink">
    <!-- Generator: Sketch 60.1 (88133) - https://sketch.com -->
    <title>批注</title>
    <desc>Created with Sketch.</desc>
    <defs>
        <polygon id="path-1" points="0.00341637011 0.047202847 31.9850819 0.047202847 31.9850819 40.0284698 0.00341637011 40.0284698"></polygon>
    </defs>
    <g id="护理文书" stroke="none" stroke-width="1" fill="none" fill-rule="evenodd">
        <g id="批注">
            <mask id="mask-2" fill="white">
                <use xlink:href="#path-1"></use>
            </mask>
            <g id="Clip-2"></g>
            <path d="M29.9859929,40.0284698 C29.6374662,40.0276157 29.2951459,39.9357722 28.9930819,39.7620498 L15.992427,32.3320712 L2.992,39.7620498 C2.37369395,40.1157011 1.61389324,40.1137082 0.997352313,39.7569253 C0.380811388,39.3999146 0.000911032028,38.7418078 0,38.0293808 L0,2.04629181 C0,1.51601423 0.210619217,1.00760142 0.585395018,0.632597865 C0.960398577,0.257822064 1.46886833,0.047202847 1.99908897,0.047202847 L29.9859929,0.047202847 C30.5162135,0.047202847 31.0246833,0.257822064 31.3994591,0.632597865 C31.7744626,1.00760142 31.9850819,1.51601423 31.9850819,2.04629181 L31.9850819,38.0293808 C31.9850819,38.5596584 31.7744626,39.0680712 31.3994591,39.442847 C31.0246833,39.8178505 30.5162135,40.0284698 29.9859929,40.0284698 Z M15.8558861,28.7571246 C16.2191032,28.7571246 16.5756014,28.853694 16.8887687,29.0336228 L28.3767687,35.59721 L28.3767687,3.71222776 L3.33187189,3.71222776 L3.33187189,35.59721 L14.8198149,29.0336228 C15.134121,28.8532384 15.4902206,28.7580356 15.8525267,28.7571246 L15.8558861,28.7571246 Z M7.99624199,18.0387189 L23.9888968,18.0387189 L23.9888968,14.0407117 L7.99624199,14.0407117 L7.99624199,18.0387189 Z" id="Fill-1" fill="#3F72FE" mask="url(#mask-2)"></path>
        </g>
    </g>
</svg>