<?xml version="1.0" standalone="no"?><!DOCTYPE svg PUBLIC "-//W3C//DTD SVG 1.1//EN" "http://www.w3.org/Graphics/SVG/1.1/DTD/svg11.dtd"><svg t="1595918121623" class="icon" viewBox="0 0 1024 1024" version="1.1" xmlns="http://www.w3.org/2000/svg" p-id="3109" xmlns:xlink="http://www.w3.org/1999/xlink" width="32" height="32"><defs><style type="text/css"></style></defs><path d="M569.252046 835.996446a238.636775 238.636775 0 0 1-6.397769 12.219739 367.16795 367.16795 0 0 0-38.386613 76.325381c-13.115426 37.682858-5.630037 71.591033 32.820554 84.834414a307.092901 307.092901 0 0 0 210.230682-9.40472c17.849775-6.397769 22.520146-8.509032 67.560439-25.591075a781.807345 781.807345 0 0 1 100.444969-33.908175 28.981893 28.981893 0 0 0 6.397769-1.855353c19.705128-3.774684 13.499292-11.324051 33.268398 1.855353a32.500665 32.500665 0 0 0 26.29483 5.630037c9.40472-1.855353 10.684274-6.397769 16.31431-15.098734a35.251706 35.251706 0 0 0-9.40472-49.006909c-37.554903-25.591075-44.784381-19.769106-81.507574-12.219739a59.627205 59.627205 0 0 1-8.445055 1.855353 824.864329 824.864329 0 0 0-109.785712 36.723193c-43.184939 16.954087-47.85531 18.873418-64.74542 24.503455a246.506031 246.506031 0 0 1-153.930317 12.219738 413.039952 413.039952 0 0 1 32.820554-63.145978c2.815018-3.774684 4.670371-8.509032 7.485389-12.219738a263.907962 263.907962 0 0 0 36.595237-88.609098 70.375457 70.375457 0 0 0-57.26003-84.834414c-54.445012-13.179404-117.335079 5.630037-293.721565 74.470029-161.415706 63.145978-231.791163 83.170994-254.311309 70.375456a32.436688 32.436688 0 0 0-26.294829-2.815018 35.571594 35.571594 0 0 0-8.445055 65.001331 190.333621 190.333621 0 0 0 140.750913-3.774684 1627.464422 1627.464422 0 0 0 173.635445-63.145978c152.970651-60.33096 218.675737-80.100065 250.600603-71.591032 6.397769 1.855353 5.630037 0 4.670371 6.397769a199.22652 199.22652 0 0 1-27.190517 63.977687zM750.37288 25.591075a99.357349 99.357349 0 0 0-135.120877 1.855353L54.871436 586.227553a36.915126 36.915126 0 0 0-9.40472 15.098734l-44.080627 159.94422a35.059773 35.059773 0 0 0 46.895645 41.457542l140.750913-58.411629a92.70367 92.70367 0 0 0 30.005536-19.769106l558.781125-532.166407 4.670371-4.734349a95.966532 95.966532 0 0 0-5.630036-137.552028L750.564813 25.591075z" p-id="3110" fill="#3F72FE"></path></svg>