<?xml version="1.0" encoding="UTF-8"?>
<svg width="9px" height="13px" viewBox="0 0 9 13" version="1.1" xmlns="http://www.w3.org/2000/svg" xmlns:xlink="http://www.w3.org/1999/xlink">
    <!-- Generator: Sketch 53.2 (72643) - https://sketchapp.com -->
    <title>jiacu copy</title>
    <desc>Created with Sketch.</desc>
    <defs>
        <polygon id="path-1" points="-4.59647166e-16 0 9 0 9 13 -4.59647166e-16 13"></polygon>
    </defs>
    <g id="dianzibignli" stroke="none" stroke-width="1" fill="none" fill-rule="evenodd">
        <g id="jiacu-copy">
            <mask id="mask-2" fill="white">
                <use xlink:href="#path-1"></use>
            </mask>
            <g id="Clip-2"></g>
            <path d="M6.62997656,5.78811134 C7.34999414,5.19997461 7.80001172,4.27142261 7.80001172,3.24997733 C7.80001172,1.4547901 6.39,0 4.6500293,0 L0.450035156,0 C0.209970703,0 0,0.216636138 0,0.464321339 C0,0.711915859 0.209970703,0.928551997 0.450035156,0.928551997 L0.899982422,0.928551997 L0.899982422,12.071448 L0.450035156,12.071448 C0.209970703,12.071448 0,12.2880841 0,12.5356787 C0,12.7832913 0.209970703,13 0.450035156,13 L5.49,13 C7.41000586,13 9,11.3595321 9,9.37857648 L9,9.22378457 C9,7.61427509 8.01,6.28331852 6.62997656,5.78811134 Z M2.54998828,0.928551997 L4.6500293,0.928551997 C5.88002344,0.928551997 6.9000293,1.98095566 6.9000293,3.24997733 C6.9000293,4.51901713 5.88002344,5.57140266 4.6500293,5.57140266 L1.79996484,5.57140266 L1.79996484,0.928551997 L2.54998828,0.928551997 Z M8.10001758,9.37857648 C8.10001758,10.8642524 6.92996484,12.071448 5.49,12.071448 L1.79996484,12.071448 L1.79996484,6.49995466 L5.49,6.49995466 C6.92996484,6.49995466 8.10001758,7.70715024 8.10001758,9.19282618 L8.10001758,9.37857648 Z" id="Fill-1" fill="#3A3A3A" mask="url(#mask-2)"></path>
        </g>
    </g>
</svg>