<?xml version="1.0" standalone="no"?><!DOCTYPE svg PUBLIC "-//W3C//DTD SVG 1.1//EN" "http://www.w3.org/Graphics/SVG/1.1/DTD/svg11.dtd"><svg t="1594261743804" class="icon" viewBox="0 0 1024 1024" version="1.1" xmlns="http://www.w3.org/2000/svg" p-id="2178" xmlns:xlink="http://www.w3.org/1999/xlink" width="32" height="32"><defs><style type="text/css"></style></defs><path d="M891.5 918.5h-759c-14.888 0-27-12.112-27-27v-759c0-14.888 12.112-27 27-27h759c14.888 0 27 12.112 27 27v759c0 14.888-12.112 27-27 27z m-756-30h753v-753h-753v753z" p-id="2179" fill="#3f72fe"></path><path d="M831.25 316.25h-638.5c-14.888 0-27-12.112-27-27v-96.5c0-14.888 12.112-27 27-27h638.5c14.888 0 27 12.112 27 27v96.5c0 14.888-12.112 27-27 27z m-635.5-30h632.5v-90.5h-632.5v90.5zM289.25 494.5h-96.5c-13.509 0-24.5-10.991-24.5-24.5v-96.5c0-13.509 10.991-24.5 24.5-24.5h96.5c13.509 0 24.5 10.991 24.5 24.5V470c0 13.51-10.991 24.5-24.5 24.5z m-96-25h95.5V374h-95.5v95.5zM470 494.5h-96.5c-13.509 0-24.5-10.991-24.5-24.5v-96.5c0-13.509 10.991-24.5 24.5-24.5H470c13.509 0 24.5 10.991 24.5 24.5V470c0 13.51-10.991 24.5-24.5 24.5z m-96-25h95.5V374H374v95.5zM650.5 494.5H554c-13.51 0-24.5-10.991-24.5-24.5v-96.5c0-13.509 10.99-24.5 24.5-24.5h96.5c13.51 0 24.5 10.991 24.5 24.5V470c0 13.51-10.99 24.5-24.5 24.5z m-96-25H650V374h-95.5v95.5zM831.25 494.5h-96.5c-13.51 0-24.5-10.991-24.5-24.5v-96.5c0-13.509 10.99-24.5 24.5-24.5h96.5c13.51 0 24.5 10.991 24.5 24.5V470c0 13.51-10.99 24.5-24.5 24.5z m-96-25h95.5V374h-95.5v95.5zM289.25 675h-96.5c-13.509 0-24.5-10.99-24.5-24.5V554c0-13.51 10.991-24.5 24.5-24.5h96.5c13.509 0 24.5 10.99 24.5 24.5v96.5c0 13.51-10.991 24.5-24.5 24.5z m-96-25h95.5v-95.5h-95.5V650zM470 675h-96.5c-13.509 0-24.5-10.99-24.5-24.5V554c0-13.51 10.991-24.5 24.5-24.5H470c13.509 0 24.5 10.99 24.5 24.5v96.5c0 13.51-10.991 24.5-24.5 24.5z m-96-25h95.5v-95.5H374V650zM650.5 675H554c-13.51 0-24.5-10.99-24.5-24.5V554c0-13.51 10.99-24.5 24.5-24.5h96.5c13.51 0 24.5 10.99 24.5 24.5v96.5c0 13.51-10.99 24.5-24.5 24.5z m-96-25H650v-95.5h-95.5V650zM831.25 675h-96.5c-13.51 0-24.5-10.99-24.5-24.5V554c0-13.51 10.99-24.5 24.5-24.5h96.5c13.51 0 24.5 10.99 24.5 24.5v96.5c0 13.51-10.99 24.5-24.5 24.5z m-96-25h95.5v-95.5h-95.5V650zM289.25 855.75h-96.5c-13.509 0-24.5-10.99-24.5-24.5v-96.5c0-13.51 10.991-24.5 24.5-24.5h96.5c13.509 0 24.5 10.99 24.5 24.5v96.5c0 13.51-10.991 24.5-24.5 24.5z m-96-25h95.5v-95.5h-95.5v95.5zM470 855.75h-96.5c-13.509 0-24.5-10.99-24.5-24.5v-96.5c0-13.51 10.991-24.5 24.5-24.5H470c13.509 0 24.5 10.99 24.5 24.5v96.5c0 13.51-10.991 24.5-24.5 24.5z m-96-25h95.5v-95.5H374v95.5zM650.5 855.75H554c-13.51 0-24.5-10.99-24.5-24.5v-96.5c0-13.51 10.99-24.5 24.5-24.5h96.5c13.51 0 24.5 10.99 24.5 24.5v96.5c0 13.51-10.99 24.5-24.5 24.5z m-96-25H650v-95.5h-95.5v95.5zM831.25 855.75h-96.5c-13.51 0-24.5-10.99-24.5-24.5v-96.5c0-13.51 10.99-24.5 24.5-24.5h96.5c13.51 0 24.5 10.99 24.5 24.5v96.5c0 13.51-10.99 24.5-24.5 24.5z m-96-25h95.5v-95.5h-95.5v95.5z" p-id="2180" fill="#3f72fe"></path></svg>