<?xml version="1.0" standalone="no"?><!DOCTYPE svg PUBLIC "-//W3C//DTD SVG 1.1//EN" "http://www.w3.org/Graphics/SVG/1.1/DTD/svg11.dtd"><svg class="icon" width="32px" height="32.00px" viewBox="0 0 1024 1024" version="1.1" xmlns="http://www.w3.org/2000/svg"><path fill="#3F72FE" d="M333.498182 331.403636h-60.276364a23.272727 23.272727 0 1 0 0 46.545455h116.363637a23.272727 23.272727 0 0 0 8.843636-1.861818 27.927273 27.927273 0 0 0 15.825454-23.272728v-116.363636a23.272727 23.272727 0 0 0-46.545454 0v63.069091l-126.138182-125.905455A23.272727 23.272727 0 0 0 209.454545 206.661818zM781.963636 173.381818l-126.370909 126.370909v-63.069091a23.272727 23.272727 0 1 0-46.545454 0v116.363637a27.927273 27.927273 0 0 0 15.825454 23.272727 23.272727 23.272727 0 0 0 8.843637 1.861818h116.363636a23.272727 23.272727 0 0 0 0-46.545454h-60.043636L814.545455 206.429091a23.272727 23.272727 0 0 0-32.581819-33.047273zM407.272727 653.963636a23.272727 23.272727 0 0 0-16.989091-7.68h-116.363636a23.272727 23.272727 0 0 0 0 46.545455h60.276364L209.454545 817.570909a23.272727 23.272727 0 1 0 32.814546 32.814546l126.370909-126.37091v63.069091a23.272727 23.272727 0 0 0 46.545455 0v-116.363636a23.272727 23.272727 0 0 0-7.912728-16.756364zM690.036364 692.829091h60.276363a23.272727 23.272727 0 0 0 0-46.545455h-116.363636a23.272727 23.272727 0 0 0-16.989091 7.68 23.272727 23.272727 0 0 0-7.68 16.989091v116.363637a23.272727 23.272727 0 0 0 46.545455 0v-63.069091l126.370909 126.370909A23.272727 23.272727 0 0 0 814.545455 817.570909zM907.636364 0H116.363636a116.363636 116.363636 0 0 0-116.363636 116.363636v791.272728a116.363636 116.363636 0 0 0 116.363636 116.363636h791.272728a116.363636 116.363636 0 0 0 116.363636-116.363636V116.363636a116.363636 116.363636 0 0 0-116.363636-116.363636z m69.818181 907.636364a69.818182 69.818182 0 0 1-69.818181 69.818181H116.363636a69.818182 69.818182 0 0 1-69.818181-69.818181V116.363636a69.818182 69.818182 0 0 1 69.818181-69.818181h791.272728a69.818182 69.818182 0 0 1 69.818181 69.818181z" /></svg>