<?xml version="1.0" encoding="UTF-8"?>
<svg width="43px" height="43px" viewBox="0 0 43 43" version="1.1" xmlns="http://www.w3.org/2000/svg" xmlns:xlink="http://www.w3.org/1999/xlink">
    <!-- Generator: Sketch 60.1 (88133) - https://sketch.com -->
    <title>检查缺陷</title>
    <desc>Created with Sketch.</desc>
    <defs>
        <polygon id="path-1" points="1.19488865e-16 0 43 0 43 43 1.19488865e-16 43"></polygon>
    </defs>
    <g id="护理文书" stroke="none" stroke-width="1" fill="none" fill-rule="evenodd">
        <g id="检查缺陷">
            <mask id="mask-2" fill="white">
                <use xlink:href="#path-1"></use>
            </mask>
            <g id="Clip-2"></g>
            <path d="M21.5027298,36.2812418 C22.3867208,36.2511124 23.1263985,36.9904907 23.0985228,37.8771043 C23.1263985,38.8157359 22.3867208,39.5567939 21.5027298,39.5567939 L1.84782932,39.5567939 C0.811230619,39.5567939 0,38.7456088 0,37.7089254 L0,1.76377901 C0,0.811132582 0.811230619,0 1.84782932,0 L31.1621121,0 C32.1972409,0 33.0099414,0.811132582 33.0099414,1.76377901 L33.0099414,19.5684358 C33.0099414,20.443554 32.2688463,21.1829324 31.3300488,21.1640358 C30.4400733,21.1829324 29.6977182,20.443554 29.7339934,19.5684358 L29.7339934,3.27528964 L3.27568551,3.27528964 L3.27568551,36.2812418 L21.5027298,36.2812418 Z M24.6943157,9.91022084 C25.6360005,9.91022084 26.3742083,10.6430379 26.3742083,11.5058209 C26.3742083,12.4512762 25.6360005,13.1855105 24.6943157,13.1855105 L7.89539006,13.1855105 C6.95538518,13.1855105 6.2154975,12.4512762 6.2154975,11.5058209 C6.2154975,10.6430379 6.95538518,9.91022084 7.89539006,9.91022084 L24.6943157,9.91022084 Z M26.3742083,18.2245791 C26.3742083,19.0872047 25.6331132,19.8204417 24.6943157,19.8204417 L7.89539006,19.8204417 C6.95538518,19.8204417 6.2154975,19.0872047 6.2154975,18.2245791 C6.2154975,17.2781266 6.95538518,16.5448896 7.89539006,16.5448896 L24.6943157,16.5448896 C25.6331132,16.5448896 26.3742083,17.2781266 26.3742083,18.2245791 Z M7.89539006,23.1798208 L19.9066744,23.1798208 C20.8422171,23.1798208 21.586567,23.9127953 21.586567,24.8595103 C21.586567,25.7220834 20.8422171,26.4551104 19.9066744,26.4551104 L7.89539006,26.4551104 C6.95869247,26.4551104 6.2154975,25.7220834 6.2154975,24.8595103 C6.2154975,23.9127953 6.95869247,23.1798208 7.89539006,23.1798208 Z M42.5013869,40.1446327 C43.1662044,40.8236997 43.1662044,41.8710387 42.5013869,42.4962506 C42.1989012,42.8384349 41.7752533,43 41.3253046,43 C40.9293224,43 40.5073019,42.8384349 40.1494848,42.4962506 L36.5376633,38.8007761 C36.354135,38.6873971 36.2411623,38.5184308 36.2017898,38.3808537 C34.8959358,39.1708852 33.4346392,39.5873432 32.0020584,39.5567939 C30.0241948,39.5873432 28.0721597,38.844658 26.6262447,37.3730925 C23.6157197,34.388914 23.6157197,29.5538752 26.6262447,26.6230269 C29.5576572,23.6128657 34.392073,23.6128657 37.3776096,26.6230269 C39.9620193,29.1805117 40.2868685,33.201321 38.3854926,36.1974148 C38.5237163,36.2361526 38.6910756,36.3493217 38.8054658,36.5332477 L42.5013869,40.1446327 Z M28.8940471,35.0214746 C30.5872738,36.7027914 33.3337407,36.7027914 35.0257075,35.0214746 C36.7072274,33.3297123 36.7072274,30.5835774 35.0257075,28.8905553 C34.1763643,28.0529676 33.0681602,27.6307881 31.9179587,27.6307881 C30.8514369,27.6307881 29.7447027,28.0529676 28.8940471,28.8905553 C27.2121072,30.5835774 27.2121072,33.3297123 28.8940471,35.0214746 Z" id="Fill-1" fill="#3F72FE" mask="url(#mask-2)"></path>
        </g>
    </g>
</svg>