<?xml version="1.0" encoding="UTF-8"?>
<svg width="18px" height="18px" viewBox="0 0 18 18" version="1.1" xmlns="http://www.w3.org/2000/svg" xmlns:xlink="http://www.w3.org/1999/xlink">
    <!-- Generator: Sketch 53.2 (72643) - https://sketchapp.com -->
    <title>fuxuankuang</title>
    <desc>Created with Sketch.</desc>
    <defs>
        <polygon id="path-1" points="4.99986936e-17 0 18 0 18 18 4.99986936e-17 18"></polygon>
    </defs>
    <g id="dianzibignli" stroke="none" stroke-width="1" fill="none" fill-rule="evenodd">
        <g id="新增病历模版-copy-3" transform="translate(-1042.000000, -228.000000)">
            <g id="fuxuankuang" transform="translate(1042.000000, 228.000000)">
                <mask id="mask-2" fill="white">
                    <use xlink:href="#path-1"></use>
                </mask>
                <g id="Clip-2"></g>
                <path d="M13.7591509,5.32356363 C13.4863697,5.05569465 13.0498715,5.05569465 12.7820767,5.32855143 L7.73268117,10.4288726 L5.50065534,8.13178239 C5.23286056,7.85892561 4.79636233,7.85393781 4.52358114,8.11684096 C4.25079995,8.38481981 4.24084908,8.82143899 4.50864386,9.09429577 L7.2366974,11.8975267 C7.2366974,11.8975267 7.24168381,11.8975267 7.24168381,11.9024047 C7.24168381,11.9024047 7.24168381,11.9073925 7.24667023,11.9073925 C7.29128439,11.952019 7.34584941,11.9768261 7.39544999,12.0066211 C7.42025027,12.0215406 7.44505056,12.0463477 7.46985085,12.0562134 C7.55411471,12.0909742 7.64343089,12.1058278 7.73268117,12.1058278 C7.82199735,12.1058278 7.90634908,12.0909742 7.99061294,12.0562134 C8.01541323,12.0463477 8.04021352,12.0215406 8.06499184,12.0115869 C8.11459241,11.9818139 8.1691794,11.9570068 8.21379356,11.9123803 C8.21379356,11.9123803 8.21379356,11.9073925 8.21875801,11.9073925 L8.22374443,11.9024047 L13.7641373,6.29603063 C14.0319321,6.02816166 14.0319321,5.59154247 13.7591509,5.32356363 Z M15.9217403,18 L2.07823769,18 C0.932460039,18 0,17.0722694 0,15.9261523 L0,2.07881357 C0,0.932718424 0.932460039,0 2.07823769,0 L15.9217403,0 C17.06754,0 18,0.932718424 18,2.07881357 L18,15.9261523 C17.9950136,17.0722694 17.06754,18 15.9217403,18 Z M2.07823769,1.38419114 C1.69632645,1.38419114 1.38380769,1.6967965 1.38380769,2.07881357 L1.38380769,15.9261523 C1.38380769,16.3081913 1.69632645,16.6207967 2.07823769,16.6207967 L15.9217403,16.6207967 C16.3036735,16.6207967 16.6161923,16.3081913 16.6161923,15.9261523 L16.6161923,2.07881357 C16.6161923,1.6967965 16.3036735,1.38419114 15.9217403,1.38419114 L2.07823769,1.38419114 Z" id="Fill-1" fill="#5683FF" mask="url(#mask-2)"></path>
            </g>
        </g>
    </g>
</svg>