<?xml version="1.0" standalone="no"?><!DOCTYPE svg PUBLIC "-//W3C//DTD SVG 1.1//EN" "http://www.w3.org/Graphics/SVG/1.1/DTD/svg11.dtd"><svg class="icon" width="200px" height="200.00px" viewBox="0 0 1024 1024" version="1.1" xmlns="http://www.w3.org/2000/svg"><path d="M883.4 252.7l-145-146.3c-5.6-5.7-13.2-8.8-21.2-8.8-8.3-0.3-16.4 2.9-22.2 8.8L552 251 429.5 127.5c-5.6-5.6-13.2-8.8-21.2-8.8-10.2-2.8-21.2 0-28.7 7.6L70.4 439.8l3 3.2-3.9-2.3-1.4 1.9c-1 1.6-1.9 3.2-2.6 4.9v1.1c0 0.9 0 1.8-0.9 2.8v1.2c-2.3 10.1 0.7 20.7 7.9 28l430.6 437.8c5.6 5.7 13.3 8.9 21.3 8.8h1.9c7.9 0 15.5-3.2 21.2-8.8l308.2-311.7c11.6-11.8 11.6-30.7 0-42.5-1.7-1.8-3.7-3.3-5.8-4.6L735.8 443.8l144-145.6 3.5-3c11.6-11.8 11.6-30.7 0.1-42.5zM498.5 735.3c8.3-7.4 11.9-18.7 9.3-29.6-2.6-10.8-11-19.3-21.8-22-10.8-2.7-22.2 0.8-29.6 9.1l-46 46.4-56.8-57.3 79-80c11.6-11.8 11.6-30.7 0-42.5-5.6-5.7-13.2-8.9-21.2-8.8-8 0-15.6 3.1-21.2 8.8l-79.2 80-57.7-58.7 39.7-40c10.6-11.8 10.1-29.8-1-41.1-11.2-11.3-29.2-11.9-41.1-1.4l-39.7 40.2-77-78.1 115.3-115.8 391.2 394.8-115.2 116.4-73.2-73.9 46.2-46.5z m167.7-282.1c1.4 4.8 3.9 9.1 7.4 12.7l118.7 119.9L682.9 697 291.5 301.2l113-114.2 121.8 123.4c1.6 1.5 3.3 2.9 5.1 4.1 5.6 5.7 13.2 8.9 21.2 8.8 8 0 15.6-3.1 21.2-8.8L717 169.9l103.5 104L673 422c-8.1 8.3-10.7 20.5-6.9 31.4v-0.2z m0 0" fill="#000000" /></svg>