<?xml version="1.0" encoding="UTF-8"?>
<svg width="32px" height="32px" viewBox="0 0 32 32" version="1.1" xmlns="http://www.w3.org/2000/svg" xmlns:xlink="http://www.w3.org/1999/xlink">
    <!-- Generator: Sketch 60.1 (88133) - https://sketch.com -->
    <title>复制一行</title>
    <desc>Created with Sketch.</desc>
    <defs>
        <polygon id="path-1" points="0.00273894437 0.0121883024 31.9422083 0.0121883024 31.9422083 31.9543966 0.00273894437 31.9543966"></polygon>
    </defs>
    <g id="护理文书" stroke="none" stroke-width="1" fill="none" fill-rule="evenodd">
        <g id="复制一行">
            <mask id="mask-2" fill="white">
                <use xlink:href="#path-1"></use>
            </mask>
            <g id="Clip-2"></g>
            <path d="M27.6572668,24.1635606 L22.9827104,24.1635606 C22.3373695,24.1635606 21.8141854,23.6403766 21.8141854,22.9948987 L21.8141854,12.0879658 C21.8156006,11.0504993 21.0037318,10.194077 19.9677261,10.1402111 L8.95936091,10.1402111 C8.31401997,10.1402111 7.79083595,9.6170271 7.79083595,8.97150357 L7.79083595,4.29712981 C7.79512696,1.9324622 9.71092725,0.0164336662 12.0757775,0.0121883024 L27.6572668,0.0121883024 C30.0219344,0.0164336662 31.9379629,1.9324622 31.9422083,4.29712981 L31.9422083,19.8786191 C31.9379629,22.2434693 30.0219344,24.1592696 27.6572668,24.1635606 Z M24.1513723,21.8263738 L27.6572668,21.8263738 C28.1738773,21.8263738 28.6692154,21.6211355 29.034408,21.2559429 C29.3997832,20.8905678 29.6050214,20.395184 29.6050214,19.8786191 L29.6050214,4.29712981 C29.6050214,3.78051926 29.3997832,3.28518117 29.034408,2.91980599 C28.6692154,2.55461341 28.1738773,2.34937518 27.6572668,2.34937518 L12.0757775,2.34937518 C11.0000114,2.34937518 10.1280228,3.22131812 10.1280228,4.29712981 L10.1280228,7.80302425 L20.0535007,7.80302425 C22.3466362,7.90304137 24.1535178,9.79250214 24.1513723,12.0879658 L24.1513723,21.8263738 Z" id="Fill-1" fill="#2C2C2E" mask="url(#mask-2)"></path>
            <path d="M19.8664308,31.9543966 L4.28494151,31.9543966 C1.92027389,31.9501056 0.00429101284,30.0341227 0,27.6694551 L0,12.0879658 C0.00429101284,9.72311555 1.92027389,7.80726961 4.28494151,7.80302425 L19.8664308,7.80302425 C22.231281,7.80726961 24.147127,9.72311555 24.1513723,12.0879658 L24.1513723,27.6694551 C24.147127,30.0341227 22.231281,31.9501056 19.8664308,31.9543966 Z M4.28494151,10.1402111 C3.20917546,10.1402111 2.33718688,11.0121541 2.33718688,12.0879658 L2.33718688,27.6694551 C2.33718688,28.18602 2.54242511,28.6814037 2.90761769,29.0465963 C3.27299287,29.4119715 3.7683766,29.6172097 4.28494151,29.6172097 L19.8664308,29.6172097 C20.3830414,29.6172097 20.8783795,29.4119715 21.2437546,29.0465963 C21.6089472,28.6814037 21.8141854,28.18602 21.8141854,27.6694551 L21.8141854,12.0879658 C21.8141854,11.5713552 21.6089472,11.0758345 21.2437546,10.7106419 C20.8783795,10.3454494 20.3830414,10.1402111 19.8664308,10.1402111 L4.28494151,10.1402111 Z" id="Fill-3" fill="#2C2C2E" mask="url(#mask-2)"></path>
        </g>
    </g>
</svg>