<?xml version="1.0" encoding="UTF-8"?>
<svg width="25px" height="25px" viewBox="0 0 25 25" version="1.1" xmlns="http://www.w3.org/2000/svg" xmlns:xlink="http://www.w3.org/1999/xlink">
    <!-- Generator: Sketch 53.2 (72643) - https://sketchapp.com -->
    <title>news</title>
    <desc>Created with Sketch.</desc>
    <defs>
        <polygon id="path-1" points="7.4398693e-17 0 25 0 25 25 7.4398693e-17 25"></polygon>
    </defs>
    <g id="dianzibignli" stroke="none" stroke-width="1" fill="none" fill-rule="evenodd">
        <g id="新增病历模版-copy-3" transform="translate(-636.000000, -228.000000)">
            <g id="news" transform="translate(636.000000, 228.000000)">
                <mask id="mask-2" fill="white">
                    <use xlink:href="#path-1"></use>
                </mask>
                <g id="Clip-2"></g>
                <path d="M12.4985945,0 C5.59525864,0 0,5.59523327 0,12.4985781 C0,19.4019557 5.59806967,25 12.5014055,25 C19.4047414,25 25,19.4047667 25,12.4985781 C25,5.59523327 19.4047414,0 12.4985945,0 Z M17.5052364,17.2431139 C17.2876757,17.5080376 16.972546,17.647478 16.6517944,17.647478 C16.4062868,17.647478 16.1608773,17.5666444 15.9543972,17.3992571 L11.63113,13.8624855 C11.3752608,13.6542402 11.2267665,13.3417904 11.2267665,13.0117554 L11.2267665,7.84615274 C11.2267665,7.23811946 11.7203639,6.74439068 12.3283964,6.74439068 C12.9365269,6.74439068 13.430157,7.23811946 13.430157,7.84615274 L13.430157,12.4873667 L17.3518718,15.6950838 C17.820464,16.0799341 17.8901841,16.774521 17.5052364,17.2431139 Z" id="Fill-1" fill="#5280FE" mask="url(#mask-2)"></path>
            </g>
        </g>
    </g>
</svg>