<?xml version="1.0" standalone="no"?><!DOCTYPE svg PUBLIC "-//W3C//DTD SVG 1.1//EN" "http://www.w3.org/Graphics/SVG/1.1/DTD/svg11.dtd"><svg class="icon" width="200px" height="200.00px" viewBox="0 0 1024 1024" version="1.1" xmlns="http://www.w3.org/2000/svg"><path d="M348.8 649.6v60.8h60.8l179.2-176-60.8-60.8-179.2 176z m284.8-185.6l-38.4-38.4c-6.4-6.4-16-6.4-22.4 0l-28.8 28.8 60.8 60.8 28.8-28.8c6.4-6.4 6.4-16 0-22.4z" fill="#3F72FE" /><path d="M768 963.2H169.6c-51.2 0-92.8-41.6-92.8-92.8V275.2c0-51.2 41.6-92.8 92.8-92.8h297.6c22.4 0 38.4 16 38.4 38.4s-16 38.4-38.4 38.4H169.6c-9.6 0-12.8 6.4-12.8 12.8v595.2c0 9.6 6.4 12.8 12.8 12.8H768c9.6 0 12.8-6.4 12.8-12.8V576c0-22.4 16-38.4 38.4-38.4s38.4 16 38.4 38.4v297.6c3.2 51.2-41.6 89.6-89.6 89.6z" fill="#3F72FE" /><path d="M936.544 410.688l-289.632-289.6 58.816-58.88 289.632 289.664z" fill="#3F72FE" /><path d="M985.6 134.4l-288 288-57.6-57.6 288-288 57.6 57.6z" fill="#3F72FE" /></svg>