<?xml version="1.0" encoding="UTF-8"?>
<svg width="15px" height="14px" viewBox="0 0 15 14" version="1.1" xmlns="http://www.w3.org/2000/svg" xmlns:xlink="http://www.w3.org/1999/xlink">
    <!-- Generator: Sketch 53.2 (72643) - https://sketchapp.com -->
    <title>shanchu-5</title>
    <desc>Created with Sketch.</desc>
    <defs>
        <polygon id="path-1" points="5.39537734e-17 0 15 0 15 14 5.39537734e-17 14"></polygon>
    </defs>
    <g id="dianzibignli" stroke="none" stroke-width="1" fill="none" fill-rule="evenodd">
        <g id="病历书写-" transform="translate(-607.000000, -225.000000)">
            <g id="shanchu-5" transform="translate(607.000000, 225.000000)">
                <mask id="mask-2" fill="white">
                    <use xlink:href="#path-1"></use>
                </mask>
                <g id="Clip-2"></g>
                <path d="M11.7070552,12.0720435 C11.7070552,12.5540156 11.2968623,12.9463407 10.7929685,12.9463407 L4.20703147,12.9463407 C3.70316144,12.9463407 3.29296853,12.5540156 3.29296853,12.0720435 L3.29296853,2.79100808 L11.7070552,2.79100808 L11.7070552,12.0720435 Z M5.12111812,1.22173062 C5.12111812,1.12086065 5.2031567,1.04239111 5.30861456,1.04239111 L9.70316619,1.04239111 C9.80862405,1.04239111 9.89066263,1.12086065 9.89066263,1.22173062 L9.89066263,1.74861698 L5.12111812,1.74861698 L5.12111812,1.22173062 Z M14.4492677,1.74861698 L10.980465,1.74861698 L10.980465,1.22173062 C10.980465,0.549173425 10.4063134,0 9.70316619,0 L5.30861456,0 C4.60546734,0 4.03129207,0.549173425 4.03129207,1.22173062 L4.03129207,1.74861698 L0.550827102,1.74861698 C0.24611575,1.74861698 0,1.98400293 0,2.27538997 C0,2.56684502 0.24611575,2.80225365 0.550732287,2.80225365 L2.19138544,2.80225365 L2.19138544,12.0720435 C2.19138544,13.1368577 3.09380985,14 4.20703147,14 L10.7929685,14 C11.9063087,14 12.8086146,13.1368577 12.8086146,12.0720435 L12.8086146,2.79100808 L14.4492677,2.79100808 C14.753908,2.79100808 15,2.55559946 15,2.26423509 C15,1.97275737 14.753908,1.74861698 14.4492677,1.74861698 Z M7.5,11.3658176 C7.80473506,11.3658176 8.05075599,11.1304997 8.05075599,10.8390446 L8.05075599,5.23460537 C8.05075599,4.94312764 7.80473506,4.70771902 7.5,4.70771902 C7.19528865,4.70771902 6.94926771,4.94312764 6.94926771,5.23460537 L6.94926771,10.8390446 C6.94926771,11.1304997 7.19528865,11.3658176 7.5,11.3658176 L7.5,11.3658176 Z M4.93362168,11.3658176 C5.23833303,11.3658176 5.48435396,11.1304997 5.48435396,10.8390446 L5.48435396,5.23460537 C5.48435396,4.94312764 5.23833303,4.70771902 4.93362168,4.70771902 C4.62888662,4.70771902 4.38277087,4.94312764 4.38277087,5.23460537 L4.38277087,10.8390446 C4.39455162,11.1304997 4.64064367,11.3658176 4.93362168,11.3658176 L4.93362168,11.3658176 Z M10.066402,11.3658176 C10.3711134,11.3658176 10.6172291,11.1304997 10.6172291,10.8390446 L10.6172291,5.23460537 C10.6172291,4.94312764 10.3711134,4.70771902 10.066402,4.70771902 C9.76176179,4.70771902 9.51564604,4.94312764 9.51564604,5.23460537 L9.51564604,10.8390446 C9.51564604,11.1304997 9.76176179,11.3658176 10.066402,11.3658176 L10.066402,11.3658176 Z" id="Fill-1" fill="#327EF1" mask="url(#mask-2)"></path>
            </g>
        </g>
    </g>
</svg>