<?xml version="1.0" encoding="UTF-8"?>
<svg width="16px" height="19px" viewBox="0 0 16 19" version="1.1" xmlns="http://www.w3.org/2000/svg" xmlns:xlink="http://www.w3.org/1999/xlink">
    <!-- Generator: Sketch 53.2 (72643) - https://sketchapp.com -->
    <title>shanchuhang</title>
    <desc>Created with Sketch.</desc>
    <g id="dianzibignli" stroke="none" stroke-width="1" fill="none" fill-rule="evenodd">
        <g id="插入表格" transform="translate(-702.000000, -255.000000)" fill="#797979">
            <path d="M710.522732,272.49233 L702,272.49233 L702,274 L712,274 L712,267 L710.522732,267 L710.522732,272.49233 Z M712,267 L713,267 L713,263 L712,263 L712,267 Z M702,267 L710,267 L710,263 L702,263 L702,267 Z M712,255 L702,255 L702,256.399987 L710.505752,256.399987 L710.505752,262 L712,262 L712,255 Z M716.880954,264.499948 L717.928589,263.452428 C718.023804,263.357109 718.023804,263.166661 717.928589,263.071426 C717.833353,262.976191 717.642882,262.976191 717.547646,263.071426 L716.500031,264.11903 L715.452396,263.071426 C715.357181,262.976191 715.16671,262.976191 715.071474,263.071426 C714.976175,263.166661 714.976175,263.357109 715.071474,263.452428 L716.119026,264.499948 L715.071474,265.547572 C714.976175,265.642807 714.976175,265.833339 715.071474,265.928574 C715.16671,266.023809 715.357181,266.023809 715.452396,265.928574 L716.500031,264.88095 L717.547646,265.928574 C717.642882,266.023809 717.833353,266.023809 717.928589,265.928574 C718.023804,265.833339 718.023804,265.642807 717.928589,265.547572 L716.880954,264.499948 Z" id="shanchuhang"></path>
        </g>
    </g>
</svg>