<?xml version="1.0" encoding="UTF-8"?>
<svg width="16px" height="13px" viewBox="0 0 16 13" version="1.1" xmlns="http://www.w3.org/2000/svg" xmlns:xlink="http://www.w3.org/1999/xlink">
    <!-- Generator: Sketch 53.2 (72643) - https://sketchapp.com -->
    <title>shanchulie</title>
    <desc>Created with Sketch.</desc>
    <g id="dianzibignli" stroke="none" stroke-width="1" fill="none" fill-rule="evenodd">
        <g id="插入表格" transform="translate(-923.000000, -259.000000)" fill="#797979">
            <path d="M928.714286,268.142857 L932.142857,268.142857 L932.142857,267 L928.714286,267 L928.714286,268.142857 Z M924.230738,265.818203 L924.230738,259 L923,259 L923,267 L928.714286,267 L928.714286,265.818203 L924.230738,265.818203 Z M937.6286,259 L937.6286,265.80462 L932.142857,265.80462 L932.142857,267 L939,267 L939,259 L937.6286,259 Z M928.714286,265.857143 L932.142857,265.857143 L932.142857,259 L928.714286,259 L928.714286,265.857143 Z M933.004279,269.343855 C932.901938,269.266334 932.697202,269.266334 932.594861,269.343855 L931.469044,270.196168 L930.343245,269.343855 C930.240905,269.266334 930.036224,269.266334 929.933884,269.343855 C929.831562,269.421332 929.831562,269.576288 929.933884,269.653766 L931.059702,270.506065 L929.933884,271.358379 C930.036224,271.358379 930.036224,271.435856 930.138564,271.51332 C930.240905,271.590798 930.445585,271.590798 930.547925,271.51332 L931.673724,270.661021 L932.799598,271.51332 C932.901938,271.590798 933.106619,271.590798 933.208959,271.51332 C933.311299,271.435856 933.311299,271.280901 933.208959,271.203423 L932.08316,270.35111 L933.208959,269.49881 C933.106619,269.576288 933.106619,269.421332 933.004279,269.343855 Z" id="shanchulie"></path>
        </g>
    </g>
</svg>