<?xml version="1.0" standalone="no"?><!DOCTYPE svg PUBLIC "-//W3C//DTD SVG 1.1//EN" "http://www.w3.org/Graphics/SVG/1.1/DTD/svg11.dtd"><svg t="1595463352159" class="icon" viewBox="0 0 1024 1024" version="1.1" xmlns="http://www.w3.org/2000/svg" p-id="7966" xmlns:xlink="http://www.w3.org/1999/xlink" width="32" height="32"><defs><style type="text/css"></style></defs><path d="M-52.56760889 188.70954667c0 17.21571555 7.52981333 34.33699555 20.62108444 46.51804444 13.09240889 12.20608 31.41176889 19.27850667 49.82784 19.27850667 18.46385778 0 36.78321778-7.07356445 49.87562667-19.27850667 13.09240889-12.18104889 20.62108445-29.30119111 20.62108445-46.51804444 0-17.21685333-7.52867555-34.28920889-20.62108445-46.51918222-13.09240889-12.18104889-31.41176889-19.22958222-49.87562667-19.22958223-18.41607111 0-36.73543111 7.04853333-49.82784 19.22958223-12.94791111 12.22997333-20.62108445 29.30232889-20.62108444 46.51918222m0 0M-53.47555555 515.00942222c0 17.21685333 7.5776 34.43256889 20.62222222 46.66254223 13.09127111 12.18218667 31.41290667 19.23072 50.01898666 19.23072 18.46385778 0 36.88106667-7.04853333 49.97233778-19.23072 13.09240889-12.22997333 20.66887111-29.34897778 20.66887111-46.66254223 0-17.21571555-7.57646222-34.45646222-20.66887111-46.66254222-13.09240889-12.20494222-31.36398222-19.27736889-49.97233778-19.27736889-18.46385778 0-36.92771555 7.07242667-50.01898666 19.27736889C-45.89795555 480.55182222-53.47555555 497.64920889-53.47555555 515.00942222m0 0M-53.47555555 842.79523555c0 17.21799111 7.5776 34.43370667 20.62222222 46.61475556 13.09127111 12.22883555 31.41290667 19.27736889 50.01898666 19.27736889 18.46385778 0 36.88106667-7.04853333 49.97233778-19.27736889 13.09240889-12.18104889 20.66887111-29.25454222 20.66887111-46.61475556 0-17.26464-7.57646222-34.48149333-20.66887111-46.66254222-13.09240889-12.22769778-31.36398222-19.27850667-49.97233778-19.27850666-18.46385778 0-36.92771555 7.05080889-50.01898666 19.27850666C-45.89795555 808.45937778-53.47555555 825.53059555-53.47555555 842.79523555m0 0M1076.01123555 185.73539555c0 34.72042667-27.62183111 62.77575111-61.76881777 62.77575112H282.08128c-34.14584889 0-61.76881778-28.05532445-61.76881778-62.77575112s27.62296889-62.77575111 61.76881778-62.7757511h732.16113778c34.14698667 0 61.76881778 28.05532445 61.76881777 62.7757511m0 0M1076.01123555 512.01137778c0 34.60096-27.62183111 62.79964445-61.76881777 62.79964444H282.08128c-34.14584889 0-61.76881778-28.10197333-61.76881778-62.79964444 0-34.69653333 27.62296889-62.77461333 61.76881778-62.77461333h732.16113778c34.14698667-0.16839111 61.76881778 28.07808 61.76881777 62.77461333m0 0M1076.01123555 839.62993778c0 34.72270222-27.62183111 62.82581333-61.76881777 62.82581333H282.08128c-34.14584889 0-61.76881778-28.10311111-61.76881778-62.82581333 0-34.52814222 27.62296889-62.63125333 61.76881778-62.63125333h732.16113778c34.14698667-0.14449778 61.76881778 28.10311111 61.76881777 62.63125333m0 0" p-id="7967" fill="#3F72FE"></path></svg>