<?xml version="1.0" standalone="no"?><!DOCTYPE svg PUBLIC "-//W3C//DTD SVG 1.1//EN" "http://www.w3.org/Graphics/SVG/1.1/DTD/svg11.dtd"><svg t="1566887957085" class="icon" viewBox="0 0 1024 1024" version="1.1" xmlns="http://www.w3.org/2000/svg" p-id="2331" xmlns:xlink="http://www.w3.org/1999/xlink" width="200" height="200"><defs><style type="text/css"></style></defs><path d="M288.661983 700.753281l448.084799 0 0-37.730819L288.661983 663.022463 288.661983 700.753281zM436.819332 361.236474l-149.54301 0 0 40.482153 149.542011 0L436.819332 361.236474 436.819332 361.236474zM886.236628 413.339948l-0.037774-37.046083L573.373549 63.467561l-41.217055 0 0.26622-0.79626L215.995651 62.671301c-43.22969 0-78.237155 35.009264-78.237155 78.212772l0 742.962072c0 43.227891 35.008264 78.235356 78.237155 78.235356l592.057585 0c43.202709 0 78.184991-35.009264 78.184991-78.235356L886.236628 413.339948 886.236628 413.339948zM587.228955 143.74893l226.674515 219.342686-187.605803 0c-21.56398 0-39.069511-17.479349-39.069511-39.067712L587.228155 143.74893 587.228955 143.74893zM849.919251 885.279373c0 21.590961-17.530714 39.068711-39.118078 39.068711l-596.191782 0c-21.589163 0-39.119077-17.47755-39.119077-39.068711l0-744.396099c0-21.590162 17.529715-39.119077 39.119077-39.119077l329.229582 0 5.632981 5.449505 0 216.810203c0 43.176726 35.05863 78.184991 78.237155 78.184991l222.210142 0L849.919251 885.279373zM287.276323 551.259838l449.470259 0 0-39.119077L287.276323 512.140761 287.276323 551.259838z" p-id="2332" fill="#3F72FE"></path></svg>