<?xml version="1.0" encoding="UTF-8"?>
<svg width="13px" height="14px" viewBox="0 0 13 14" version="1.1" xmlns="http://www.w3.org/2000/svg" xmlns:xlink="http://www.w3.org/1999/xlink">
    <!-- Generator: Sketch 53.2 (72643) - https://sketchapp.com -->
    <title>xiugai</title>
    <desc>Created with Sketch.</desc>
    <defs>
        <polygon id="path-1" points="4.42316624e-17 0 13 0 13 14 4.42316624e-17 14"></polygon>
    </defs>
    <g id="dianzibignli" stroke="none" stroke-width="1" fill="none" fill-rule="evenodd">
        <g id="病历书写--（新）" transform="translate(-667.000000, -225.000000)">
            <g id="xiugai" transform="translate(667.000000, 225.000000)">
                <mask id="mask-2" fill="white">
                    <use xlink:href="#path-1"></use>
                </mask>
                <g id="Clip-2"></g>
                <path d="M11.1434318,14 L1.85755927,14 C1.36490478,14 0.892460163,13.8033011 0.544034201,13.4531258 C0.19568597,13.1030091 0,12.628166 0,12.1330104 L0,1.86599349 C0,0.83603399 0.831811115,0 1.85755927,0 L8.3575204,0 C8.72271667,0 8.90581034,0.1570115 8.90581034,0.472030591 C8.90581034,0.786971558 8.72271667,0.941014312 8.3585892,0.933006511 L1.85656821,0.933006511 C1.61039642,0.933006511 1.37425185,1.03126809 1.20019433,1.20628738 C1.02605908,1.38122854 0.92829382,1.61857196 0.92829382,1.86599349 L0.92829382,12.1330104 C0.92829382,12.6489863 1.34418966,13.0659974 1.85656821,13.0659974 L11.1424602,13.0659974 C11.388768,13.0662318 11.6251457,12.9680483 11.7994365,12.7931072 C11.9737272,12.6180879 12.0717256,12.3805882 12.0717256,12.1330104 L12.0717256,4.66597005 C12.0627672,4.32600959 12.2159541,4.15495514 12.529382,4.15495514 C12.8428099,4.15495514 13,4.3250135 13,4.66597005 L13,12.1330104 C13,13.163966 12.1682083,14 11.1424602,14 L11.1434318,14 Z M2.42565099,6.53295964 C2.04862029,6.5370026 1.86051302,6.38098719 1.86051302,6.06696419 C1.86051302,5.75202323 2.04961135,5.59698438 2.42565099,5.59997266 L5.40855033,5.59997266 C5.81550719,5.56800004 6.01840264,5.72303889 6.01840264,6.06696419 C6.01840264,6.40997153 5.81550719,6.56600646 5.40855033,6.53295964 L2.42565099,6.53295964 Z M2.34512243,9.33295573 C2.01978236,9.31899091 1.85755927,9.15899113 1.85755927,8.85297593 C1.85755927,8.54795682 2.01978236,8.39698047 2.34512243,8.39994922 L8.80530509,8.39994922 C9.12662262,8.39797657 9.28686358,8.55299588 9.28686358,8.86596419 C9.28686358,9.1789911 9.12662262,9.33500651 8.80530509,9.33295573 L2.34512243,9.33295573 Z M7.16066848,5.09803976 L11.7772056,0.4299994 C12.0349009,0.189980204 12.2706763,0.16197243 12.4835989,0.344999519 C12.6985037,0.52695239 12.7124757,0.745018492 12.5273999,0.997010328 L7.81727555,5.75798025 C7.53179168,6.03698377 7.27802176,6.06796028 7.05614069,5.85296058 C6.83425962,5.63696479 6.86910222,5.38596905 7.16066848,5.09803976 Z" id="Fill-1" fill="#317DF1" mask="url(#mask-2)"></path>
            </g>
        </g>
    </g>
</svg>