<?xml version="1.0" encoding="UTF-8"?>
<svg width="26px" height="26px" viewBox="0 0 26 26" version="1.1" xmlns="http://www.w3.org/2000/svg" xmlns:xlink="http://www.w3.org/1999/xlink">
    <!-- Generator: Sketch 53.2 (72643) - https://sketchapp.com -->
    <title>px_shujuyuanguanli</title>
    <desc>Created with Sketch.</desc>
    <g id="dianzibignli" stroke="none" stroke-width="1" fill="none" fill-rule="evenodd">
        <g id="插入" transform="translate(-963.000000, -227.000000)" fill="#5280FE">
            <path d="M974,231.003929 L974,227 C967.888964,227.650011 963,233.252937 963,239.999924 C963,246.746949 967.888964,252.350027 974,253 L974,248.995919 C970.333393,248.371996 966.666607,244.576055 966.666607,239.999924 C966.666607,235.423984 970.333393,231.628042 974,231.003929 Z M985.296631,238 L989,238 C988.425549,231.888949 984.111099,227.574456 978,227 L978,230.764385 C981.666702,231.290036 984.771129,234.333369 985.296631,238 Z M978,249.235509 L978,253 C984.111099,252.425549 988.425549,248.111099 989,242 L985.296631,242 C984.771129,245.666738 981.666702,248.710042 978,249.235509 Z" id="px_shujuyuanguanli"></path>
        </g>
    </g>
</svg>