<?xml version="1.0" standalone="no"?><!DOCTYPE svg PUBLIC "-//W3C//DTD SVG 1.1//EN" "http://www.w3.org/Graphics/SVG/1.1/DTD/svg11.dtd"><svg class="icon" width="200px" height="200.00px" viewBox="0 0 1024 1024" version="1.1" xmlns="http://www.w3.org/2000/svg"><path d="M986.931042 1023.999659c-9.318397 0-18.670927-3.379199-26.009592-10.717863l-256.272981-255.965782a37.205321 37.205321 0 0 1 0-52.360516 366.967344 366.967344 0 0 0 108.305031-261.461246c0-203.639399-165.683145-369.459077-369.459077-369.459077-203.639399 0-369.459077 165.819678-369.459077 369.459077 0 203.844199 165.819678 369.80041 369.459077 369.80041 45.499718 0 89.838903-8.294397 131.822889-24.337058a37.068788 37.068788 0 0 1 47.786651 21.367459 37.068788 37.068788 0 0 1-21.333326 47.650118 442.026519 442.026519 0 0 1-158.310347 28.97919C199.031571 886.920238 0.000171 688.161904 0.000171 443.494252 0.000171 198.997267 199.031571 0 443.494423 0c244.496985 0 443.460119 198.997267 443.460119 443.494252 0 106.188765-37.000521 206.335931-104.994099 286.515105l231.321523 231.014323a37.205321 37.205321 0 0 1 0 52.258116 37.205321 37.205321 0 0 1-26.350924 10.717863z" fill="#3F72FE"/></svg>