<?xml version="1.0" standalone="no"?><!DOCTYPE svg PUBLIC "-//W3C//DTD SVG 1.1//EN" "http://www.w3.org/Graphics/SVG/1.1/DTD/svg11.dtd"><svg class="icon" width="14px" height="14px" viewBox="0 0 1024 1024" version="1.1" xmlns="http://www.w3.org/2000/svg"><path d="M800.776086 760.831599h-17.813289L534.16079 162.261277a27.522992 27.522992 0 0 0-50.665667 0l-243.399616 598.570322h-16.864221a24.383765 24.383765 0 0 0-23.945733 15.550125 27.376981 27.376981 0 0 0 25.259828 38.181764h76.874564a27.011955 27.011955 0 0 0 27.522992-21.755575 25.551849 25.551849 0 0 0-4.599333-19.419405 25.551849 25.551849 0 0 0-17.083236-10.366751l49.205561-121.699808h222.155079l48.402503 121.699808a26.281902 26.281902 0 0 0-21.755575 29.786156 27.011955 27.011955 0 0 0 27.522992 21.755575h167.985158a24.164749 24.164749 0 0 0 23.872728-15.550126 26.573923 26.573923 0 0 0-23.872728-38.181763zM376.031345 586.640992l88.84743-219.526888 88.847431 219.526888H376.031345zM34.001591 474.650887a16.937226 16.937226 0 0 0 16.426189 16.426188 16.937226 16.937226 0 0 0 16.499194-16.426188v-32.852378a17.010231 17.010231 0 0 0-16.499194-16.499194 17.010231 17.010231 0 0 0-16.426189 16.499194v32.852378z m0-105.27362a17.010231 17.010231 0 0 0 16.426189 16.426189 17.010231 17.010231 0 0 0 16.499194-16.426189v-32.925383a16.937226 16.937226 0 0 0-16.499194-16.426188 16.937226 16.937226 0 0 0-16.426189 16.426188v32.925383z m0 209.306149a17.010231 17.010231 0 0 0 16.426189 16.426189 17.010231 17.010231 0 0 0 16.499194-16.426189v-32.925383a16.937226 16.937226 0 0 0-16.499194-16.426189 16.937226 16.937226 0 0 0-16.426189 16.426189v32.925383z m16.426189-300.416743a16.937226 16.937226 0 0 0 16.499194-16.499194V230.229197a16.572199 16.572199 0 0 0-16.499194-15.550126 16.937226 16.937226 0 0 0-16.426189 16.499194v32.852378a15.185099 15.185099 0 0 0 16.426189 15.550125v-1.314095zM34.001591 685.27113a16.937226 16.937226 0 0 0 16.426189 16.426189 16.937226 16.937226 0 0 0 16.499194-16.426189v-32.852378a16.937226 16.937226 0 0 0-16.499194-16.426188 16.937226 16.937226 0 0 0-16.426189 16.426188v32.852378z m0 105.346625a16.061162 16.061162 0 0 0 4.526327 11.899861 16.937226 16.937226 0 0 0 28.399056-11.899861v-34.239478a16.937226 16.937226 0 0 0-16.499194-16.426189 16.937226 16.937226 0 0 0-16.426189 16.426189v34.239478z m922.202744-315.966868a16.353184 16.353184 0 1 0 32.852378 0v-32.852378a16.426189 16.426189 0 1 0-32.852378 0v32.852378z m0-105.27362a16.353184 16.353184 0 1 0 32.852378 0v-32.925383a16.499194 16.499194 0 0 0-32.852378 0v32.925383z m0 210.620244a16.353184 16.353184 0 1 0 32.852378 0V547.072128a16.499194 16.499194 0 0 0-32.852378 0v32.925383z m15.47712-300.416743a16.791215 16.791215 0 0 0 16.426189-16.499194v-32.852377a16.426189 16.426189 0 1 0-32.852378 0v32.852377a16.937226 16.937226 0 0 0 16.426189 16.499194z m-15.47712 405.690362a16.426189 16.426189 0 1 0 32.852378 0v-32.852378a16.426189 16.426189 0 1 0-32.852378 0v32.852378z m0 105.346625a16.353184 16.353184 0 1 0 32.852378 0v-34.239478a16.499194 16.499194 0 0 0-32.852378 0v34.239478z m-481.542851 165.721994h-32.852378a16.426189 16.426189 0 1 0 0 32.852377h32.852378a16.353184 16.353184 0 1 0 0-32.852377z m-105.27362 0h-32.925383a16.426189 16.426189 0 0 0 0 32.852377h32.925383a16.426189 16.426189 0 1 0 0-32.852377z m210.547239 0h-32.852378a16.426189 16.426189 0 1 0 0 32.852377h31.538283a16.353184 16.353184 0 1 0 0-32.852377h1.314095z m-316.696921 0h-32.925383a16.426189 16.426189 0 0 0 0 32.852377h32.925383a16.791215 16.791215 0 0 0 16.426189-16.353183 15.915152 15.915152 0 0 0-16.426189-16.499194z m-103.959524-11.096803h-49.789604v-15.550126a17.302252 17.302252 0 0 0-17.740284-17.375257H65.977905v-52.855826a17.302252 17.302252 0 0 0-16.426189-17.302252 17.375258 17.375258 0 0 0-16.426189 17.302252v52.855826H18.962502a17.375258 17.375258 0 0 0-17.813289 17.375257v73.37031a17.156242 17.156242 0 0 0 4.161301 14.09002 17.156242 17.156242 0 0 0 13.651988 5.840423h71.034141a16.864221 16.864221 0 0 0 12.483904-4.891354 17.083236 17.083236 0 0 0 5.25638-12.410898v-15.550126h51.103699a21.755575 21.755575 0 0 0 17.740284-19.565416c0-9.782708-17.740284-23.142675-17.740284-23.142675l0.438032-2.190158z m526.368096 11.096803h-32.852378a16.426189 16.426189 0 1 0 0 32.852377h32.852378a16.353184 16.353184 0 1 0 0-32.852377z m105.273619 0h-34.604505a16.426189 16.426189 0 1 0 0 32.852377h32.852378a16.791215 16.791215 0 0 0 16.426189-16.353183 16.499194 16.499194 0 0 0-4.672338-11.826856 16.134168 16.134168 0 0 0-11.753851-4.672338h1.752127zM442.247138 67.64643h32.852377a16.937226 16.937226 0 0 0 14.674062-18.251321 16.791215 16.791215 0 0 0-16.426189-16.426189h-31.538282a16.791215 16.791215 0 0 0-16.426189 16.426189 16.791215 16.791215 0 0 0 16.426189 16.426189l0.438032 1.825132z m-105.27362 0h32.852378a16.937226 16.937226 0 0 0 16.426189-16.499194 17.083236 17.083236 0 0 0-4.380317-12.775925 16.937226 16.937226 0 0 0-12.483904-5.402391h-32.925383a16.791215 16.791215 0 0 0-16.353183 16.426189 16.791215 16.791215 0 0 0 16.353183 16.426189l0.511037 1.825132z m210.547239 0h31.100251a16.937226 16.937226 0 0 0 16.426188-16.499194 16.791215 16.791215 0 0 0-16.426188-18.178316h-32.852378a16.791215 16.791215 0 0 0-16.426189 16.426189 16.791215 16.791215 0 0 0 16.426189 16.426189l1.752127 1.825132z m-315.820858 0h32.852378a16.937226 16.937226 0 0 0 16.426189-16.499194 16.791215 16.791215 0 0 0-16.864221-18.178316h-32.852378a17.229247 17.229247 0 0 0-16.426188 17.740284 14.820073 14.820073 0 0 0 16.426188 15.623131l0.438032 1.314095zM157.964563 33.844983h-49.278567V18.73289a17.667279 17.667279 0 0 0-5.402391-13.067946A17.083236 17.083236 0 0 0 89.996643 0.992606H18.962502a17.302252 17.302252 0 0 0-17.813289 17.740284v71.107146a17.521268 17.521268 0 0 0 5.037365 12.702919 17.594273 17.594273 0 0 0 12.775924 5.11037h15.039089v51.030694a21.755575 21.755575 0 0 0 19.565416 17.813289c8.906645 0 23.06967-17.813289 23.06967-17.813289v-49.351572h13.359966a16.937226 16.937226 0 0 0 12.70292-5.037365 17.010231 17.010231 0 0 0 5.037364-12.702919V65.821298h51.103699a16.937226 16.937226 0 0 0 16.499194-16.426189 17.010231 17.010231 0 0 0-17.813289-15.550126h0.438032z m494.391781 31.976315h32.852378a16.791215 16.791215 0 0 0 16.426189-16.426189 16.791215 16.791215 0 0 0-16.426189-16.426189h-32.852378a16.791215 16.791215 0 0 0-16.426189 16.426189 16.791215 16.791215 0 0 0 16.426189 16.426189z m106.149683 0h32.925383a15.039088 15.039088 0 0 0 15.47712-15.550126 16.791215 16.791215 0 0 0-16.426189-16.426189h-34.166473a16.791215 16.791215 0 0 0-16.499194 16.426189c0.219016 4.380317 2.190159 8.468613 5.475396 11.388824 3.285238 2.920211 7.519544 4.453322 11.899862 4.161302h1.314095zM1003.219738 0.992606h-73.735337a17.302252 17.302252 0 0 0-12.410898 5.183375 17.375258 17.375258 0 0 0-4.818349 12.556909V33.844983h-49.351572a21.609564 21.609564 0 0 0-17.302252 19.565416c0 8.833639 17.302252 23.06967 17.302252 23.06967h49.351572v13.359967a17.375258 17.375258 0 0 0 17.229247 17.813289h26.208897v54.607952a16.499194 16.499194 0 0 0 32.925383 0V109.770478h15.47712a17.083236 17.083236 0 0 0 14.309036-5.402391 17.302252 17.302252 0 0 0 4.380317-14.528051V18.73289A18.981374 18.981374 0 0 0 1004.095801 0.992606h-0.876063z m0 911.324957h-15.47712v-49.278567a21.682569 21.682569 0 0 0-19.565416-17.302252c-9.782708 0-23.06967 17.302252-23.06967 17.302252v49.278567h-15.623131a17.302252 17.302252 0 0 0-17.229247 17.375257v26.208897h-49.351572a16.499194 16.499194 0 0 0-16.499194 16.426189c0 9.052655 7.446539 16.426189 16.499194 16.426189h49.351572v15.62313a17.229247 17.229247 0 0 0 17.229247 17.302253h73.297305a17.302252 17.302252 0 0 0 17.375258-17.302253v-73.37031a17.521268 17.521268 0 0 0-4.745344-12.921935 17.667279 17.667279 0 0 0-12.629914-5.767417h0.438032z" /></svg>