<?xml version="1.0" encoding="UTF-8"?>
<svg width="11px" height="13px" viewBox="0 0 11 13" version="1.1" xmlns="http://www.w3.org/2000/svg" xmlns:xlink="http://www.w3.org/1999/xlink">
    <!-- Generator: Sketch 53.2 (72643) - https://sketchapp.com -->
    <title>qingkong copy</title>
    <desc>Created with Sketch.</desc>
    <g id="dianzibignli" stroke="none" stroke-width="1" fill="none" fill-rule="evenodd">
        <path d="M9.87840678,12.9998625 L1.12254813,12.9998625 C0.816814221,13.0043536 0.524615584,12.8986621 0.325684494,12.7117338 C0.111075615,12.5390867 -0.00649080613,12.3032629 0.000276829891,12.0590457 L0.000276829891,10.7441532 C-0.00429727586,10.5502144 0.0871678351,10.3627384 0.254420267,10.2231446 C0.421740715,10.0835509 0.651092159,10.0032725 0.891938382,10 L10.1081663,10 C10.3489445,10.0034231 10.5781599,10.0837563 10.7453444,10.2233637 C10.9125968,10.3629027 11.0041299,10.5502692 10.9997429,10.7441532 L10.9997429,12.0583474 C11.0062554,12.3031533 10.888825,12.5395111 10.6743522,12.7130757 C10.4747409,12.899155 10.1828144,13.0042029 9.87753957,12.9998625 L9.87840678,12.9998625 Z M9.70698973,11.9964447 C9.78363699,12.0002442 9.85682107,11.9644731 9.90060084,11.9018777 C9.9700277,11.8400292 10.0064564,11.7495216 9.9990563,11.6571629 L9.9990563,10.1010944 C9.9990563,10.0391323 9.96133709,10 9.92848594,10 L1.0712678,10 C1.03846565,10 1.00074644,10.0391323 1.00074644,10.1010944 L1.00074644,11.6604753 C0.994244821,11.7526879 1.03047748,11.8427571 1.09920191,11.9051089 C1.14234458,11.9675907 1.21502225,12.0034268 1.29114677,11.9997409 L9.70698973,11.9964447 Z M8,12.6836132 L8,11.3163868 C8,11.1416172 8.22391255,11 8.50001039,11 C8.77619137,11 9,11.1416172 9,11.3163868 L9,12.6836132 C9,12.8583696 8.77619137,13 8.50001039,13 C8.22391255,13 8,12.8583696 8,12.6836132 Z M7,12.6836132 L7,11.3163868 C7,11.1416172 7.22390789,11 7.5,11 C7.77617524,11 8,11.1416172 8,11.3163868 L8,12.6836132 C8,12.8583696 7.77617524,13 7.5,13 C7.22390789,13 7,12.8583696 7,12.6836132 Z M0.891259333,5.8610183 L3.94664264,5.8610183 C3.99080063,5.85519979 4.02273785,5.81838129 4.02008633,5.77648161 L4.02008633,0.855785739 C4.01675493,0.387499911 4.41565564,0.00487280136 4.91222065,0 L6.03566606,0 C6.27455777,0.00168303994 6.50296238,0.0928557181 6.67053501,0.253321555 C6.83817563,0.413803421 6.93133575,0.63051485 6.92953408,0.855785739 L6.92953408,5.70723654 C6.92688256,5.74912019 6.95881977,5.78593869 7.00290978,5.79177323 L10.108689,5.79177323 C10.605118,5.79664603 11.0037467,6.17940137 10.9999734,6.64755897 L10.9999734,8.14419823 C11.0032878,8.61217951 10.604931,8.9947425 10.108689,9 L0.891259333,9 C0.652690567,8.99812461 0.424761872,8.9068237 0.257580169,8.74635787 C0.0903984653,8.58581188 -0.00228573851,8.36916457 4.28395048e-05,8.14419823 L4.28395048e-05,6.71682007 C-0.00228573851,6.4918377 0.0903984653,6.27520642 0.257580169,6.11472455 C0.424761872,5.95417857 0.652690567,5.86289369 0.891259333,5.8610183 Z M1.07068661,6.50115554 C1.02830123,6.50661831 0.997598785,6.54112553 1.00014779,6.58052366 L1.00014779,7.92063188 C0.997598785,7.96003001 1.02830123,7.99458238 1.07068661,8 L9.92932966,8 C9.97171504,7.99458238 10.0024011,7.96003001 9.99985214,7.92063188 L9.99985214,6.51549718 C10.0024011,6.4761743 9.97171504,6.44160688 9.92932966,6.43614412 L6.94361114,6.43614412 C6.46637525,6.43155419 6.08315845,6.07220052 6.08680222,5.63266609 L6.08680222,1.07936812 C6.08935123,1.03998504 6.05864879,1.00541762 6.01619804,1 L4.93783809,1 C4.89540369,1.00541762 4.86470125,1.03998504 4.86725025,1.07936812 L4.86725025,5.69915231 C4.86942344,5.9104244 4.78038799,6.1137657 4.61966994,6.26449589 C4.45895189,6.41515084 4.23977011,6.50086961 4.01044134,6.50269054 L1.0715036,6.50269054 L1.07068661,6.50115554 Z" id="qingkong-copy" fill="#000000"></path>
    </g>
</svg>