<?xml version="1.0" standalone="no"?><!DOCTYPE svg PUBLIC "-//W3C//DTD SVG 1.1//EN" "http://www.w3.org/Graphics/SVG/1.1/DTD/svg11.dtd"><svg class="icon" width="32px" height="32.00px" viewBox="0 0 1024 1024" version="1.1" xmlns="http://www.w3.org/2000/svg"><path fill="#3F72FE" d="M934.7072 109.7728q0-1.0752-0.1024-2.167467v-0.256A22.186667 22.186667 0 0 0 914.773333 87.6544h-0.136533c-0.750933 0-1.501867-0.119467-2.235733-0.119467H725.998933a22.340267 22.340267 0 0 0 0 44.680534H858.453333l-204.629333 204.629333a22.340267 22.340267 0 0 0 31.5904 31.5904L890.026667 163.84v132.437333a22.340267 22.340267 0 1 0 44.680533 0V109.858133s0.017067-0.068267 0-0.085333zM165.546667 132.1984h132.437333a22.340267 22.340267 0 1 0 0-44.680533H111.598933c-0.750933 0-1.501867 0-2.235733 0.119466H109.226667a22.186667 22.186667 0 0 0-19.797334 19.694934v0.273066q-0.1024 1.0752-0.1024 2.133334v186.4704a22.340267 22.340267 0 1 0 44.680534 0V163.84l204.629333 204.629333a22.340267 22.340267 0 0 0 31.5904-31.5904zM338.5856 655.581867L133.973333 860.16v-132.437333a22.340267 22.340267 0 0 0-44.680533 0v186.4704q0 1.0752 0.1024 2.1504v0.256A22.186667 22.186667 0 0 0 109.226667 936.3456h0.221866c0.7168 0 1.450667 0.1024 2.184534 0.119467h186.368a22.340267 22.340267 0 1 0 0-44.680534H165.546667l204.629333-204.629333a22.340267 22.340267 0 1 0-31.5904-31.5904zM912.384 705.4336a22.408533 22.408533 0 0 0-22.340267 22.340267V860.16l-204.629333-204.629333a22.340267 22.340267 0 1 0-31.5904 31.5904L858.453333 891.8016h-132.437333a22.340267 22.340267 0 0 0 0 44.680533h186.436267q1.092267 0 2.184533-0.119466h0.221867a22.186667 22.186667 0 0 0 19.712-19.6608v-0.290134q0.1024-1.058133 0.1024-2.133333V727.773867a22.408533 22.408533 0 0 0-22.289067-22.340267z"  /></svg>