<?xml version="1.0" encoding="UTF-8"?>
<svg width="47px" height="31px" viewBox="0 0 47 31" version="1.1" xmlns="http://www.w3.org/2000/svg" xmlns:xlink="http://www.w3.org/1999/xlink">
    <!-- Generator: Sketch 60.1 (88133) - https://sketch.com -->
    <title>隐藏</title>
    <desc>Created with Sketch.</desc>
    <g id="护理文书" stroke="none" stroke-width="1" fill="none" fill-rule="evenodd">
        <path d="M7.71708605,23 C7.10713635,22.9974963 6.52272323,22.7692786 6.08996334,22.3645852 C4.13399759,20.5563045 2.36720682,18.5752074 0.813425161,16.4481921 L0,15.2430354 L0.813425161,14.0378787 C1.18530585,13.5119828 9.97179573,1 21.3611099,1 C23.0760104,1.01078497 24.778449,1.27707113 26.405095,1.78890805 C27.624722,2.17004135 28.2854725,3.41108378 27.8811774,4.5609033 C27.4768141,5.71040184 26.1603524,6.33329832 24.9407254,5.95210082 C23.7865401,5.58675981 22.5785578,5.39442776 21.3611099,5.38235886 C14.3879895,5.38235886 7.92621361,12.3724989 5.62499331,15.2430354 C6.76269898,16.6608744 8.00547915,18.0009717 9.34400447,19.2530559 C10.0117009,19.8769795 10.2146316,20.8188673 9.85848141,21.6388463 C9.50226316,22.4590822 8.65717264,22.9962124 7.71708605,23 Z M25.4327865,31 C22.9941754,30.9719449 20.5892589,30.4250769 18.3767935,29.3960888 C17.1948688,28.8554399 16.6735349,27.4561378 17.2126463,26.2709116 C17.7517577,25.08534 19.1468739,24.5627956 20.3290053,25.1034445 C21.9302159,25.8471131 23.6684781,26.2487301 25.4327865,26.2827971 C32.6061933,26.2827971 39.0269526,18.7585595 41.3554537,15.6686932 C39.8874362,13.7192753 38.2418509,11.9110314 36.4397827,10.2674561 C35.7157996,9.74000554 35.3526711,8.84652522 35.5031593,7.96202808 C35.6538542,7.07718543 36.2917751,6.35514554 37.1492958,6.09843406 C38.0068854,5.84199899 38.9351713,6.09573911 39.5445657,6.75303105 C42.0348554,9.03337525 44.2597236,11.5890192 46.1769317,14.3714537 L47,15.6686932 L46.1769317,16.9659326 C45.8477044,17.5320108 36.9573958,31 25.4327865,31 Z M9.28745969,31 C8.67866998,30.9912768 8.09761403,30.7424275 7.67139358,30.3076852 C6.77620214,29.4074325 6.77620214,27.9532874 7.67139358,27.0531023 L34.0620893,0.670687304 C34.6476097,0.0893403138 35.4989683,-0.13550309 36.2956034,0.0808875543 C37.0920357,0.297210576 37.71246,0.921903317 37.9233042,1.71964095 C38.1341484,2.51737859 37.9032141,3.36684711 37.3174232,3.94826172 L10.9267274,30.3076852 C10.4949603,30.748243 9.90470481,30.9976332 9.28745969,31 Z" id="隐藏" fill="#3F72FE"></path>
    </g>
</svg>