<?xml version="1.0" encoding="UTF-8"?>
<svg width="25px" height="25px" viewBox="0 0 25 25" version="1.1" xmlns="http://www.w3.org/2000/svg" xmlns:xlink="http://www.w3.org/1999/xlink">
    <!-- Generator: Sketch 53.2 (72643) - https://sketchapp.com -->
    <title>chaolianjie</title>
    <desc>Created with Sketch.</desc>
    <defs>
        <polygon id="path-1" points="7.93827146e-17 0 25 0 25 25 7.93827146e-17 25"></polygon>
    </defs>
    <g id="dianzibignli" stroke="none" stroke-width="1" fill="none" fill-rule="evenodd">
        <g id="新增病历模版-copy-3" transform="translate(-720.000000, -228.000000)">
            <g id="chaolianjie" transform="translate(720.000000, 228.000000)">
                <mask id="mask-2" fill="white">
                    <use xlink:href="#path-1"></use>
                </mask>
                <g id="Clip-2"></g>
                <path d="M15.2023709,9.52221082 C15.0150966,9.33480677 14.8156057,9.16031872 14.6051027,9 L12.6828392,10.9446783 C12.9066599,11.0801398 13.1197094,11.238683 13.3118016,11.4347906 L13.4087424,11.5328269 C14.6403414,12.778822 14.6403414,14.8054873 13.4087424,16.0514476 L8.15459891,21.3668575 C6.92299988,22.6128177 4.91979747,22.6128177 3.68995349,21.3668575 L3.59301269,21.2688211 C2.36141366,20.0228609 2.36141366,17.9961607 3.59301269,16.751976 L5.96980025,14.3473344 C5.55750072,13.3153065 5.36189847,12.2173061 5.37776276,11.1210463 L1.70072267,14.8375859 C-0.566907556,17.1316581 -0.566907556,20.885588 1.70072267,23.1814008 L1.79762906,23.279472 C4.06525929,25.5735093 7.77578302,25.5735093 10.0451339,23.279472 L15.2992773,17.9640621 C17.5669076,15.66999 17.5669076,11.91606 15.2992773,9.62202272 L15.2023709,9.52221082 Z" id="Fill-1" fill="#5280FE" mask="url(#mask-2)"></path>
                <path d="M23.2992885,1.81859919 L23.2023828,1.720528 C20.9347675,-0.573509333 17.2241305,-0.573509333 14.9565496,1.720528 L9.70068567,7.03579864 C7.43310478,9.32987079 7.43310478,13.0838007 9.70068567,15.377838 L9.79762584,15.4759092 C9.98796168,15.666551 10.1887933,15.839542 10.3948557,16 L12.3171066,14.0553217 C12.093425,13.919721 11.8819943,13.7594022 11.6881484,13.5650702 L11.5912426,13.4670338 C10.3596517,12.2210388 10.3596517,10.1943734 11.5912426,8.94841319 L16.8453171,3.63314255 C18.076908,2.38718234 20.0802349,2.38718234 21.3101052,3.63314255 L21.4068733,3.73117892 C22.6384642,4.97713913 22.6384642,7.00370008 21.4068733,8.24788477 L19.0301358,10.6525264 C19.4423982,11.6845542 19.6379992,12.7825547 19.622135,13.8788145 L23.2992885,10.1604993 C25.5669038,7.86642717 25.5669038,4.11263652 23.2992885,1.81859919 Z" id="Fill-3" fill="#5280FE" mask="url(#mask-2)"></path>
            </g>
        </g>
    </g>
</svg>