<?xml version="1.0" encoding="UTF-8"?>
<svg width="17px" height="15px" viewBox="0 0 17 15" version="1.1" xmlns="http://www.w3.org/2000/svg" xmlns:xlink="http://www.w3.org/1999/xlink">
    <!-- Generator: Sketch 53.2 (72643) - https://sketchapp.com -->
    <title>huaban copy</title>
    <desc>Created with Sketch.</desc>
    <defs>
        <polygon id="path-1" points="0 0 17 0 17 15 0 15"></polygon>
    </defs>
    <g id="dianzibignli" stroke="none" stroke-width="1" fill="none" fill-rule="evenodd">
        <g id="huaban-copy">
            <mask id="mask-2" fill="white">
                <use xlink:href="#path-1"></use>
            </mask>
            <g id="Clip-2"></g>
            <path d="M6.28988685,6.00823158 L16.4898197,6.00823158 C16.5836058,6.00787658 16.659511,5.93179549 16.6597544,5.83774249 L16.6597544,4.64447419 C16.659511,4.55053213 16.5836058,4.47434011 16.4898197,4.47407385 L6.28988685,4.47407385 C6.19616716,4.47434011 6.12026196,4.55053213 6.11993002,4.64447419 L6.11993002,5.83756499 C6.12035048,5.93144049 6.19625568,6.00754376 6.28988685,6.00796533 L6.28988685,6.00823158 Z M6.11993002,10.3549933 C6.12026196,10.4490241 6.19616716,10.5251274 6.28988685,10.5254824 L16.4898197,10.5254824 C16.5836058,10.5251274 16.659511,10.4490241 16.6597544,10.3549933 L16.6597544,9.16145876 C16.659511,9.0675167 16.5836058,8.99132467 16.4898197,8.99105842 L6.28988685,8.99105842 C6.19616716,8.99132467 6.12026196,9.0675167 6.11993002,9.16145876 L6.11993002,10.3549933 Z M16.8299768,0 L0.169958135,0 C0.0762384481,0.000266250527 0.000266858204,0.0764360888 1.30065065e-06,0.170400337 L1.30065065e-06,1.36349114 C0.000266858204,1.4574332 0.0762384481,1.53353647 0.169958135,1.53389147 L16.8299768,1.53389147 C16.9237629,1.53353647 16.9996681,1.4574332 17,1.36349114 L17,0.170400337 C16.9996681,0.0764360888 16.9237629,0.000266250527 16.8299768,0 Z M16.8299768,13.4651545 L0.169958135,13.4651545 C0.0762384481,13.4653985 0.000266858204,13.5415906 1.30065065e-06,13.6355326 L1.30065065e-06,14.8286456 C-0.000175737718,14.8739748 0.0177272673,14.9174845 0.0495277843,14.9496343 C0.0814389502,14.981784 0.124746961,14.9999112 0.169958135,15 L16.8299768,15 C16.9237629,14.9997337 16.9996681,14.9236305 17,14.8295997 L17,13.6355326 C16.9996681,13.5415906 16.9237629,13.4653985 16.8299768,13.4651545 Z M0.646080697,10.271435 L3.96745327,7.6485567 C4.01275296,7.61283475 4.03919807,7.55831996 4.03919807,7.50052141 C4.03919807,7.44270067 4.01275296,7.38818587 3.96745327,7.35248611 L0.646080697,4.72707842 C0.589561198,4.68199333 0.512350339,4.67325144 0.447266609,4.70453587 C0.382182879,4.73582031 0.340600992,4.80160638 0.340158396,4.87398215 L0.340158396,10.1222903 C0.340158396,10.1949102 0.381386206,10.26114 0.446580586,10.292846 C0.511664316,10.3246629 0.589118602,10.3163426 0.646080697,10.271435 Z" id="Fill-1" fill="#000000" mask="url(#mask-2)"></path>
        </g>
    </g>
</svg>