<?xml version="1.0" encoding="UTF-8"?>
<svg width="23px" height="24px" viewBox="0 0 23 24" version="1.1" xmlns="http://www.w3.org/2000/svg" xmlns:xlink="http://www.w3.org/1999/xlink">
    <!-- Generator: Sketch 53.2 (72643) - https://sketchapp.com -->
    <title>插入 copy</title>
    <desc>Created with Sketch.</desc>
    <g id="电子病历" stroke="none" stroke-width="1" fill="none" fill-rule="evenodd">
        <g id="插入" transform="translate(-1017.000000, -172.000000)" fill-rule="nonzero">
            <g id="插入-copy" transform="translate(1014.000000, 171.000000)">
                <g id="分组">
                    <rect id="矩形" fill="#000000" opacity="0" x="0" y="0" width="28" height="28"></rect>
                    <path d="M24.5047578,24.4901289 L24.5059336,10.4869844 L22.7556055,10.4869844 L22.7544297,12.2557148 L10.5020508,12.2557148 L10.5032266,14.0028438 L22.7556055,13.9962266 L22.7556055,17.4917695 L10.500957,17.499043 L10.5020508,19.2468008 L22.7556055,19.2395547 L22.7556055,22.7350977 L10.5020508,22.7423711 L10.5020508,24.4901289 L24.5047578,24.4901289 Z M14.0029805,5.24409375 L3.50068359,5.24384766 L3.50068359,6.99846875 L14.0047031,6.99830469 L14.0029805,5.24409375 Z M13.983375,5.24053906 L13.9850977,6.99477734 L17.4837852,6.99516016 L15.7530625,10.4942578 L17.5033906,10.4942578 L21.0040742,6.12453516 L17.5033906,1.74639063 L15.7530625,1.74639063 L17.4837852,5.24053906 L13.983375,5.24053906 Z" id="形状" stroke="#5280FE" fill="#5280FE"></path>
                </g>
            </g>
        </g>
    </g>
</svg>