<?xml version="1.0" encoding="UTF-8"?>
<svg width="25px" height="23px" viewBox="0 0 25 23" version="1.1" xmlns="http://www.w3.org/2000/svg" xmlns:xlink="http://www.w3.org/1999/xlink">
    <!-- Generator: Sketch 53.2 (72643) - https://sketchapp.com -->
    <title>tupian</title>
    <desc>Created with Sketch.</desc>
    <defs>
        <polygon id="path-1" points="7.94883175e-17 0 25 0 25 23 7.94883175e-17 23"></polygon>
    </defs>
    <g id="dianzibignli" stroke="none" stroke-width="1" fill="none" fill-rule="evenodd">
        <g id="新增病历模版-copy-3" transform="translate(-554.000000, -228.000000)">
            <g id="tupian" transform="translate(554.000000, 228.000000)">
                <mask id="mask-2" fill="white">
                    <use xlink:href="#path-1"></use>
                </mask>
                <g id="Clip-2"></g>
                <path d="M1.56249345,3.28569855 L1.56249345,19.7142647 C1.56249345,20.5356894 2.34374018,21.3572609 3.1249869,21.3572609 L21.8750131,21.3572609 C22.8124323,21.3572609 23.4375065,20.7000771 23.4375065,19.7142647 L23.4375065,3.28569855 C23.4375065,2.46427391 22.6562598,1.64284927 21.8750131,1.64284927 L3.1249869,1.64284927 C2.18742797,1.64284927 1.56249345,2.30006976 1.56249345,3.28569855 Z M0,3.28569855 C0,1.47849825 1.40618125,0 3.1249869,0 L21.8750131,0 C23.5938188,0 25,1.47849825 25,3.28569855 L25,19.7142647 C25,21.5215017 23.5938188,23 21.8750131,23 L3.1249869,23 C1.40618125,23 0,21.5215017 0,19.7142647 L0,3.28569855 Z M0.781246726,18.8928401 L6.87504802,11.1713898 C7.49998254,10.514206 8.28136895,10.514206 8.74995635,11.1713898 L13.2812642,17.2499908 L17.6562249,12.6500349 C18.2811245,11.9928144 19.218858,11.9928144 19.6874454,12.814239 L24.2187533,18.8928401 L23.4373669,21.6855957 L2.34374018,22.1786855 L0.781246726,18.8928401 Z M14.0625109,7.39285845 C14.0625109,8.75385821 15.111926,9.85713237 16.4062511,9.85713237 C17.7005413,9.85713237 18.7499913,8.75385821 18.7499913,7.39285845 C18.7499913,6.03182198 17.7005413,4.92858454 16.4062511,4.92858454 C15.111926,4.92858454 14.0625109,6.03182198 14.0625109,7.39285845 Z" id="Fill-1" fill="#5280FE" mask="url(#mask-2)"></path>
            </g>
        </g>
    </g>
</svg>