<?xml version="1.0" encoding="UTF-8"?>
<svg width="18px" height="13px" viewBox="0 0 18 13" version="1.1" xmlns="http://www.w3.org/2000/svg" xmlns:xlink="http://www.w3.org/1999/xlink">
    <!-- Generator: Sketch 53.2 (72643) - https://sketchapp.com -->
    <title>wuxuliebiao-2 copy</title>
    <desc>Created with Sketch.</desc>
    <g id="dianzibignli" stroke="none" stroke-width="1" fill="none" fill-rule="evenodd">
        <path d="M0,3 L3,3 L3,0 L0,0 L0,3 Z M5,3 L18,3 L18,0 L5,0 L5,3 Z M0,8 L3,8 L3,5 L0,5 L0,8 Z M5,8 L18,8 L18,5 L5,5 L5,8 Z M0,13 L3,13 L3,10 L0,10 L0,13 Z M5,13 L18,13 L18,10 L5,10 L5,13 Z" id="wuxuliebiao-2-copy" fill="#000000"></path>
    </g>
</svg>