<?xml version="1.0" standalone="no"?><!DOCTYPE svg PUBLIC "-//W3C//DTD SVG 1.1//EN" "http://www.w3.org/Graphics/SVG/1.1/DTD/svg11.dtd"><svg class="icon" width="200px" height="200.00px" viewBox="0 0 1024 1024" version="1.1" xmlns="http://www.w3.org/2000/svg"><path d="M668.990746 233.665482v-11.391979c0 59.327889 54.655898 127.039762 121.791771 127.039762h153.599712v555.582958c0 21.759959-19.263964 39.423926-43.071919 39.423926H121.791772c-23.743955 0-43.071919-17.663967-43.07192-39.423926V119.553696c0-21.759959 19.327964-39.423926 43.07192-39.423926h547.198974v153.599712z m354.175336 80.767848c0-0.639999-0.447999-1.215998-0.448-1.791996 0.319999-1.855997 1.279998-3.519993 1.279998-5.43999 0-18.879965-17.599967-34.111936-39.359926-34.111936h-193.855637c-23.807955 0-43.135919-29.055946-43.135919-50.815905V113.793707l127.87176 95.99982c10.55998 8.383984 25.599952 3.839993 39.167927 0a36.095932 36.095932 0 0 0 26.239951-26.239951 31.87194 31.87194 0 0 0-13.823974-32.639939L737.854617 8.321904A42.87992 42.87992 0 0 0 712.126665 0.00192H121.791772C54.655898 0.00192 0 48.321829 0 107.649718v808.702484C0 975.680091 54.655898 1024 121.791772 1024h779.518538c67.199874 0 121.855772-48.319909 121.855772-107.647798V314.43333zM191.99964 832.00036h639.9988v-127.99976H191.99964v127.99976z" fill="#3F72FE" /></svg>