<?xml version="1.0" encoding="UTF-8"?>
<svg width="18px" height="18px" viewBox="0 0 18 18" version="1.1" xmlns="http://www.w3.org/2000/svg" xmlns:xlink="http://www.w3.org/1999/xlink">
    <!-- Generator: Sketch 53.2 (72643) - https://sketchapp.com -->
    <title>xiafangcharuhang</title>
    <desc>Created with Sketch.</desc>
    <defs>
        <polygon id="path-1" points="5.00125493e-17 0 18 0 18 18 5.00125493e-17 18"></polygon>
    </defs>
    <g id="dianzibignli" stroke="none" stroke-width="1" fill="none" fill-rule="evenodd">
        <g id="插入表格" transform="translate(-802.000000, -229.000000)">
            <g id="xiafangcharuhang" transform="translate(802.000000, 229.000000)">
                <mask id="mask-2" fill="white">
                    <use xlink:href="#path-1"></use>
                </mask>
                <g id="Clip-2"></g>
                <polygon id="Fill-1" fill="#5683FF" mask="url(#mask-2)" points="0.947368421 17.0526316 17.0526316 17.0526316 17.0526316 11.3684211 0.947368421 11.3684211"></polygon>
                <path d="M12.3157768,0 L0,0 L0,18 L18,18 L18,0 L12.3157768,0 Z M6.63155351,5.68422325 L11.3684685,5.68422325 L11.3684685,0.947396176 L6.63155351,0.947396176 L6.63155351,5.68422325 Z M6.63155351,11.3684685 L11.3684685,11.3684685 L11.3684685,6.63155351 L6.63155351,6.63155351 L6.63155351,11.3684685 Z M0.947396176,5.68422325 L5.68422325,5.68422325 L5.68422325,0.947396176 L0.947396176,0.947396176 L0.947396176,5.68422325 Z M0.947396176,11.3684685 L5.68422325,11.3684685 L5.68422325,6.63155351 L0.947396176,6.63155351 L0.947396176,11.3684685 Z M0.947396176,17.0526917 L5.68422325,17.0526917 L5.68422325,12.3157768 L0.947396176,12.3157768 L0.947396176,17.0526917 Z M6.63155351,17.0526917 L11.3684685,17.0526917 L11.3684685,12.3157768 L6.63155351,12.3157768 L6.63155351,17.0526917 Z M12.3157768,17.0526917 L17.0526917,17.0526917 L17.0526917,12.3157768 L12.3157768,12.3157768 L12.3157768,17.0526917 Z M12.3157768,11.3684685 L17.0526917,11.3684685 L17.0526917,6.63155351 L12.3157768,6.63155351 L12.3157768,11.3684685 Z M12.3157768,5.68422325 L17.0526917,5.68422325 L17.0526917,0.947396176 L12.3157768,0.947396176 L12.3157768,5.68422325 Z" id="Fill-3" fill="#B0B0B0" mask="url(#mask-2)"></path>
            </g>
        </g>
    </g>
</svg>