<?xml version="1.0" encoding="UTF-8"?>
<svg width="18px" height="18px" viewBox="0 0 18 18" version="1.1" xmlns="http://www.w3.org/2000/svg" xmlns:xlink="http://www.w3.org/1999/xlink">
    <!-- Generator: Sketch 53.2 (72643) - https://sketchapp.com -->
    <title>youcecharuhang</title>
    <desc>Created with Sketch.</desc>
    <defs>
        <polygon id="path-1" points="0.00131707317 0.0175609756 17.9824171 0.0175609756 17.9824171 17.999978 0.00131707317 17.999978"></polygon>
    </defs>
    <g id="dianzibignli" stroke="none" stroke-width="1" fill="none" fill-rule="evenodd">
        <g id="插入表格" transform="translate(-1025.000000, -229.000000)">
            <g id="youcecharuhang" transform="translate(1025.000000, 229.000000)">
                <mask id="mask-2" fill="white">
                    <use xlink:href="#path-1"></use>
                </mask>
                <g id="Clip-2"></g>
                <polygon id="Fill-1" fill="#5683FF" mask="url(#mask-2)" points="12.3037463 17.0535951 17.0360341 17.0535951 17.0360341 0.964031707 12.3037463 0.964031707"></polygon>
                <path d="M12.3037463,0.0175609756 L0,0.0175609756 L0,17.999978 L17.9824171,17.999978 L17.9824171,0.0175609756 L12.3037463,0.0175609756 Z M6.62507561,5.69623171 L11.3573634,5.69623171 L11.3573634,0.964031707 L6.62507561,0.964031707 L6.62507561,5.69623171 Z M6.62507561,11.3749244 L11.3573634,11.3749244 L11.3573634,6.64263659 L6.62507561,6.64263659 L6.62507561,11.3749244 Z M0.946470732,5.69623171 L5.67867073,5.69623171 L5.67867073,0.964031707 L0.946470732,0.964031707 L0.946470732,5.69623171 Z M0.946470732,11.3749244 L5.67867073,11.3749244 L5.67867073,6.64263659 L0.946470732,6.64263659 L0.946470732,11.3749244 Z M0.946470732,17.0535951 L5.67867073,17.0535951 L5.67867073,12.3213073 L0.946470732,12.3213073 L0.946470732,17.0535951 Z M6.62507561,17.0535951 L11.3573634,17.0535951 L11.3573634,12.3213073 L6.62507561,12.3213073 L6.62507561,17.0535951 Z M12.3037463,17.0535951 L17.0360341,17.0535951 L17.0360341,12.3213073 L12.3037463,12.3213073 L12.3037463,17.0535951 Z M12.3037463,11.3749244 L17.0360341,11.3749244 L17.0360341,6.64263659 L12.3037463,6.64263659 L12.3037463,11.3749244 Z M12.3037463,5.69623171 L17.0360341,5.69623171 L17.0360341,0.964031707 L12.3037463,0.964031707 L12.3037463,5.69623171 Z" id="Fill-3" fill="#B0B0B0" mask="url(#mask-2)"></path>
            </g>
        </g>
    </g>
</svg>