<?xml version="1.0" encoding="UTF-8"?>
<svg width="26px" height="26px" viewBox="0 0 26 26" version="1.1" xmlns="http://www.w3.org/2000/svg" xmlns:xlink="http://www.w3.org/1999/xlink">
    <!-- Generator: Sketch 53.2 (72643) - https://sketchapp.com -->
    <title>shanchubiaoge copy</title>
    <desc>Created with Sketch.</desc>
    <defs>
        <polygon id="path-1" points="7.2240349e-17 0 26 0 26 26 7.2240349e-17 26"></polygon>
    </defs>
    <g id="dianzibignli" stroke="none" stroke-width="1" fill="none" fill-rule="evenodd">
        <g id="插入表格" transform="translate(-553.000000, -227.000000)">
            <g id="shanchubiaoge-copy" transform="translate(553.000000, 227.000000)">
                <mask id="mask-2" fill="white">
                    <use xlink:href="#path-1"></use>
                </mask>
                <g id="Clip-2"></g>
                <path d="M24.6859011,17.3140989 C24.2671027,16.8953004 23.588274,16.8953004 23.1694755,17.3140989 L20.9999675,19.4834769 L18.830557,17.3140989 C18.4117585,16.8953004 17.7327998,16.8953004 17.3140013,17.3140989 C16.8953329,17.7327673 16.8953329,18.411726 17.3140013,18.8305245 L19.4835094,20.9999025 L17.3140013,23.1685328 C16.8953329,23.5873313 16.8953329,24.2663225 17.3140013,24.685121 C17.7327998,25.1037894 18.4117585,25.1037894 18.830557,24.685121 L20.9999675,22.5155804 L23.1685653,24.6859987 C23.5873638,25.1046671 24.266225,25.1046671 24.6850234,24.6859987 C25.1038219,24.2672002 25.1038219,23.5882415 24.6850234,23.169443 L22.5165231,21.0000325 L24.6859011,18.8305245 C25.1046996,18.411726 25.1046996,17.7327673 24.6859011,17.3140989 Z" id="Fill-1" fill="#5280FE" mask="url(#mask-2)" transform="translate(21.000000, 21.000000) rotate(45.000000) translate(-21.000000, -21.000000) "></path>
                <path d="M0,0 L0,26 L17.0876258,26 C16.4263262,25.4158245 15.8904881,24.7034579 15.5124848,23.9060326 L9.90768788,23.9060326 L9.90768788,17.7404831 L15.8426268,17.7404831 C16.371768,16.8765977 17.0945448,16.1476003 17.9539868,15.6110322 L17.9539868,9.97538571 L23.9060326,9.97538571 L23.9060326,15.1334657 C24.6895565,15.4631317 25.4009392,15.9430468 26,16.5460749 L26,0 L0,0 Z M2.09399914,23.9060326 L8.0463941,23.9060326 L8.0463941,17.7404831 L2.09399914,17.7404831 L2.09399914,23.9060326 Z M2.09399914,15.8791893 L8.0463941,15.8791893 L8.0463941,9.97538571 L2.09399914,9.97538571 L2.09399914,15.8791893 Z M2.09399914,8.11409194 L8.0463941,8.11409194 L8.0463941,2.09399914 L2.09399914,2.09399914 L2.09399914,8.11409194 Z M9.90768788,15.8791893 L16.0924391,15.8791893 L16.0924391,9.97538571 L9.90768788,9.97538571 L9.90768788,15.8791893 Z M9.90768788,8.11409194 L16.0924391,8.11409194 L16.0924391,2.09399914 L9.90768788,2.09399914 L9.90768788,8.11409194 Z M17.9537329,8.11409194 L23.9060326,8.11409194 L23.9060326,2.09399914 L17.9537329,2.09399914 L17.9537329,8.11409194 Z" id="Fill-3" fill="#5280FE" mask="url(#mask-2)"></path>
            </g>
        </g>
    </g>
</svg>