<?xml version="1.0" encoding="UTF-8"?>
<svg width="21px" height="15px" viewBox="0 0 21 15" version="1.1" xmlns="http://www.w3.org/2000/svg" xmlns:xlink="http://www.w3.org/1999/xlink">
    <!-- Generator: Sketch 53.2 (72643) - https://sketchapp.com -->
    <title>youxuliebiaod1ev copy</title>
    <desc>Created with Sketch.</desc>
    <g id="dianzibignli" stroke="none" stroke-width="1" fill="none" fill-rule="evenodd">
        <path d="M5,4 L21,4 L21,1 L5,1 L5,4 Z M5,9 L21,9 L21,6 L5,6 L5,9 Z M5,14 L21,14 L21,11 L5,11 L5,14 Z M2,4 L1.33514194,4 L1.33514194,0.882731491 C1.1729903,0.994022953 0.967535923,1.10934367 0.702657096,1.22063513 C0.443256013,1.33200298 0.210828282,1.41549067 0,1.47516566 L0,1.00200508 C0.372979919,0.874749365 0.697283194,0.715717914 0.973013668,0.532816468 C1.25949195,0.349915023 1.45946858,0.170966448 1.57294357,0 L2,0 L2,4 Z M3,9.53081139 L3,10 L0.000581359394,10 C-0.00400314685,9.88072641 0.0186586541,9.76935857 0.0638953461,9.66201997 C0.140789031,9.48314778 0.262941136,9.30419921 0.430395115,9.13323276 C0.597762184,8.95823706 0.842022939,8.75944774 1.15876669,8.5288636 C1.65187271,8.1749957 1.98662857,7.89266141 2.15858015,7.68588997 C2.33044481,7.47911853 2.4164206,7.28032921 2.4164206,7.09740867 C2.4164206,6.90257223 2.33952692,6.73958791 2.18115504,6.60837932 C2.02287007,6.47717074 1.81923978,6.40951362 1.56589692,6.40951362 C1.29897436,6.40951362 1.0817861,6.48112361 0.92350113,6.62031432 C0.765129253,6.75942865 0.679153466,6.95426509 0.679153466,7.20474726 L0.104634442,7.1530544 C0.145308355,6.77934577 0.290100533,6.49305861 0.547940986,6.29426929 C0.805868349,6.09943285 1.14518699,6 1.57947662,6 C2.01378797,6 2.35760421,6.10733859 2.61094707,6.3180629 C2.86428992,6.5288636 2.99100481,6.79128077 2.99100481,7.1053908 C2.99100481,7.26442225 2.95476331,7.4234728 2.87786962,7.57459851 C2.80547353,7.7296007 2.67884556,7.89266141 2.50689399,8.05967499 C2.33502932,8.23064143 2.04994256,8.46523574 1.6472882,8.75944774 C1.31255406,9.00597705 1.0999503,9.17299062 1.00489241,9.26048848 C0.909921432,9.34790994 0.833027746,9.43540779 0.76962685,9.52685852 L3,9.52685852 L3,9.53081139 Z M0,13.8945379 L0.560770174,13.8320279 C0.624664253,14.1055184 0.734059325,14.3008151 0.889042976,14.4218766 C1.04411421,14.5430131 1.23100111,14.6015646 1.45441142,14.6015646 C1.71887773,14.6015646 1.94222235,14.5234459 2.12466425,14.3672085 C2.30701857,14.2109711 2.39819573,14.0156744 2.39819573,13.785183 C2.39819573,13.5625522 2.31608373,13.3828642 2.14741475,13.238277 C1.97874577,13.0937649 1.76446631,13.0234881 1.50453258,13.0234881 C1.39967009,13.0234881 1.26743694,13.0429803 1.10792071,13.0781562 L1.1717272,12.6562702 C1.20816303,12.6601536 1.24015386,12.6601536 1.26290436,12.6601536 C1.5,12.6601536 1.71887773,12.6054856 1.91031911,12.5000328 C2.10182617,12.3945613 2.19753591,12.2304821 2.19753591,12.0077762 C2.19753591,11.8320467 2.12919684,11.6875346 1.98781093,11.5702815 C1.84651261,11.4531035 1.66866898,11.3984354 1.44987884,11.3984354 C1.23100111,11.3984354 1.04864679,11.4570619 0.902728308,11.57424 C0.756809821,11.691418 0.665632664,11.8672226 0.620044085,12.1015787 L0.059273911,12.0156181 C0.127634883,11.6953014 0.282706119,11.4453366 0.528866927,11.2656486 C0.770495154,11.089844 1.07601746,11 1.43619351,11 C1.6868869,11 1.91493927,11.0469012 2.12466425,11.1367452 C2.33438923,11.2265892 2.49390547,11.3515341 2.60792071,11.51173 C2.71731578,11.6718508 2.77658969,11.8398135 2.77658969,12.0156181 C2.77658969,12.1835808 2.72184836,12.3398182 2.61698587,12.4765822 C2.51212338,12.6133275 2.35260715,12.726547 2.14741475,12.8086242 C2.41641364,12.8632923 2.62613862,12.9727035 2.77658969,13.1406662 C2.92704076,13.3086289 3,13.5195344 3,13.7734577 C3,14.1172437 2.85408151,14.4062679 2.56233213,14.6445824 C2.27049515,14.882822 1.90578652,15 1.458944,15 C1.05771196,15 0.724906575,14.8985057 0.460527852,14.6914086 C0.186908794,14.4843866 0.0364358286,14.218813 0,13.8945379 Z" id="youxuliebiaod1ev-copy" fill="#000000"></path>
    </g>
</svg>