<?xml version="1.0" encoding="UTF-8"?>
<svg width="10px" height="12px" viewBox="0 0 10 12" version="1.1" xmlns="http://www.w3.org/2000/svg" xmlns:xlink="http://www.w3.org/1999/xlink">
    <!-- Generator: Sketch 53.2 (72643) - https://sketchapp.com -->
    <title>Fill 1 Copy 3</title>
    <desc>Created with Sketch.</desc>
    <g id="dianzibignli" stroke="none" stroke-width="1" fill="none" fill-rule="evenodd">
        <path d="M9.50000463,0 L3.5000787,0 C3.2240257,0 3.00008333,0.165623631 3.00008333,0.369741455 C3.00008333,0.57387982 3.2240257,0.73948291 3.5000787,0.73948291 L5.89001954,0.73948291 L3.09001769,11.2605171 L0.49999537,11.2605171 C0.223942371,11.2605171 0,11.4262023 0,11.6302585 C0,11.8343764 0.223942371,12 0.49999537,12 L6.50003241,12 C6.7759743,12 7.00002778,11.8343764 7.00002778,11.6302585 C7.00002778,11.4262023 6.7759743,11.2605171 6.50003241,11.2605171 L4.11009157,11.2605171 L6.90998231,0.73948291 L9.50000463,0.73948291 C9.77594652,0.73948291 10,0.573797656 10,0.369741455 C10,0.165623631 9.77594652,0 9.50000463,0 Z" id="Fill-1-Copy-3" fill="#000000"></path>
    </g>
</svg>