<?xml version="1.0" standalone="no"?><!DOCTYPE svg PUBLIC "-//W3C//DTD SVG 1.1//EN" "http://www.w3.org/Graphics/SVG/1.1/DTD/svg11.dtd"><svg class="icon" width="200px" height="194.49px" viewBox="0 0 1053 1024" version="1.1" xmlns="http://www.w3.org/2000/svg"><path d="M942.784955 0.006687v286.764895h-66.865671V0.006687z" fill="#3F72FE" /><path d="M765.969194 109.955821h286.764896v66.865672H765.969194z" fill="#3F72FE" /><path d="M0.183403 401.954388v-72.597015H878.739104v72.597015zM164.912716 1023.825194v-66.865672H714.010746v66.865672zM273.696478 763.818985v-66.865672h330.495044v66.865672zM273.696478 893.82209v-66.865672h330.495044v66.865672zM164.912716 292.456119v-72.597015H714.010746v72.597015z" fill="#3F72FE" /><path d="M149.495403 219.88203h66.865672v124.201074h-66.865672zM0.146149 332.338627h66.865672v401.421373h-66.865672zM811.911642 332.338627h66.865671v401.421373h-66.865671zM662.062806 219.84191h66.865672v121.953433h-66.865672z" fill="#3F72FE" /><path d="M0.183403 734.349373v-66.865672H171.128358v66.865672z" fill="#3F72FE" /><path d="M164.967164 631.40394h66.865672v367.791761h-66.865672zM647.068657 632.359164h66.865671v367.791761h-66.865671z" fill="#3F72FE" /><path d="M707.276418 734.349373v-66.865672h170.94591v66.865672zM164.912716 633.814925v-66.865671H714.010746v66.865671z" fill="#3F72FE" /></svg>