<?xml version="1.0" encoding="UTF-8"?>
<svg width="16px" height="14px" viewBox="0 0 16 14" version="1.1" xmlns="http://www.w3.org/2000/svg" xmlns:xlink="http://www.w3.org/1999/xlink">
    <!-- Generator: Sketch 53.2 (72643) - https://sketchapp.com -->
    <title>hangjianju copy</title>
    <desc>Created with Sketch.</desc>
    <defs>
        <polygon id="path-1" points="0 0 16 0 16 14 0 14"></polygon>
    </defs>
    <g id="dianzibignli" stroke="none" stroke-width="1" fill="none" fill-rule="evenodd">
        <g id="hangjianju-copy">
            <mask id="mask-2" fill="white">
                <use xlink:href="#path-1"></use>
            </mask>
            <g id="Clip-2"></g>
            <path d="M4.33423558,3.28004975 C4.4609533,3.41316972 4.64498959,3.4970752 4.84940867,3.4970752 C5.23244061,3.4970752 5.54219219,3.20363714 5.54219219,2.84137664 C5.54219219,2.6725196 5.47492641,2.51903754 5.36458175,2.40272786 L3.28630829,0.217147083 C3.15951346,0.0839298048 2.97547717,0 2.77164928,0 C2.56681895,0 2.38319391,0.0839298048 2.25588501,0.217147083 L0.178125625,2.40272786 C0.063154353,2.52292993 -0.000307321639,2.67925832 1.11906357e-06,2.84137664 C1.11906357e-06,3.20363714 0.310343873,3.4970752 0.692784641,3.4970752 C0.897100904,3.4970752 1.08124,3.41316972 1.20806054,3.28004975 L2.07835169,2.36453371 L2.07835169,11.6237914 L1.20806054,10.7081781 C1.08124,10.5749608 0.897100904,10.4912256 0.692784641,10.4912256 C0.310343873,10.4912256 1.11906357e-06,10.7845907 1.11906357e-06,11.1470215 C1.11906357e-06,11.3155136 0.0671640821,11.4692876 0.178125625,11.5855 L2.25647619,13.7713483 C2.38319391,13.9045899 2.56681895,13.9883008 2.77164928,13.9883008 C2.97547717,13.9883008 3.15951346,13.9045899 3.28630829,13.7713483 L5.36458175,11.5855 C5.47492641,11.4691903 5.54270626,11.3155136 5.54270626,11.1470215 C5.54270626,10.7845907 5.23244061,10.4912256 4.84930585,10.4912256 C4.65290623,10.4911526 4.46555421,10.5700223 4.33413277,10.7081781 L3.46432999,11.6235968 L3.46432999,2.36453371 L4.33423558,3.28004975 Z M12.0317075,6.04871156 C12.7255962,6.04632747 13.1823198,5.64949762 13.1812146,5.07561237 C13.1795181,4.49992689 12.7239769,4.0896926 12.0344063,4.0884519 C8.61485277,4.08217541 10.3980256,4.08066711 6.97847202,4.09567716 C6.72164373,4.09691787 6.43158095,4.19327901 6.21580098,4.32888038 C5.84811396,4.55979682 5.74650845,5.00063508 5.89129566,5.39471592 C6.04209746,5.80429337 6.38459515,6.0439677 6.88940977,6.04605986 C8.6280129,6.05318782 7.68109995,6.04880887 9.42019144,6.04880887 L9.42019144,6.05051179 C11.1296726,6.05070641 10.3222263,6.05459881 12.0317075,6.04871156 Z M13.0523121,8.06334313 C9.30262413,8.05752886 10.755971,8.05706664 7.00638591,8.06854921 C6.75888795,8.069425 6.48237086,8.1381258 6.27093476,8.25718449 C5.87813552,8.47785906 5.74640564,8.92409802 5.88145126,9.33975733 C6.01960699,9.7649287 6.37254026,10.0093469 6.90305827,10.0107579 C8.81425968,10.0163775 8.04004781,10.0129474 9.95122352,10.0132393 C11.8180352,10.0135312 11.1684333,10.0207565 13.0358362,10.0052599 C13.2964943,10.003265 13.5903612,9.94358971 13.8089428,9.81691652 C14.2094531,9.58427283 14.3215198,9.15464954 14.1750105,8.73025666 C14.025828,8.29644904 13.6674713,8.06448652 13.0523121,8.06334313 Z M14.8798489,0.125554122 C12.9829129,0.117647692 11.8410397,0.12297541 9.94410368,0.12297541 C8.0619214,0.1228781 8.86504958,0.120883246 6.98289301,0.124118801 C6.40155939,0.125359503 6.02785778,0.366834066 5.88034601,0.815554428 C5.66017076,1.48426819 6.16339176,2.0823836 6.96813926,2.08418384 C9.45895216,2.08970617 9.26386341,2.08647062 11.7546763,2.08647062 C13.0430588,2.08647062 13.5768155,2.08921963 14.8656092,2.08467039 C15.3961273,2.08296746 15.7676184,1.85441079 15.9271593,1.45252083 C16.1954513,0.776971045 15.6949292,0.12895997 14.8798489,0.125554122 Z M11.4432283,12.0471382 C9.70423963,12.0402049 11.1547591,12.0444865 9.41628453,12.0440973 C7.69204959,12.0436351 8.65361348,12.03821 6.92876166,12.0462868 C6.27204,12.0492304 5.82513513,12.4610946 5.82955611,13.0227188 C5.8332574,13.5812048 6.28728211,13.9951612 6.93912013,13.9962072 C10.3871788,14.0014133 7.96131832,14.0031406 11.409891,13.9888847 C11.6519656,13.987644 11.9262722,13.8916721 12.1283779,13.7610092 C12.4878399,13.5283655 12.5905506,13.0851431 12.4480767,12.6906001 C12.3038036,12.293381 11.9470662,12.0492304 11.4432283,12.0471382 Z" id="Fill-1" fill="#000000" mask="url(#mask-2)"></path>
        </g>
    </g>
</svg>