<?xml version="1.0" encoding="UTF-8"?>
<svg width="19px" height="22px" viewBox="0 0 19 22" version="1.1" xmlns="http://www.w3.org/2000/svg" xmlns:xlink="http://www.w3.org/1999/xlink">
    <!-- Generator: Sketch 53.2 (72643) - https://sketchapp.com -->
    <title>yixueshuyu</title>
    <desc>Created with Sketch.</desc>
    <g id="dianzibignli" stroke="none" stroke-width="1" fill="none" fill-rule="evenodd">
        <g id="新增病历模版-copy-3" transform="translate(-1042.000000, -252.000000)" fill="#5683FF">
            <path d="M1052.8566,261.571069 L1055,261.571069 L1055,262.856569 L1052.8566,262.856569 L1052.8566,265 L1051.57107,265 L1051.57107,262.856569 L1049,262.856569 L1049,261.571069 L1051.57107,261.571069 L1051.57107,259 L1052.8566,259 L1052.8566,261.571069 Z M1051.22274,255 L1045,255 L1045,274 L1059.22424,274 C1060.20778,274 1061,273.226185 1061,272.273199 L1061,255 L1051.22274,255 Z M1042.86407,254.010943 L1042.86407,254.072412 C1042.86407,253.604042 1043.25042,253.343495 1043.72804,253.343495 L1061,253.343495 C1060.69921,252.84011 1059.90886,252 1059.27185,252 L1043.72516,252 C1042.76963,252 1042,252.758078 1042,253.691781 L1042,272.308072 C1042,273.241812 1042.77266,274 1043.72516,274 L1044.58909,274 L1044.58909,254.856761 L1043.72516,254.856761 C1043.2474,254.856761 1042.86105,254.537745 1042.86105,254.069412 L1042.86105,254.010943 L1042.86407,254.010943 Z M1048,269 L1056,269 L1056,268 L1048,268 L1048,269 Z M1059.40435,273 L1047,273 L1047,257 L1060,257 L1060,272.400298 C1060,272.733095 1059.7349,273 1059.40435,273 Z" id="yixueshuyu"></path>
        </g>
    </g>
</svg>