<?xml version="1.0" encoding="UTF-8"?>
<svg width="18px" height="16px" viewBox="0 0 18 16" version="1.1" xmlns="http://www.w3.org/2000/svg" xmlns:xlink="http://www.w3.org/1999/xlink">
    <!-- Generator: Sketch 53.2 (72643) - https://sketchapp.com -->
    <title>_GJWchaifendanyuange Copy</title>
    <desc>Created with Sketch.</desc>
    <defs>
        <polygon id="path-1" points="5.04319438e-17 0 18 0 18 17 5.04319438e-17 17"></polygon>
    </defs>
    <g id="电子病历" stroke="none" stroke-width="1" fill="none" fill-rule="evenodd">
        <g id="插入表格" transform="translate(-1252.000000, -186.000000)">
            <g id="_GJWchaifendanyuange-Copy" transform="translate(1261.000000, 193.500000) rotate(90.000000) translate(-1261.000000, -193.500000) translate(1252.000000, 185.000000)">
                <mask id="mask-2" fill="white">
                    <use xlink:href="#path-1"></use>
                </mask>
                <g id="Clip-2"></g>
                <path d="M7.72519084,13.5886158 L8.87022901,13.5886158 L8.87022901,3.38870432 L7.72519084,3.38870432 L7.72519084,13.5886158 Z M10.129771,13.5999557 L11.2748092,13.5999557 L11.2748092,3.40004427 L10.129771,3.40004427 L10.129771,13.5999557 Z M3.14501953,0 L7.72520948,0 C8.35759912,0 8.87022901,0.507388021 8.87022901,1.1333112 L8.87022901,15.8666888 C8.87022901,16.492612 8.35759912,17 7.72520948,17 L3.14501953,17 C2.51262989,17 2,16.492612 2,15.8666888 L2,1.1333112 C2,0.507388021 2.51262989,0 3.14501953,0 Z M11.2747905,0 L15.8549805,0 C16.4873701,0 17,0.507388021 17,1.1333112 L17,15.8666888 C17,16.492612 16.4873701,17 15.8549805,17 L11.2747905,17 C10.6424009,17 10.129771,16.492612 10.129771,15.8666888 L10.129771,1.1333112 C10.129771,0.507388021 10.6424009,0 11.2747905,0 Z M3.14503817,15.8629457 L7.72519084,15.8629457 L7.72519084,1.12956811 L3.14503817,1.12956811 L3.14503817,15.8629457 Z M11.2748092,15.8666888 L15.8794324,15.8666888 L15.8794324,1.1333112 L11.2748092,1.1333112 L11.2748092,15.8666888 Z" id="Fill-1" fill="#ABABAB" mask="url(#mask-2)"></path>
                <path d="M7.38336884,8.45858687 L4.54200682,8.45858687 C4.34837624,8.45858687 4.16939764,8.57669232 4.07263529,8.76845935 C3.97578824,8.96020218 3.97578824,9.19641308 4.07263529,9.38818011 C4.16939764,9.57985031 4.34837624,9.69795576 4.54200682,9.69795576 L7.46037643,9.69795576 L6.36539497,10.9498154 C6.16003434,11.1929253 6.16293509,11.5794852 6.37202224,11.8185283 C6.58110939,12.0575714 6.91920595,12.0608635 7.13185023,11.825984 L9.1146316,9.56046059 C9.216772,9.44453376 9.27425773,9.28682583 9.27425773,9.12229156 C9.27425773,8.95775728 9.216772,8.80002515 9.1146316,8.68419515 L7.13185023,6.41736454 C6.9199682,6.17536819 6.57655711,6.17565867 6.36490798,6.41792129 C6.15325886,6.66028074 6.15349176,7.05286819 6.36539497,7.29486453 L7.38444868,8.45858687 L7.38336884,8.45858687 Z M11.6165571,8.21402859 L14.4579402,8.21402859 C14.7573319,8.21402859 15,8.49146383 15,8.83365252 C15,9.17596224 14.7573319,9.45339748 14.4579402,9.45339748 L11.5396553,9.45339748 L12.6345521,10.7051603 C12.8464341,10.9471324 12.8466882,11.3397441 12.6350391,11.5819825 C12.42339,11.824342 12.0800636,11.8246324 11.8680757,11.5826603 L9.88531546,9.31704003 C9.7828363,9.2011132 9.72518118,9.04311479 9.72518118,8.87829003 C9.72518118,8.71346528 9.7828363,8.55546686 9.88531546,8.43954004 L11.8680757,6.17391977 C12.0808046,5.93913708 12.4188377,5.94245343 12.6279248,6.18149653 C12.837012,6.42053963 12.8399127,6.80700273 12.6345521,7.05018521 L11.6154984,8.21523893 L11.6165571,8.21402859 Z" id="Fill-3" fill="#ABABAB" mask="url(#mask-2)"></path>
            </g>
        </g>
    </g>
</svg>