<?xml version="1.0" encoding="UTF-8"?>
<svg width="12px" height="12px" viewBox="0 0 12 12" version="1.1" xmlns="http://www.w3.org/2000/svg" xmlns:xlink="http://www.w3.org/1999/xlink">
    <!-- Generator: Sketch 53.2 (72643) - https://sketchapp.com -->
    <title>jiahao</title>
    <desc>Created with Sketch.</desc>
    <g id="dianzibignli" stroke="none" stroke-width="1" fill="none" fill-rule="evenodd">
        <g id="病历书写-" transform="translate(-364.000000, -230.000000)" fill="#5280FE">
            <path d="M370,230 C366.686451,230 364,232.686451 364,236 C364,239.313549 366.686451,242 370,242 C373.313549,242 376,239.313549 376,236 C376,232.686451 373.313549,230 370,230 Z M373.458325,236.61857 L370.61857,236.61857 L370.61857,239.458325 C370.61857,239.692664 370.426619,239.884615 370.19228,239.884615 C369.957941,239.884615 369.766059,239.692664 369.766059,239.458325 L369.766059,236.61857 L366.926235,236.61857 C366.691896,236.61857 366.5,236.426619 366.5,236.19228 C366.5,235.957941 366.691896,235.766059 366.926235,235.766059 L369.766059,235.766059 L369.766059,232.926235 C369.766059,232.691896 369.957941,232.5 370.19228,232.5 C370.426619,232.5 370.61857,232.691896 370.61857,232.926235 L370.61857,235.766059 L373.458325,235.766059 C373.692664,235.766059 373.884615,235.957941 373.884615,236.19228 C373.883472,236.426619 373.692664,236.61857 373.458325,236.61857 Z" id="jiahao"></path>
        </g>
    </g>
</svg>