<?xml version="1.0" encoding="UTF-8"?>
<svg width="32px" height="31px" viewBox="0 0 32 31" version="1.1" xmlns="http://www.w3.org/2000/svg" xmlns:xlink="http://www.w3.org/1999/xlink">
    <!-- Generator: Sketch 60.1 (88133) - https://sketch.com -->
    <title>大纲</title>
    <desc>Created with Sketch.</desc>
    <defs>
        <polygon id="path-1" points="0.00276657061 0.0171066282 31.997464 0.0171066282 31.997464 30.1095101 0.00276657061 30.1095101"></polygon>
    </defs>
    <g id="护理文书" stroke="none" stroke-width="1" fill="none" fill-rule="evenodd">
        <g id="大纲">
            <mask id="mask-2" fill="white">
                <use xlink:href="#path-1"></use>
            </mask>
            <g id="Clip-2"></g>
            <path d="M7.55458213,5.7609683 L30.3186167,5.7609683 L30.3186167,1.69595389 L7.55458213,1.69595389 L7.55458213,5.7609683 Z M31.1579481,7.43981556 L6.71525072,7.43981556 C6.2516196,7.43981556 5.87573487,7.06393084 5.87573487,6.60048415 L5.87573487,0.85643804 C5.87573487,0.392806916 6.2516196,0.0171066282 6.71525072,0.0171066282 L31.1579481,0.0171066282 C31.6215793,0.0171066282 31.997464,0.392806916 31.997464,0.85643804 L31.997464,6.60048415 C31.997464,7.06393084 31.6215793,7.43981556 31.1579481,7.43981556 Z M12.0034121,17.8122882 L30.2979135,17.8122882 L30.2979135,15.7137983 L12.0034121,15.7137983 L12.0034121,17.8122882 Z M31.137245,19.4911354 L11.1638963,19.4911354 C10.7004496,19.4911354 10.3245648,19.1152507 10.3245648,18.6516196 L10.3245648,14.8744207 C10.3245648,14.4108357 10.7004496,14.0350893 11.1638963,14.0350893 L31.137245,14.0350893 C31.6008761,14.0350893 31.9767608,14.4108357 31.9767608,14.8744207 L31.9767608,18.6516196 C31.9767608,19.1152507 31.6008761,19.4911354 31.137245,19.4911354 Z M12.0034121,28.4306167 L30.2979135,28.4306167 L30.2979135,26.3323112 L12.0034121,26.3323112 L12.0034121,28.4306167 Z M31.137245,30.1095101 L11.1638963,30.1095101 C10.7004496,30.1095101 10.3245648,29.7337637 10.3245648,29.2701326 L10.3245648,25.4927954 C10.3245648,25.0291643 10.7004496,24.6534179 11.1638963,24.6534179 L31.137245,24.6534179 C31.6008761,24.6534179 31.9767608,25.0291643 31.9767608,25.4927954 L31.9767608,29.2701326 C31.9767608,29.7337637 31.6008761,30.1095101 31.137245,30.1095101 Z M1.67884726,26.5421095 L1.67884726,4.29805187 L3.83737176,4.29805187 L3.83737176,2.61920461 L0.839331412,2.61920461 C0.375700288,2.61920461 0,2.99495101 0,3.45853602 L0,27.381487 C0,27.845072 0.375700288,28.2208184 0.839331412,28.2208184 L7.87896254,28.2208184 L7.87896254,26.5421095 L1.67884726,26.5421095 Z" id="Fill-1" fill="#2C2C2E" mask="url(#mask-2)"></path>
            <polygon id="Fill-3" fill="#2C2C2E" mask="url(#mask-2)" points="0.00276657061 17.6024438 7.87896254 17.6024438 7.87896254 15.9235965 0.00276657061 15.9235965"></polygon>
        </g>
    </g>
</svg>