<?xml version="1.0" encoding="UTF-8"?>
<svg width="28px" height="26px" viewBox="0 0 28 26" version="1.1" xmlns="http://www.w3.org/2000/svg" xmlns:xlink="http://www.w3.org/1999/xlink">
    <!-- Generator: Sketch 53.2 (72643) - https://sketchapp.com -->
    <title>fenyefu</title>
    <desc>Created with Sketch.</desc>
    <defs>
        <polygon id="path-1" points="8.89716047e-17 0 28 0 28 26 8.89716047e-17 26"></polygon>
    </defs>
    <g id="dianzibignli" stroke="none" stroke-width="1" fill="none" fill-rule="evenodd">
        <g id="新增病历模版-copy-3" transform="translate(-797.000000, -228.000000)">
            <g id="fenyefu" transform="translate(797.000000, 228.000000)">
                <mask id="mask-2" fill="white">
                    <use xlink:href="#path-1"></use>
                </mask>
                <g id="Clip-2"></g>
                <path d="M25.7484532,0 L25.7484532,7.31207988 C25.7484532,7.79495567 25.3545175,8.19011425 24.872906,8.19011425 L4.09653228,8.19011425 C3.61492071,8.19011425 3.22082868,7.79495567 3.22082868,7.31207988 L3.22082868,0 L0.96943824,0 L0.96943824,7.31207988 C0.96943824,9.03985022 2.37342528,10.447637 4.09653228,10.447637 L24.872906,10.447637 C26.5958566,10.447637 28,9.03985022 28,7.31207988 L28,0 L25.7484532,0 Z M24.872906,15.5524022 L4.09653228,15.5524022 C2.37342528,15.5524022 0.96943824,16.960189 0.96943824,18.6879593 L0.96943824,26 L3.22082868,26 L3.22082868,18.6879593 C3.22082868,18.2050443 3.61492071,17.8098857 4.09653228,17.8098857 L24.872906,17.8098857 C25.3545175,17.8098857 25.7484532,18.2050443 25.7484532,18.6879593 L25.7484532,26 L28,26 L28,18.6879593 C28,16.9571318 26.5958566,15.5524022 24.872906,15.5524022 Z M0,10.3629377 L0,15.6338483 L4.55304892,12.9969624 L0,10.3629377 Z" id="Fill-1" fill="#5280FE" mask="url(#mask-2)"></path>
            </g>
        </g>
    </g>
</svg>