<?xml version="1.0" standalone="no"?><!DOCTYPE svg PUBLIC "-//W3C//DTD SVG 1.1//EN" "http://www.w3.org/Graphics/SVG/1.1/DTD/svg11.dtd"><svg class="icon" width="200px" height="200.00px" viewBox="0 0 1024 1024" version="1.1" xmlns="http://www.w3.org/2000/svg"><path d="M840 972.864 183.936 972.864c-12.352 0-22.336-9.984-22.336-22.4L161.6 55.936c0-12.352 9.984-22.4 22.336-22.4l492.032 0c12.224 0 22.464 10.048 22.464 22.4 0 12.288-10.048 22.336-22.464 22.336L206.272 78.272l0 849.92 611.328 0L817.6 216.96c0-12.352 9.984-22.336 22.4-22.336 12.224 0 22.4 9.984 22.4 22.336l0 733.504C862.4 962.88 852.224 972.864 840 972.864z" fill="#3F72FE" /><path d="M840 239.296l-163.968 0c-12.288 0-22.464-9.984-22.464-22.336L653.568 55.872c0-8.96 5.376-17.152 13.76-20.608 8.32-3.584 17.856-1.664 24.32 4.672l163.968 161.088c6.528 6.336 8.512 16 5.056 24.384S849.152 239.296 840 239.296zM698.368 194.624l86.848 0-86.848-85.376L698.368 194.624z" fill="#3F72FE" /><path d="M754.944 350.336c0 14.464-11.84 26.112-26.048 26.112L295.168 376.448c-14.4 0-26.112-11.648-26.112-26.112l0 0c0-14.4 11.712-26.048 26.112-26.048l433.6 0C743.104 324.224 754.944 335.872 754.944 350.336L754.944 350.336z" fill="#3F72FE" /><path d="M754.944 483.328c0 14.464-11.84 26.112-26.048 26.112L295.168 509.44c-14.4 0-26.112-11.648-26.112-26.112l0 0c0-14.4 11.712-26.048 26.112-26.048l433.6 0C743.104 457.216 754.944 468.864 754.944 483.328L754.944 483.328z" fill="#3F72FE" /><path d="M754.944 616.448c0 14.592-11.84 25.984-26.048 25.984L295.168 642.432c-14.4 0-26.112-11.584-26.112-25.984l0 0c0-14.4 11.712-26.048 26.112-26.048l433.6 0C743.104 590.4 754.944 602.048 754.944 616.448L754.944 616.448z" fill="#3F72FE" /><path d="M754.944 749.312c0 14.592-11.84 26.112-26.048 26.112L295.168 775.424c-14.4 0-26.112-11.84-26.112-26.112l0 0c0-14.464 11.712-25.984 26.112-25.984l433.6 0C743.104 723.328 754.944 734.848 754.944 749.312L754.944 749.312z" fill="#3F72FE"/></svg>