<?xml version="1.0" standalone="no"?><!DOCTYPE svg PUBLIC "-//W3C//DTD SVG 1.1//EN" "http://www.w3.org/Graphics/SVG/1.1/DTD/svg11.dtd"><svg class="icon" width="200px" height="200.00px" viewBox="0 0 1024 1024" version="1.1" xmlns="http://www.w3.org/2000/svg"><path d="M921.062434 807.629523l-18.942816-11.1993 19.51878-11.647272a44.47722 44.47722 0 0 0 18.302856-54.844572l-18.55884-45.43716a44.47722 44.47722 0 0 0-52.220737-26.110368l-21.566652 5.631648 5.695644-21.566652a44.605212 44.605212 0 0 0-25.5984-52.540717l-42.87732-17.854884V95.994c0-52.924692-43.069308-95.994-95.994-95.994h-511.968002c-52.924692 0-95.994 43.069308-95.994001 95.994v831.948004c0 52.924692 43.069308 95.994 95.994001 95.994h475.04231c2.431848 0 4.543716-0.895944 6.783576-1.343916 17.27892 2.367852 34.813824-5.11968 43.773264-20.606712l11.51928-19.134804 11.903256 20.030748c8.191488 13.183176 22.270608 21.054684 37.693644 21.054684a61.180176 61.180176 0 0 0 16.702956-3.1998l45.949128-18.814824a44.7972 44.7972 0 0 0 25.726392-51.964752l-5.503656-21.43866 22.462596 5.75964a44.093244 44.093244 0 0 0 51.452785-25.91838l19.134804-45.693145a44.349228 44.349228 0 0 0-18.430848-55.03656zM144.790951 927.942004v-831.948004a31.998 31.998 0 0 1 31.998-31.998h511.968002a31.998 31.998 0 0 1 31.998 31.998v503.712518l-5.11968 8.767452-11.1993-19.070808c-10.87932-19.070808-34.365852-27.454284-55.100556-19.070808l-46.077121 18.750828a44.861196 44.861196 0 0 0-25.726392 52.220737l5.75964 21.502656-21.75864-5.887632a44.989188 44.989188 0 0 0-52.284732 25.726392l-19.006812 45.565152a44.349228 44.349228 0 0 0 18.750828 55.35654l18.942816 10.87932-20.030748 11.903256a44.413224 44.413224 0 0 0-18.302856 54.652584l18.686832 45.501157a44.733204 44.733204 0 0 0 52.47672 26.110368l20.990688-5.631648-5.631648 22.3986c-0.895944 3.583776-0.63996 7.03956-0.703956 10.55934H176.852947a31.998 31.998 0 0 1-31.998-31.998z m686.421098-132.471721c0 3.903756-0.191988 7.871508-0.511968 11.775264a31.870008 31.870008 0 0 0 15.615024 30.590088l27.454284 16.126992-5.823636 14.015124-31.550028-8.063496a31.806012 31.806012 0 0 0-32.381976 10.23936 127.35204 127.35204 0 0 1-15.807012 15.743016 31.870008 31.870008 0 0 0-10.495344 32.573965l7.9995 30.846072-13.823136 5.695644-16.63896-28.030248a32.061996 32.061996 0 0 0-27.51828-15.67902l-2.623836 0.127992c-7.231548 0.511968-14.3991 0.63996-21.630648-0.127992a31.934004 31.934004 0 0 0-30.462096 15.423036l-16.63896 27.710268-14.07912-5.887632 8.063496-31.806012a31.998 31.998 0 0 0-10.623337-32.445973 111.993 111.993 0 0 1-15.231048-15.35904 32.381976 32.381976 0 0 0-33.149928-10.815324l-30.3981 8.191488-5.631648-13.75914 27.966252-16.510968a32.061996 32.061996 0 0 0 15.551028-30.270108 126.3921 126.3921 0 0 1-0.447972-10.23936c0-4.351728 0.31998-8.31948 0.703956-12.47922a31.998 31.998 0 0 0-15.935004-30.71808l-27.1983-15.551028 5.631648-13.503156 30.654084 8.31948a32.445972 32.445972 0 0 0 32.95794-10.303356c4.7997-5.75964 10.23936-11.135304 15.999001-15.935004a31.998 31.998 0 0 0 10.751328-32.95794l-8.127492-30.71808 13.75914-5.631649 16.382976 27.838261c6.271608 10.751328 18.366852 16.63896 30.590088 15.67902 7.295544-0.63996 14.71908-0.575964 21.75864 0.127992 12.7992 1.151928 24.31848-4.863696 30.654084-15.551028l16.31898-27.518281 13.823136 5.759641-8.255484 30.846072a31.998 31.998 0 0 0 10.23936 32.63796c5.695644 4.735704 11.007312 10.047372 15.67902 15.807012a31.422036 31.422036 0 0 0 33.021936 10.943316l30.846072-7.9995 5.631648 13.887132-28.094244 16.766952a31.998 31.998 0 0 0-15.487032 30.270108c0.31998 3.327792 0.511968 6.71958 0.511968 9.983376z" fill="#3F72FE" /><path d="M714.803325 746.385351a49.148928 49.148928 0 0 0-34.749828 83.83476c18.55884 18.55884 50.940816 18.55884 69.499656 0a49.148928 49.148928 0 0 0-34.749828-83.83476zM325.387663 340.010749h317.420162a31.998 31.998 0 1 0 0-63.996h-317.420162a31.998 31.998 0 1 0 0 63.996z" fill="#3F72FE" /><path d="M215.890507 307.948753m-31.998 0a31.998 31.998 0 1 0 63.996 0 31.998 31.998 0 1 0-63.996 0Z" fill="#3F72FE" /><path d="M325.387663 479.970002h317.420162a31.998 31.998 0 1 0 0-63.996h-317.420162a31.998 31.998 0 1 0 0 63.996z" fill="#3F72FE" /><path d="M215.890507 447.972002m-31.998 0a31.998 31.998 0 1 0 63.996 0 31.998 31.998 0 1 0-63.996 0Z" fill="#3F72FE" /><path d="M460.8032 555.99725H325.387663a31.998 31.998 0 1 0 0 63.996H460.8032a31.998 31.998 0 1 0 0-63.996z" fill="#3F72FE" /><path d="M215.890507 587.931254m-31.998 0a31.998 31.998 0 1 0 63.996 0 31.998 31.998 0 1 0-63.996 0Z" fill="#3F72FE" /></svg>