<?xml version="1.0" standalone="no"?><!DOCTYPE svg PUBLIC "-//W3C//DTD SVG 1.1//EN" "http://www.w3.org/Graphics/SVG/1.1/DTD/svg11.dtd"><svg class="icon" width="200px" height="200.00px" viewBox="0 0 1024 1024" version="1.1" xmlns="http://www.w3.org/2000/svg"><path d="M213.333333 341.333333v512h426.666667V341.333333H213.333333z m512-42.666666v602.069333c0 20.949333-17.834667 37.930667-39.829333 37.930667H167.829333C145.834667 938.666667 128 921.685333 128 900.736V293.930667C128 272.981333 145.834667 256 167.829333 256H682.666667a42.666667 42.666667 0 0 1 42.666666 42.666667z m106.666667-234.666667h64a21.333333 21.333333 0 0 1 21.333333 21.333333v64a21.333333 21.333333 0 0 1-21.333333 21.333334h-64a21.333333 21.333333 0 0 1-21.333333-21.333334V85.333333a21.333333 21.333333 0 0 1 21.333333-21.333333z m0 192h64a21.333333 21.333333 0 0 1 21.333333 21.333333v64a21.333333 21.333333 0 0 1-21.333333 21.333334h-64a21.333333 21.333333 0 0 1-21.333333-21.333334v-64a21.333333 21.333333 0 0 1 21.333333-21.333333z m0 192h64a21.333333 21.333333 0 0 1 21.333333 21.333333v64a21.333333 21.333333 0 0 1-21.333333 21.333334h-64a21.333333 21.333333 0 0 1-21.333333-21.333334v-64a21.333333 21.333333 0 0 1 21.333333-21.333333zM640 64h64a21.333333 21.333333 0 0 1 21.333333 21.333333v64a21.333333 21.333333 0 0 1-21.333333 21.333334h-64a21.333333 21.333333 0 0 1-21.333333-21.333334V85.333333a21.333333 21.333333 0 0 1 21.333333-21.333333z m-192 0h64a21.333333 21.333333 0 0 1 21.333333 21.333333v64a21.333333 21.333333 0 0 1-21.333333 21.333334h-64a21.333333 21.333333 0 0 1-21.333333-21.333334V85.333333a21.333333 21.333333 0 0 1 21.333333-21.333333z" /></svg>