<?xml version="1.0" standalone="no"?><!DOCTYPE svg PUBLIC "-//W3C//DTD SVG 1.1//EN" "http://www.w3.org/Graphics/SVG/1.1/DTD/svg11.dtd"><svg t="1595917802874" class="icon" viewBox="0 0 1024 1024" version="1.1" xmlns="http://www.w3.org/2000/svg" p-id="2216" xmlns:xlink="http://www.w3.org/1999/xlink" width="32" height="32"><defs><style type="text/css"></style></defs><path d="M970.945518 306.557006C970.275525 306.557006 664.388512 0 664.388512 0H153.463501C97.25405 0 51.274499 45.979551 51.274499 102.189002v819.621996c0 56.199451 45.979551 102.189002 102.189002 102.189002h715.303015c56.199451 0 102.189002-45.979551 102.189002-102.189002l-0.01-615.253992c0.01 0 0.01 0 0 0zM853.426666 275.897306H695.048212V117.478853l78.999229 79.129227c32.229685 32.269685 57.979434 58.039433 79.379225 79.289226z m15.33985 686.783293H153.463501c-22.159784 0-40.869601-18.719817-40.869601-40.869601V102.189002c0-22.159784 18.719817-40.869601 40.869601-40.869601h480.26531v245.247605c0 16.939835 13.719866 30.659701 30.659701 30.659701h245.257605v584.584291c-0.01 22.149784-18.719817 40.869601-40.879601 40.869601z" p-id="2217" fill="#3F72FE"></path><path d="M349.591586 617.063974c-22.749778-15.269851-55.459458-20.5298-95.899063-20.5298-27.339733 0-52.119491 2.01998-71.779299 5.259949v268.137382h60.669407V763.95254c5.559946 0.349997 10.879894 0.349997 17.089833 0.349996 32.409683 0 69.699319-9.009912 92.379098-28.039726 17.609828-14.539858 28.469722-33.509673 28.469722-60.999404 0.01-23.329772-10.049902-44.479566-30.929698-58.199432z m-92.279099 112.308903c-5.889942 0-10.299899-0.169998-14.719856-0.749992v-95.149071c5.239949-1.199988 12.749875-2.01998 21.179793-2.019981 41.109599 0 55.909454 21.559789 55.909454 47.19954 0 31.259695-22.259783 50.719505-62.369391 50.719504zM596.229177 619.083954c-23.079775-14.939854-54.659466-22.54978-99.519028-22.54978-26.249744 0-50.689505 1.899981-68.409332 5.259949v267.167391c13.699866 1.549985 34.979658 2.869972 56.109452 2.869972 49.349518 0 86.889151-9.009912 112.518902-27.63973 29.509712-20.129803 50.16951-56.779446 50.16951-115.158875 0-54.539467-19.289812-90.189119-50.869504-109.948927z m-92.309098 217.167879c-3.989961 0-9.879904 0-14.939854-0.799992V632.623822c5.239949-1.04999 11.449888-1.399986 17.489829-1.399986 52.819484 0 77.509243 35.629652 77.509243 97.24905 0 82.92919-38.349625 107.778947-80.059218 107.778947zM696.968194 869.931505h60.999404V752.60265h90.979112v-36.049648h-90.979112v-81.409205h97.119052v-37.389634H696.968194z" p-id="2218" fill="#3F72FE"></path></svg>