<?xml version="1.0" standalone="no"?><!DOCTYPE svg PUBLIC "-//W3C//DTD SVG 1.1//EN" "http://www.w3.org/Graphics/SVG/1.1/DTD/svg11.dtd"><svg class="icon" width="200px" height="200.00px" viewBox="0 0 1024 1024" version="1.1" xmlns="http://www.w3.org/2000/svg"><path d="M731.584 422.784a29.568 29.568 0 1 0 59.2 0 29.568 29.568 0 0 0-59.2 0z" fill="#3F72FE" /><path d="M831.04 287.872h-94.912V193.28c0-35.84-29.12-65.024-65.024-65.024H288.512c-35.904 0-65.024 29.12-65.024 65.024v94.592H129.536c-35.84 0-65.024 29.12-65.024 65.024v255.232c0 35.84 29.12 64.96 65.024 64.96h93.952v202.56c0 35.904 29.12 65.024 65.024 65.024H421.76a32.512 32.512 0 1 0 0-65.024H289.472V556.096h138.176a32.512 32.512 0 1 0 0-65.024H288.512c-35.904 0-65.024 29.12-65.024 65.024v51.712H130.176V353.216h700.224v150.528a32.512 32.512 0 1 0 65.024 0V352.256c-0.32-35.392-28.928-64-64.384-64.384z m-542.528 0V193.28h382.592v94.592H288.512z" fill="#3F72FE" /><path d="M641.216 544.704c-140.16 0-249.984 76.736-249.984 174.912s109.888 174.912 249.984 174.912c140.16 0 249.984-76.8 249.984-174.272 0-97.536-109.888-175.552-249.984-175.552z m0 300.736c-109.248 0-201.216-57.6-201.216-125.824 0-68.288 91.968-125.824 201.216-125.824s199.936 57.216 199.936 126.464c0 69.248-91.008 125.184-199.936 125.184z" fill="#3F72FE" /><path d="M641.216 629.568a89.728 89.728 0 1 0-0.64 179.456 89.728 89.728 0 0 0 0.64-179.456z m0 130.048a40.96 40.96 0 1 1 40.64-39.36 40.96 40.96 0 0 1-40.64 40v-0.64z" fill="#3F72FE" /></svg>