<?xml version="1.0" encoding="UTF-8"?>
<svg width="15px" height="15px" viewBox="0 0 15 15" version="1.1" xmlns="http://www.w3.org/2000/svg" xmlns:xlink="http://www.w3.org/1999/xlink">
    <!-- Generator: Sketch 53.2 (72643) - https://sketchapp.com -->
    <title>dayin</title>
    <desc>Created with Sketch.</desc>
    <g id="dianzibignli" stroke="none" stroke-width="1" fill="none" fill-rule="evenodd">
        <g id="病历书写-" transform="translate(-549.000000, -225.000000)">
            <g id="dayin" transform="translate(549.000000, 225.000000)">
                <path d="M15,10.4971413 L15,4.96575054 C15,4.27024748 14.4139163,3.70452582 13.6950544,3.70452582 L12.1242465,3.70452582 L12.1242465,0.811215193 C12.1160773,0.355755928 11.7407671,-0.00707633303 11.2853899,0.00010496741 L3.71461015,0.00010496741 C3.259586,-0.00707633303 2.88448771,0.355120207 2.87565938,0.810202747 L2.87565938,3.7034192 L1.30494559,3.7034192 C0.586083719,3.7034192 0,4.27024748 0,4.96466746 L0,10.4971413 C0,11.1926444 0.586083719,11.7584838 1.30494559,11.7584838 L2.87565938,11.7584838 L2.87565938,14.1887771 C2.88448771,14.6439538 3.25942121,15.0065271 3.71461015,14.9999109 L11.2853899,14.9999109 C11.7405788,15.0065271 12.1155123,14.6439538 12.1242465,14.1887771 L12.1242465,11.7541514 L13.6950544,11.7541514 C14.4182481,11.7552581 15,11.1926444 15,10.4971413 Z M3.50247115,0.810202747 C3.50247115,0.696620474 3.59784071,0.605571003 3.71461015,0.605571003 L11.2853899,0.605571003 C11.4021593,0.605571003 11.4975289,0.697727101 11.4975289,0.810202747 L11.4975289,3.7034192 L3.50247115,3.7034192 L3.50247115,0.810202747 Z M11.5007541,14.1897895 C11.5004716,14.2445087 11.4780359,14.2966614 11.4385791,14.3344751 C11.3982277,14.3730893 11.3444102,14.3946097 11.2885916,14.394539 L3.71352721,14.394539 C3.65787338,14.394539 3.60426773,14.3730893 3.56353968,14.3344751 C3.52288226,14.2959315 3.50247115,14.2434256 3.50247115,14.1897895 L3.50247115,8.03574471 L11.4975289,8.03574471 L11.4975289,14.1897895 L11.5007541,14.1897895 Z M14.3721759,10.4971413 C14.3693273,10.6736365 14.2964877,10.8418673 14.1697599,10.9646557 C14.0429379,11.0874442 13.8725392,11.1547601 13.6960667,11.1519111 L12.1253529,11.1519111 L12.1253529,7.73250547 C12.1253529,7.65212199 12.0932649,7.5750584 12.0343151,7.51822017 C11.9753654,7.46147612 11.8949923,7.42926622 11.8125003,7.43037285 L3.18961851,7.43037285 C3.10712655,7.42973713 3.02757736,7.46128776 2.96780365,7.51822017 C2.90913642,7.57395177 2.87610668,7.65158045 2.87676586,7.73250547 L2.87676586,11.1519111 L1.30494559,11.1519111 C0.937286649,11.1578916 0.634274656,10.8648474 0.627824086,10.4971413 L0.627824086,4.96575054 C0.627824086,4.60357755 0.931024416,4.3110043 1.30494559,4.3110043 L13.6950544,4.3110043 C14.0689756,4.3110043 14.3721759,4.60458999 14.3721759,4.96575054 L14.3721759,10.4971413 Z" id="Fill-1" fill="#317DF1"></path>
                <path d="M11.2596013,14.9999049 L3.74147391,14.9999049 C3.25992236,15.0069407 2.86345637,14.6228908 2.85532182,14.1413207 L2.85532182,11.7807345 L1.34891002,11.7807345 C0.604294483,11.7807345 0,11.1945383 0,10.4743805 L0,4.98400964 C0,4.26378167 0.604294483,3.6786841 1.34891002,3.6786841 L2.85532182,3.6786841 L2.85532182,0.858523627 C2.86518614,0.377701565 3.26064699,-0.00534321479 3.74147391,5.63912539e-05 L11.2574275,5.63912539e-05 C11.7457344,5.63912539e-05 12.1435795,0.385088039 12.1446782,0.858523627 L12.1446782,3.67767898 L13.65109,3.67767898 C14.3947004,3.67767898 15,4.26277655 15,4.9829344 L15,10.4753856 C15,11.1945383 14.3957055,11.7786308 13.65109,11.7786308 L12.1446782,11.7786308 L12.1446782,14.1424194 C12.1359125,14.6231713 11.7403581,15.0063797 11.2596013,14.9999049 Z M1.34891002,3.78405823 C0.663807626,3.78405823 0.106380326,4.32231247 0.106380326,4.9829344 L0.106380326,10.4753856 C0.106380326,11.1371062 0.663807626,11.6754539 1.34891002,11.6754539 L2.96170215,11.6754539 L2.96170215,14.1413207 C2.96170215,14.5562255 3.31279696,14.8934321 3.74257254,14.8934321 L11.2596013,14.8934321 C11.6822008,14.9000005 12.0306308,14.5638925 12.0393965,14.1413207 L12.0393965,11.6722515 L13.6520951,11.6722515 C14.3371975,11.6722515 14.8946248,11.1350024 14.8946248,10.4753856 L14.8946248,4.98400964 C14.8946248,4.32231247 14.3371975,3.78503998 13.6520951,3.78503998 L12.0393965,3.78503998 L12.0393965,0.858523627 C12.0300698,0.435764861 11.6812657,0.0998439159 11.2585261,0.106412268 L3.74147391,0.106412268 C3.31873425,0.0998439159 2.9699302,0.435764861 2.96060352,0.858523627 L2.96060352,3.78405823 L1.34891002,3.78405823 Z M11.2627102,14.3977202 L3.74147391,14.3977202 C3.67209646,14.3979072 3.60543052,14.3712364 3.55531419,14.3232945 C3.50573548,14.2757265 3.4776853,14.2100897 3.4776853,14.1413207 L3.4776853,7.9797625 L11.5223147,7.9797625 L11.5254937,14.1413207 C11.5248626,14.2099027 11.4969293,14.2753759 11.4478882,14.3232945 C11.3981225,14.3711429 11.3317371,14.3979072 11.2627102,14.3977202 Z M3.58406562,8.08504313 L3.58406562,14.1413207 C3.58462663,14.1811282 3.60105936,14.2191125 3.6298108,14.2466949 C3.65975437,14.275633 3.69974926,14.2920656 3.74147391,14.2924396 L11.2617051,14.2924396 C11.334846,14.2920656 11.398403,14.2421368 11.4159344,14.1711939 L11.4159344,8.08611838 L3.58406562,8.08611838 L3.58406562,8.08504313 Z M13.6520951,11.1786434 L12.0393965,11.1786434 L12.0393965,7.7307495 C12.0388355,7.66483223 12.0116268,7.60183683 11.9637779,7.55634924 C11.9155783,7.50896828 11.850572,7.48257799 11.7829944,7.48295199 L3.21910934,7.48295199 C3.15108765,7.48295199 3.08505284,7.5095059 3.03722727,7.55525061 C2.98937833,7.60099533 2.96280078,7.66483223 2.96280078,7.72974438 L2.96280078,11.1775448 L1.34891002,11.1775448 C0.954547792,11.1829444 0.629937027,10.8687387 0.622363477,10.4743805 L0.622363477,4.98400964 C0.622363477,4.59568213 0.948984505,4.28084536 1.34891002,4.28084536 L13.65109,4.28084536 C14.0510155,4.28084536 14.3766314,4.59568213 14.3766314,4.98400964 L14.3766314,10.4753856 C14.3701565,10.8694867 14.0461768,11.1839495 13.6520951,11.1786434 Z M12.1457768,11.0722641 L13.6520951,11.0722641 C13.9880195,11.0775702 14.2648748,10.8102079 14.2712562,10.4743805 L14.2712562,4.98400964 C14.2648748,4.6481822 13.9880195,4.38084326 13.6520951,4.38612599 L1.34891002,4.38612599 C1.01289218,4.38084326 0.735686224,4.6479952 0.728743804,4.98400964 L0.728743804,10.4753856 C0.728743804,10.8052057 1.00742239,11.0732693 1.34891002,11.0732693 L2.85532182,11.0732693 L2.85532182,7.7307495 C2.85459719,7.63598758 2.89314282,7.54512928 2.96170215,7.47974963 C3.03047185,7.41408949 3.1219622,7.37748436 3.21700558,7.37757786 L11.7839996,7.37757786 C11.9811456,7.37701687 12.1422004,7.53472744 12.1457768,7.73184812 L12.1457768,11.0722641 Z M11.5234133,3.78405823 L3.4776853,3.78405823 L3.4776853,0.858523627 C3.4776853,0.717011874 3.59465457,0.602147527 3.74147391,0.602147527 L11.2585261,0.602147527 C11.4042468,0.602147527 11.5223147,0.717011874 11.5223147,0.858523627 L11.5223147,3.78405823 L11.5234133,3.78405823 Z M3.58406562,3.6786841 L11.417033,3.6786841 L11.417033,0.858523627 C11.4162149,0.817617521 11.3991276,0.778721657 11.3695581,0.750321132 C11.3400586,0.722014106 11.3005079,0.706586661 11.2596013,0.707404783 L3.74147391,0.707404783 C3.70056739,0.706586661 3.66104001,0.722014106 3.63144706,0.750321132 C3.60197099,0.778721657 3.58488376,0.817617521 3.58406562,0.858523627 L3.58406562,3.6786841 Z" id="Fill-2" fill="#327EF1"></path>
                <path d="M1.99932209,5 C1.73514907,5.00393701 1.48238093,5.10879974 1.29275166,5.29293467 C1.1100876,5.48422537 1,5.73725793 1,5.9999468 C1,6.26263567 1.11133708,6.51574803 1.29275166,6.70695893 C1.48392285,6.88859332 1.73679733,7 1.99932209,7 C2.26392046,6.99592999 2.51700762,6.89120026 2.707142,6.70695893 C2.89283673,6.51835497 2.99782005,6.26471058 3,5.9999468 C2.99593253,5.73558204 2.89126823,5.48268249 2.707142,5.29293467 C2.51854953,5.10640562 2.26445215,5.00125027 1.99932209,5 Z" id="Fill-3" fill="#317DF1"></path>
            </g>
        </g>
    </g>
</svg>