<?xml version="1.0" encoding="UTF-8"?>
<svg width="18px" height="18px" viewBox="0 0 18 18" version="1.1" xmlns="http://www.w3.org/2000/svg" xmlns:xlink="http://www.w3.org/1999/xlink">
    <!-- Generator: Sketch 53.2 (72643) - https://sketchapp.com -->
    <title>danxuankuang</title>
    <desc>Created with Sketch.</desc>
    <defs>
        <polygon id="path-1" points="6.25168505e-17 0 18 0 18 18 6.25168505e-17 18"></polygon>
    </defs>
    <g id="dianzibignli" stroke="none" stroke-width="1" fill="none" fill-rule="evenodd">
        <g id="新增病历模版-copy-3" transform="translate(-960.000000, -228.000000)">
            <g id="danxuankuang" transform="translate(960.000000, 228.000000)">
                <mask id="mask-2" fill="white">
                    <use xlink:href="#path-1"></use>
                </mask>
                <g id="Clip-2"></g>
                <path d="M9.00001373,0 C4.05003365,0 0,4.05003365 0,9.00001373 C0,13.9499664 4.05003365,18 9.00001373,18 C13.9499664,18 18,13.9499664 18,9.00001373 C18,4.05003365 13.9499664,0 9.00001373,0 Z M9.00001373,16.6499979 C4.79998901,16.6499979 1.35000206,13.2000385 1.35000206,9.00001373 C1.35000206,4.79998901 4.79998901,1.35000206 9.00001373,1.35000206 C13.2000385,1.35000206 16.6499979,4.79998901 16.6499979,9.00001373 C16.6499979,13.2000385 13.2000385,16.6499979 9.00001373,16.6499979 Z M9.00001373,5.70001785 C7.20003845,5.70001785 5.70001785,7.20003845 5.70001785,9.00001373 C5.70001785,10.799989 7.20003845,12.2999821 9.00001373,12.2999821 C10.799989,12.2999821 12.2999821,10.799989 12.2999821,9.00001373 C12.2999821,7.20003845 10.799989,5.70001785 9.00001373,5.70001785 Z" id="Fill-1" fill="#5280FE" mask="url(#mask-2)"></path>
            </g>
        </g>
    </g>
</svg>