<?xml version="1.0" encoding="UTF-8"?>
<svg width="28px" height="28px" viewBox="0 0 28 28" version="1.1" xmlns="http://www.w3.org/2000/svg" xmlns:xlink="http://www.w3.org/1999/xlink">
    <!-- Generator: Sketch 53.2 (72643) - https://sketchapp.com -->
    <title>zhuyi</title>
    <desc>Created with Sketch.</desc>
    <defs>
        <polygon id="path-1" points="7.77972989e-17 0 28 0 28 28 7.77972989e-17 28"></polygon>
    </defs>
    <g id="dianzibignli" stroke="none" stroke-width="1" fill="none" fill-rule="evenodd">
        <g id="病历书写--（新）" transform="translate(-679.000000, -554.000000)">
            <g id="组件2-copy-12" transform="translate(660.000000, 535.000000)">
                <g id="zhuyi" transform="translate(19.000000, 19.000000)">
                    <mask id="mask-2" fill="white">
                        <use xlink:href="#path-1"></use>
                    </mask>
                    <g id="Clip-2"></g>
                    <path d="M14.0000854,28 C6.26798128,28 0,21.7320187 0,14.0000854 C0,6.26798128 6.26798128,0 14.0000854,0 C21.7320187,0 28,6.26798128 28,14.0000854 C28,21.7320187 21.7320187,28 14.0000854,28 Z M12.833292,6.9953601 L12.833292,17.504704 C12.833292,18.1471804 13.3560026,18.6666781 14.0000854,18.6666781 C14.64868,18.6666781 15.166708,18.1455739 15.166708,17.504704 L15.166708,6.9953601 C15.166332,6.68654625 15.0430799,6.39041307 14.8242613,6.1725173 C14.6054085,5.95448481 14.3088993,5.83246317 14.0000854,5.83338603 C13.6909982,5.83205302 13.3943181,5.95393793 13.1753628,6.17197042 C12.9563732,6.39013964 12.833292,6.68640953 12.833292,6.9953601 Z M14.0000854,23.3334074 C14.4169072,23.3334074 14.8020786,23.1111024 15.0105066,22.7500961 C15.2189346,22.3890557 15.2189346,21.944309 15.0105066,21.5833027 C14.8020786,21.2222622 14.4169072,20.9999573 14.0000854,20.9999573 C13.3557292,21.000094 12.8335655,21.5224286 12.8335655,22.1667507 C12.8335655,22.8109702 13.3557292,23.3332707 14.0000854,23.3334074 Z" id="Fill-1" fill="#F5A623" mask="url(#mask-2)"></path>
                </g>
            </g>
        </g>
    </g>
</svg>