<?xml version="1.0" encoding="UTF-8"?>
<svg width="14px" height="14px" viewBox="0 0 14 14" version="1.1" xmlns="http://www.w3.org/2000/svg" xmlns:xlink="http://www.w3.org/1999/xlink">
    <!-- Generator: Sketch 53.2 (72643) - https://sketchapp.com -->
    <title>qingchugeshi copy</title>
    <desc>Created with Sketch.</desc>
    <defs>
        <polygon id="path-1" points="6.44709229e-17 0 14 0 14 14 6.44709229e-17 14"></polygon>
    </defs>
    <g id="dianzibignli" stroke="none" stroke-width="1" fill="none" fill-rule="evenodd">
        <g id="qingchugeshi-copy">
            <mask id="mask-2" fill="white">
                <use xlink:href="#path-1"></use>
            </mask>
            <g id="Clip-2"></g>
            <path d="M13.0332352,2.00310951 L9.42477092,2.00310951 L7.93733658,5.61451552 L6.43398446,4.08419017 L7.29110873,2.00310951 L4.39073072,2.00310951 L2.45720203,0.035029099 C2.53696087,0.0128101128 2.61918385,0.00102642883 2.70183168,4.86199506e-07 L13.0312526,4.86199506e-07 C13.3769969,-0.000351265561 13.6967404,0.190180938 13.8698816,0.499898363 C14.0430512,0.8096451 14.0433627,1.1913837 13.8708729,1.50145287 C13.6982981,1.81152205 13.3789796,2.00275776 13.0332352,2.00310951 Z M7.05998937,7.75067465 L11.3960264,12.1655403 C11.6151933,12.3525257 11.7531568,12.62229 11.7794976,12.9150647 C11.8058101,13.2077515 11.7182057,13.4992657 11.5361992,13.7248265 C11.0709582,14.1091153 10.3959537,14.0460052 10.0048352,13.5818101 L6.23826942,9.74677795 L4.75383736,13.3516766 C4.54362071,13.8802129 3.9625368,14.136464 3.4486361,13.9269372 C3.20632898,13.8198581 3.01571216,13.6163991 2.91955404,13.3624343 C2.82353755,13.1084695 2.83005194,12.8251921 2.93770938,12.5762691 L4.7334728,8.21542666 L0.38837222,3.79106371 C0.169092064,3.60396108 0.0309019482,3.33407955 0.00456113895,3.04130483 C-0.0216663765,2.7485008 0.0659663802,2.45686928 0.248086169,2.23119121 C0.712873996,1.84543678 1.38909638,1.90863485 1.77953515,2.37432487 L5.5557309,6.21885436 L7.05998937,7.75067465 Z" id="Fill-1" fill="#000000" mask="url(#mask-2)"></path>
        </g>
    </g>
</svg>