<?xml version="1.0" standalone="no"?><!DOCTYPE svg PUBLIC "-//W3C//DTD SVG 1.1//EN" "http://www.w3.org/Graphics/SVG/1.1/DTD/svg11.dtd"><svg t="1591171300415" class="icon" viewBox="0 0 1024 1024" version="1.1" xmlns="http://www.w3.org/2000/svg" p-id="3231" xmlns:xlink="http://www.w3.org/1999/xlink" width="32" height="32"><defs><style type="text/css"></style></defs><path d="M512 1005.714286A457.142857 457.142857 0 0 1 70.217143 429.714286a36.571429 36.571429 0 0 1 70.582857 18.285714A384 384 0 0 0 512 932.571429h3.474286a384 384 0 0 0 265.508571-658.285715 384 384 0 0 0-450.194286-64.548571A36.571429 36.571429 0 1 1 296.228571 144.457143a457.142857 457.142857 0 1 1 219.428572 859.428571z" fill="#3F72FE" p-id="3232"></path><path d="M546.194286 286.171429h-36.571429a18.285714 18.285714 0 0 0-18.285714 18.285714L493.714286 530.285714a18.285714 18.285714 0 0 1-18.285715 18.285715l-169.691428 1.645714a18.285714 18.285714 0 0 0-18.285714 18.285714v36.571429a18.285714 18.285714 0 0 0 18.285714 18.285714L548.571429 620.434286a18.285714 18.285714 0 0 0 18.285714-18.285715l-2.742857-297.691428a18.285714 18.285714 0 0 0-17.92-18.285714zM398.811429 302.262857a36.571429 36.571429 0 0 1-12.982858-2.56l-151.954285-57.782857a36.571429 36.571429 0 0 1-20.297143-19.2 36.571429 36.571429 0 0 1 0-27.977143l57.051428-151.954286a36.571429 36.571429 0 1 1 68.205715 26.148572l-44.8 117.76 117.76 44.8a36.571429 36.571429 0 0 1-12.982857 70.765714z" fill="#3F72FE" p-id="3233"></path></svg>