<?xml version="1.0" encoding="UTF-8"?>
<svg width="16px" height="15px" viewBox="0 0 16 15" version="1.1" xmlns="http://www.w3.org/2000/svg" xmlns:xlink="http://www.w3.org/1999/xlink">
    <!-- Generator: Sketch 53.2 (72643) - https://sketchapp.com -->
    <title>duanqianju copy</title>
    <desc>Created with Sketch.</desc>
    <defs>
        <polygon id="path-1" points="5.36245392e-17 0 16 0 16 15 5.36245392e-17 15"></polygon>
    </defs>
    <g id="dianzibignli" stroke="none" stroke-width="1" fill="none" fill-rule="evenodd">
        <g id="duanqianju-copy">
            <mask id="mask-2" fill="white">
                <use xlink:href="#path-1"></use>
            </mask>
            <g id="Clip-2"></g>
            <path d="M13.1007649,13.7502757 C11.9950575,13.7458797 11.3155138,13.7486159 10.2097829,13.7483468 C9.11253329,13.7480777 1.79728463,13.7446685 0.700576893,13.7498271 C0.282399789,13.7518457 -0.00205487899,14.0153825 0.000442403997,14.3746 C0.003457991,14.7321354 0.29243604,14.9969956 0.706560949,14.9976011 C2.90098948,15.0009206 10.8858162,15.0019747 13.0792317,14.9928687 C13.2339219,14.9921734 13.4077658,14.9307637 13.536423,14.8469926 C13.7653013,14.6981336 13.8309139,14.4146352 13.7401871,14.1621333 C13.6480704,13.9078819 13.4212181,13.7515765 13.1007649,13.7502757 Z M13.4753338,9.91172144 C13.9169759,9.91015143 14.2074147,9.6561692 14.2059304,9.28889978 C14.2049174,8.92066592 13.9154917,8.65809351 13.4767945,8.65730851 C11.3014254,8.65336107 2.90742116,8.65239663 0.732052083,8.66195125 C0.568338691,8.66273625 0.384010936,8.7245048 0.246801727,8.81123645 C0.0129523782,8.95895166 -0.0521183351,9.24096972 0.0405638467,9.49320251 C0.136073141,9.75534877 0.353996421,9.90864871 0.674991522,9.909972 C1.78164128,9.91470445 9.10553618,9.91181115 10.2117147,9.91181115 L10.2117147,9.91295501 C11.2994935,9.91295501 12.3876492,9.91548945 13.4753338,9.91172144 Z M15.2871833,6.12136641 C14.0803124,6.11629753 11.7526326,6.1197964 10.5457852,6.1197964 C9.34840873,6.11961697 1.93246774,6.11829368 0.734549366,6.12040197 C0.36504572,6.12118698 0.127144177,6.27556349 0.0335667425,6.562942 C-0.106139749,6.99083611 0.21330044,7.37360375 0.725620401,7.3746579 C2.30998154,7.37824648 10.1126009,7.3760709 11.6970563,7.3762279 C12.5172959,7.3762279 14.4578262,7.37797734 15.2781601,7.37501675 C15.6161885,7.37387289 15.8520404,7.22754827 15.9536516,6.97042603 C16.1244563,6.53822561 15.8054873,6.12356441 15.2871833,6.12136641 Z M14.1242975,11.2009437 C11.7386619,11.1972653 3.13528645,11.1970859 0.750192723,11.2043528 C0.592439828,11.2048014 0.416122225,11.2487616 0.28138674,11.3249966 C0.0319882712,11.4662299 -0.0521183351,11.7517469 0.0340143687,12.0179079 C0.122196729,12.2897882 0.346551691,12.4462505 0.684580147,12.4471253 C1.89990883,12.4507138 9.33387266,12.4485383 10.5497432,12.448785 C11.7381908,12.4489644 12.9260022,12.4534277 14.1142848,12.4437161 C14.2800243,12.4423031 14.467297,12.4041968 14.6060847,12.323162 C14.8604542,12.1743927 14.9315796,11.8994621 14.8388974,11.6277836 C14.7437415,11.3500494 14.5158998,11.2016389 14.1242975,11.2009437 Z M6.14748092,3.13537066 C6.32978258,3.13537066 6.49201174,3.05888891 6.60476642,2.93947869 L6.60669828,2.94086926 L7.38238736,2.11995762 L7.38238736,4.89918348 C7.38238736,5.22386086 7.65885543,5.48697156 7.99989948,5.48697156 C8.34087284,5.48697156 8.61788278,5.22386086 8.61788278,4.89918348 L8.61788278,2.11995762 L9.39350118,2.94086926 L9.39505609,2.93947869 C9.50816417,3.05888891 9.67051112,3.13537066 9.85271854,3.13537066 C10.1937861,3.13537066 10.4702307,2.8722824 10.4702307,2.54758258 C10.4702307,2.3962788 10.408576,2.25986764 10.3104752,2.15552948 L10.3119359,2.15411648 L8.45958802,0.194591116 L8.45756192,0.196004122 C8.34438317,0.0765714696 8.18213046,0 7.99980524,0 C7.818069,0 7.65581629,0.0765714696 7.54261398,0.196004122 L7.5411533,0.194591116 L5.68824,2.15411648 L5.68972424,2.15552948 C5.59162342,2.25986764 5.53003948,2.3962788 5.53003948,2.54758258 C5.53003948,2.8722824 5.80641332,3.13537066 6.14748092,3.13537066 Z" id="Fill-1" fill="#000000" mask="url(#mask-2)"></path>
        </g>
    </g>
</svg>