<?xml version="1.0" encoding="UTF-8"?>
<svg width="15px" height="16px" viewBox="0 0 15 16" version="1.1" xmlns="http://www.w3.org/2000/svg" xmlns:xlink="http://www.w3.org/1999/xlink">
    <!-- Generator: Sketch 53.2 (72643) - https://sketchapp.com -->
    <title>duanhouju copy</title>
    <desc>Created with Sketch.</desc>
    <g id="dianzibignli" stroke="none" stroke-width="1" fill="none" fill-rule="evenodd">
        <g id="duanhouju-copy" fill="#000000">
            <path d="M9.890426,6.41471143 C8.75068403,6.4145442 1.78133528,6.41665539 0.641512063,6.41306011 C0.324913687,6.41216129 0.114410096,6.25367638 0.0318783875,5.97803137 C-0.0486626468,5.70842726 0.0298267748,5.41904912 0.264055947,5.27599047 C0.390301225,5.19883829 0.555263076,5.15416905 0.702918254,5.15366738 C2.93933863,5.14624689 11.0052642,5.14649772 13.2415221,5.15023932 C13.6084358,5.15090821 13.8224332,5.30130374 13.9114448,5.58275973 C13.9986485,5.85800758 13.9317578,6.1366835 13.69308,6.28741347 C13.562955,6.36954051 13.3874507,6.40816885 13.2319141,6.40954844 C12.118193,6.41951907 11.0043095,6.41494136 9.890426,6.41471143 Z M9.88646496,0.00113115846 C11.0177973,0.00113115846 13.2002664,-0.00229689809 14.3315988,0.00278247839 C14.8178513,0.00497727069 15.1165133,0.425248643 14.9566297,0.863224673 C14.8614024,1.12384058 14.6400313,1.27204132 14.323108,1.27319097 C13.5544641,1.27620097 11.734704,1.27434063 10.9661414,1.27434063 C9.48075347,1.27434063 2.16561656,1.27653542 0.680147384,1.27285653 C0.200110631,1.27172778 -0.0997498351,0.883876623 0.0314111885,0.45022747 C0.119407093,0.159135302 0.342057856,0.00253164498 0.688719468,0.00188365868 C1.81141883,-0.000248425272 8.76378591,0.00106845011 9.88646496,0.00113115846 Z M9.57368543,3.84389894 C8.5366866,3.84389894 1.67002006,3.84676262 0.632939978,3.84201769 C0.331901358,3.84072172 0.127572918,3.68524681 0.0377488437,3.41971875 C-0.0486626468,3.16416131 0.0122154061,2.87829484 0.231372334,2.72863091 C0.360217676,2.64060929 0.532959405,2.57806816 0.686261596,2.57733656 C2.72574746,2.56761677 10.594962,2.56866191 12.6345901,2.57267524 C13.0457657,2.57349045 13.3175333,2.83952018 13.3184068,3.21273938 C13.3191178,3.58482984 13.0471267,3.84218491 12.6329244,3.84381533 C11.6132322,3.84766144 10.5933776,3.8450486 9.57368543,3.8450486 C9.57368543,3.84463054 9.57368543,3.844317 9.57368543,3.84389894 Z M9.57153225,7.73173313 C10.6085311,7.73190035 11.2450592,7.72920389 12.282058,7.73361438 C12.5826294,7.73493125 12.7953471,7.89324894 12.8812102,8.15085485 C12.9663419,8.40683034 12.9051592,8.69416001 12.6906133,8.84497359 C12.5699135,8.92981799 12.4065563,8.99210829 12.2619684,8.99277718 C10.2052775,9.0019953 2.71930824,9.00092926 0.662617267,8.99758482 C0.274131193,8.99693683 0.00315580929,8.72854509 0.000616684629,8.36625804 C-0.00192244003,8.00208974 0.26468565,7.73509848 0.656746811,7.73313362 C1.6850923,7.72790792 8.54310551,7.73141959 9.57153225,7.73173313 Z" id="Fill-1"></path>
            <path d="M10,13.214363 C10,12.8592115 9.72016701,12.5714543 9.37487665,12.5714543 C9.19052151,12.5714543 9.02631891,12.6551561 8.91196039,12.7858174 L8.91016223,12.7843062 L8.12502467,13.6818387 L8.12502467,10.6428185 C8.12502467,10.2876669 7.84516975,10 7.49987939,10 C7.15467675,10 6.87490954,10.2876669 6.87490954,10.6428185 L6.87490954,13.6818387 L6.08966234,12.7843062 L6.08803961,12.7858174 C5.97350566,12.6551561 5.80930306,12.5714543 5.62496985,12.5714543 C5.2797672,12.5714543 5,12.8592115 5,13.214363 C5,13.3796463 5.0624312,13.528893 5.16196587,13.6429989 L5.16025543,13.6443973 L7.03525269,15.787306 L7.03687541,15.7857948 C7.15140936,15.9162983 7.31561197,16 7.50005482,16 C7.68438803,16 7.84823978,15.9162983 7.96312459,15.7857948 L7.96474731,15.787306 L9.83974457,13.6443973 L9.83812184,13.6429989 C9.93774423,13.528893 10,13.3796463 10,13.214363 Z" id="Fill-3"></path>
        </g>
    </g>
</svg>