<?xml version="1.0" encoding="UTF-8"?>
<svg width="25px" height="25px" viewBox="0 0 25 25" version="1.1" xmlns="http://www.w3.org/2000/svg" xmlns:xlink="http://www.w3.org/1999/xlink">
    <!-- Generator: Sketch 60.1 (88133) - https://sketch.com -->
    <title>导出</title>
    <desc>Created with Sketch.</desc>
    <g id="页面-1" stroke="none" stroke-width="1" fill="none" fill-rule="evenodd">
        <path d="M17.222617,0 L23.8883156,0 C24.1953636,0 24.4570115,0.108632516 24.6736301,0.329110795 C24.8913611,0.543121383 25,0.804465591 25,1.11326701 L25,7.77680282 C25,8.08560423 24.8913611,8.34694844 24.6737949,8.56433706 C24.4570115,8.7815609 24.1953636,8.89019341 23.8883156,8.89019341 C23.5812263,8.89019341 23.3195784,8.7815609 23.102795,8.56433706 C22.885064,8.34694844 22.7767547,8.08560423 22.7767547,7.77680282 L22.7767547,3.79497003 L13.5585572,13.0106902 C13.3451932,13.224742 13.0847812,13.3333333 12.7774036,13.3333333 C12.4591085,13.3333333 12.1947003,13.2279553 11.9830666,13.0176111 C11.7715977,12.8036005 11.6666667,12.5388782 11.6666667,12.2233208 C11.6666667,11.9143546 11.7730397,11.6562648 11.9872688,11.4391646 L21.2055899,2.22344436 L17.2216283,2.22344436 C16.914745,2.22344436 16.6537151,2.11464706 16.4356545,1.897588 C16.2193655,1.68015819 16.1101086,1.41885518 16.1101086,1.11326701 C16.1101086,0.804465591 16.2193655,0.543121383 16.4356545,0.325856351 C16.6537151,0.108632516 16.914745,0 17.2214635,0 L17.222617,0 Z M3.40770413,0 L11.3620619,0 C11.6759599,0 11.9429564,0.111122161 12.1658329,0.336653373 C12.387403,0.555568666 12.4988201,0.822902374 12.4988201,1.13878092 C12.4988201,1.45137257 12.3872344,1.7188327 12.1658329,1.94107702 C11.9429564,2.16311065 11.6759599,2.27440136 11.3620619,2.27440136 L3.40770413,2.27440136 C3.09397471,2.27440136 2.82596677,2.38535497 2.6047338,2.60772571 C2.3815624,2.82980147 2.27111447,3.09709304 2.27111447,3.41314014 L2.27111447,21.5937708 C2.27111447,21.9061938 2.3815624,22.1735276 2.6047338,22.3957297 C2.82596677,22.6178055 3.09397471,22.7290541 3.40770413,22.7290541 L21.5891354,22.7290541 C21.9030334,22.7290541 22.17003,22.6178055 22.3929064,22.3957297 C22.6144765,22.1735276 22.7259358,21.9060253 22.7259358,21.5936022 L22.7259358,13.6389073 C22.7259358,13.3263578 22.83769,13.0590241 23.058923,12.8369484 C23.2817994,12.6145776 23.5491331,12.503624 23.8631996,12.503624 C24.1769291,12.503624 24.4439257,12.6145776 24.6669706,12.8369484 C24.8882036,13.0590241 25,13.3263578 25,13.6389073 L25,21.5939393 C25,22.534664 24.6669706,23.3367916 24.0012912,24.0034824 C23.3353167,24.6701311 22.5315457,25 21.5912845,25 L3.40917902,25 C2.46778005,25 1.66535753,24.6699625 0.99900382,24.0033139 C0.332987227,23.336623 0,22.534664 0,21.5937708 L0,3.4133087 C0,2.47224685 0.332987227,1.67028786 0.99900382,1.00363918 C1.66535753,0.33694835 2.46778005,0.00362400677 3.40917902,0.00362400677 L3.40770413,0 Z" id="导出" fill="#3F72FE"></path>
    </g>
</svg>