<?xml version="1.0" encoding="UTF-8"?>
<svg width="14px" height="14px" viewBox="0 0 14 14" version="1.1" xmlns="http://www.w3.org/2000/svg" xmlns:xlink="http://www.w3.org/1999/xlink">
    <!-- Generator: Sketch 53.2 (72643) - https://sketchapp.com -->
    <title>baocun</title>
    <desc>Created with Sketch.</desc>
    <defs>
        <polygon id="path-1" points="3.88986494e-17 0 14 0 14 14 3.88986494e-17 14"></polygon>
    </defs>
    <g id="dianzibignli" stroke="none" stroke-width="1" fill="none" fill-rule="evenodd">
        <g id="病历书写-" transform="translate(-492.000000, -225.000000)">
            <g id="baocun" transform="translate(492.000000, 225.000000)">
                <mask id="mask-2" fill="white">
                    <use xlink:href="#path-1"></use>
                </mask>
                <g id="Clip-2"></g>
                <path d="M7.47040733,3.20322155 C7.4778756,3.14754278 7.4955807,3.0937268 7.52268523,3.04452508 C7.56734104,2.94559186 7.65118391,2.86983249 7.75413325,2.83544768 C7.87489023,2.78463952 8.01140406,2.78704919 8.13029825,2.8419931 C8.21308155,2.87362644 8.28238095,2.93297954 8.3263019,3.01002064 C8.36836005,3.07397091 8.39372141,3.14747442 8.40001048,3.2237123 L8.40001048,4.69096257 L9.357641,4.67414614 L9.3267938,5.60000661 L3.74268076,5.60000661 C3.4458811,5.60000661 3.19947944,5.48984535 3.00441573,5.27054821 C2.8447964,5.09036978 2.7748305,4.81040363 2.79532125,4.43054722 L2.79532125,0.935208623 C1.55398189,0.937071419 0.933329304,0.938934214 0.933329304,0.939874156 C0.935209189,9.02531095 0.937071984,13.0666707 0.939874722,13.0666707 L2.80935203,13.0666707 L2.79720113,9.45377092 C2.79345845,9.14388042 2.88304352,8.88813061 3.06602469,8.68840137 C3.23712841,8.49258571 3.49094707,8.38944838 3.75016612,8.41028092 L9.34829285,8.41028092 L9.35856386,9.31744508 L3.74922618,9.31744508 L3.74922618,13.0666707 L9.31838559,13.0666707 L9.3267938,9.31744508 L9.31838559,8.41028092 C9.59936004,8.42709735 9.82894527,8.51950224 10.0062526,8.68840137 C10.1803471,8.85061836 10.2765459,9.07965671 10.2704106,9.31744508 L10.2704106,13.0666707 L13.0666713,13.0666707 L12.9602527,13.9999994 L0.939874722,13.9999994 C0.690533607,14.0002729 0.451343871,13.9013397 0.275044835,13.7250235 C0.0986603497,13.5487245 -0.00027287252,13.3094664 5.653031e-07,13.0601253 L5.653031e-07,0.939874156 C5.653031e-07,0.420906259 0.415369708,0 0.930526566,0 L9.34735291,0 C9.86064697,0 10.570013,0.294936872 10.9340442,0.663633596 L13.3429802,3.09680297 C13.7060031,3.4636369 14,3.94148659 14,4.69096257 L14,13.1376278 C13.948662,13.4269592 13.8413206,13.6415908 13.6752242,13.7778996 C13.5099994,13.9150799 13.2720231,13.9897284 12.9602527,13.9999994 L13.0666713,13.0666707 L13.0666713,4.69096257 C13.0666713,4.28401873 12.9472473,4.02452623 12.6793466,3.75389115 L10.2713506,1.32065341 L10.2713506,4.43989538 C10.288167,4.80011553 10.2181327,5.07642445 10.0603933,5.27054821 C9.90364507,5.46374912 9.6591062,5.5738933 9.3267938,5.60000661 L9.3267938,4.69096257 L9.34735291,0.933328738 L3.74268076,0.935208623 L3.74268076,4.69096257 L7.46666465,4.69096257 L7.46666465,3.2237123 C7.46787803,3.21689345 7.46907432,3.21002332 7.47040733,3.20322155 Z" id="Fill-1" fill="#327EF1" mask="url(#mask-2)"></path>
            </g>
        </g>
    </g>
</svg>