<?xml version="1.0" standalone="no"?><!DOCTYPE svg PUBLIC "-//W3C//DTD SVG 1.1//EN" "http://www.w3.org/Graphics/SVG/1.1/DTD/svg11.dtd"><svg t="1575536731639" class="icon" viewBox="0 0 1204 1024" version="1.1" xmlns="http://www.w3.org/2000/svg" p-id="2054" xmlns:xlink="http://www.w3.org/1999/xlink" width="75.25" height="64"><defs><style type="text/css"></style></defs><path d="M386.168243 326.173926c46.260679-221.18387 265.035138-363.33908 488.809125-317.620519 223.773986 45.778797 367.314607 262.204081 321.053928 483.568656-46.200443 221.18387-265.035138 363.33908-488.809124 317.62052-223.773986-45.778797-367.435078-262.384787-321.053929-483.568657z m464.775256-216.063873C685.055597 76.257837 522.842045 181.66954 488.628418 345.750385c-34.213627 164.14108 72.28231 324.607809 238.230449 358.399789 165.887902 33.852215 328.101454-71.499252 362.495786-235.640332 34.213627-163.900139-72.28231-324.366868-238.411154-358.399789zM56.621143 911.961816h778.058837c31.262099 0 56.621143 25.057868 56.621143 56.018791 0 30.900688-25.359044 55.958555-56.621143 55.958555H56.621143a56.319967 56.319967 0 0 1-56.621143-56.01879c0-30.900688 25.298809-55.958555 56.621143-55.958556z m0-362.074139h226.364102c31.262099 0 56.621143 25.057868 56.621143 56.01879 0 30.900688-25.359044 55.958555-56.621143 55.958555H56.621143a56.319967 56.319967 0 0 1-56.621143-56.01879c0-30.900688 25.298809-56.018791 56.621143-56.018791z m0-373.820016h226.364102c31.262099 0 56.621143 25.118103 56.621143 56.018791 0 30.900688-25.359044 56.018791-56.621143 56.01879H56.621143a56.319967 56.319967 0 0 1-56.621143-56.01879c0-30.900688 25.298809-56.018791 56.621143-56.018791z" p-id="2055" fill="#3F72FE"></path><path d="M1028.396572 689.874418l167.875665 249.13303c17.347755 25.901161 7.047525 59.211259-23.070104 74.089368l-7.228231 3.614115c-30.117629 14.998579-68.788665 6.083761-86.13642-19.877635l-167.875666-249.2535c-17.347755-25.901161-7.047525-59.211259 23.070105-74.149604l7.228231-3.614115c30.117629-14.938344 68.788665-6.023526 86.13642 20.058341z" p-id="2056" fill="#3F72FE"></path></svg>