<?xml version="1.0" encoding="UTF-8"?>
<svg width="38px" height="28px" viewBox="0 0 38 28" version="1.1" xmlns="http://www.w3.org/2000/svg" xmlns:xlink="http://www.w3.org/1999/xlink">
    <!-- Generator: Sketch 60.1 (88133) - https://sketch.com -->
    <title>段落</title>
    <desc>Created with Sketch.</desc>
    <g id="护理文书" stroke="none" stroke-width="1" fill="none" fill-rule="evenodd">
        <path d="M0,22 L38,22 L38,20 L0,20 L0,22 Z M19,5 L38,5 L38,3 L19,3 L19,5 Z M5.51216548,13.0728803 L13.3779886,13.0728803 L15.3047416,18 L18,18 L10.8049084,0 L8.19503953,0 L1,18 L3.69520635,18 L5.51216548,13.0728803 Z M8.67690187,3.29271079 C8.78462586,2.98934994 8.88077987,2.55879643 8.96536388,2 L9.02306613,2 C9.12291268,2.61451577 9.21522644,3.04529039 9.30000739,3.29271079 L12,11 L6,11 L8.67690187,3.29271079 Z M19,10 L38,10 L38,8 L19,8 L19,10 Z M0,28 L38,28 L38,26 L0,26 L0,28 Z M19,16 L38,16 L38,14 L19,14 L19,16 Z" id="段落" fill="#2C2C2E"></path>
    </g>
</svg>