<?xml version="1.0" standalone="no"?><!DOCTYPE svg PUBLIC "-//W3C//DTD SVG 1.1//EN" "http://www.w3.org/Graphics/SVG/1.1/DTD/svg11.dtd"><svg class="icon" width="200px" height="200.00px" viewBox="0 0 1024 1024" version="1.1" xmlns="http://www.w3.org/2000/svg"><path d="M956.399778 38.199041H778.539834c-16.369127 0-29.642001 13.272873-29.642001 29.642001s13.272873 29.642001 29.642001 29.642001h148.217943v148.217943c0 16.379713 13.272873 29.647294 29.642001 29.647293s29.647294-13.267581 29.647293-29.647293V67.841042c0-16.369127-13.278166-29.642001-29.647293-29.642001zM956.399778 749.642786c-16.369127 0-29.642001 13.274197-29.642001 29.643324v148.21662H778.539834c-16.369127 0-29.642001 13.274197-29.642001 29.65391 0 16.369127 13.272873 29.636708 29.642001 29.636708h177.859944c16.369127 0 29.647294-13.267581 29.647293-29.636708V779.28611c0-16.369127-13.278166-29.643324-29.647293-29.643324zM67.094765 275.348279c16.369127 0 29.643324-13.267581 29.643324-29.642V97.488336H244.954709c16.37442 0 29.648617-13.278166 29.648617-29.647294s-13.274197-29.642001-29.648617-29.642001H67.094765C50.725638 38.199041 37.452765 51.471915 37.452765 67.841042v177.859944c0 16.379713 13.272873 29.647294 29.642 29.647293zM244.954709 927.50273H96.738089V779.28611c0-16.369127-13.274197-29.643324-29.643324-29.643324S37.452765 762.916983 37.452765 779.28611v177.87053c0 16.369127 13.272873 29.636708 29.642 29.636708H244.954709c16.37442 0 29.648617-13.267581 29.648617-29.636708 0-16.379713-13.274197-29.653909-29.648617-29.65391z"  /><path d="M156.027384 186.415661v652.159744c0 16.370451 13.274197 29.643324 29.643324 29.643324h652.154451c16.369127 0 29.647294-13.272873 29.647293-29.643324V186.415661c0-16.369127-13.278166-29.642001-29.647293-29.642001H185.670708c-16.369127 0-29.643324 13.272873-29.643324 29.642001z m342.724883 493.44497l-38.947964 38.947965-38.947964-38.947965-168.772306-170.628735 38.947964-38.947964 168.773629 168.773629 272.634426-272.634426 38.947964 38.947964-272.635749 274.489532z"  /></svg>