<?xml version="1.0" encoding="UTF-8"?>
<svg width="47px" height="30px" viewBox="0 0 47 30" version="1.1" xmlns="http://www.w3.org/2000/svg" xmlns:xlink="http://www.w3.org/1999/xlink">
    <!-- Generator: Sketch 60.1 (88133) - https://sketch.com -->
    <title>显示</title>
    <desc>Created with Sketch.</desc>
    <defs>
        <polygon id="path-1" points="0.00402857143 0.018 46.9362814 0.018 46.9362814 29.9326517 0.00402857143 29.9326517"></polygon>
    </defs>
    <g id="护理文书" stroke="none" stroke-width="1" fill="none" fill-rule="evenodd">
        <g id="显示">
            <g id="编组">
                <mask id="mask-2" fill="white">
                    <use xlink:href="#path-1"></use>
                </mask>
                <g id="Clip-2"></g>
                <path d="M23.4679729,29.9326517 C11.0465443,29.9326517 1.39791429,16.8853483 0.985388571,16.3328764 L0,14.9753258 L0.985388571,13.6175056 C1.39791429,13.0653034 11.0465443,0.018 23.4679729,0.018 C35.88967,0.018 45.5383,13.0653034 45.9508929,13.6175056 L46.9362814,14.9753258 L45.9508929,16.3328764 C45.5383,16.8853483 35.88967,29.9326517 23.4679729,29.9326517 Z M5.79812143,14.9753258 C8.43374714,18.0587865 15.4926771,25.3302472 23.4679729,25.3302472 C31.4436043,25.3302472 38.5024671,18.0587865 41.1378243,14.9753258 C38.5024671,11.8918652 31.4436043,4.62013483 23.4679729,4.62013483 C15.4926771,4.62013483 8.43374714,11.8918652 5.79812143,14.9753258 Z" id="Fill-1" fill="#3F72FE" mask="url(#mask-2)"></path>
            </g>
            <path d="M22.9998291,21 C19.1341253,21 16,17.8662012 16,14.0001367 C16,10.1340723 19.1341253,7 22.9998291,7 C26.8658747,7 30,10.1340723 30,14.0001367 C30,17.8662012 26.8658747,21 22.9998291,21 Z M22.9998291,11.6668262 C22.0562009,11.6668262 21.2054043,12.2353027 20.8444002,13.1071582 C20.4831226,13.9790137 20.6828678,14.9828027 21.3501887,15.650127 C22.0174413,16.3173828 23.020952,16.5168555 23.8928033,16.1558496 C24.7649279,15.7945703 25.3334017,14.9438379 25.3334017,14.0001367 C25.3334017,13.3811426 25.0874459,12.7877832 24.6498113,12.3501465 C24.2124501,11.9125098 23.6188202,11.6668262 22.9998291,11.6668262 Z" id="Fill-3" fill="#3F72FE"></path>
        </g>
    </g>
</svg>