<?xml version="1.0" encoding="UTF-8"?>
<svg width="24px" height="27px" viewBox="0 0 24 27" version="1.1" xmlns="http://www.w3.org/2000/svg" xmlns:xlink="http://www.w3.org/1999/xlink">
    <!-- Generator: Sketch 53.2 (72643) - https://sketchapp.com -->
    <title>bianjiqi_teshuzifu</title>
    <desc>Created with Sketch.</desc>
    <defs>
        <polygon id="path-1" points="1.16135572e-16 0 24 0 24 27 1.16135572e-16 27"></polygon>
    </defs>
    <g id="dianzibignli" stroke="none" stroke-width="1" fill="none" fill-rule="evenodd">
        <g id="新增病历模版-copy-3" transform="translate(-881.000000, -227.000000)">
            <g id="bianjiqi_teshuzifu" transform="translate(881.000000, 227.000000)">
                <mask id="mask-2" fill="white">
                    <use xlink:href="#path-1"></use>
                </mask>
                <g id="Clip-2"></g>
                <path d="M0,23.8680804 L5.73879991,23.8680804 C2.10199873,20.8021978 0.285817542,17.060388 0.285817542,12.6386848 C0.285817542,10.2362122 0.763319572,8.08099245 1.72255834,6.17307692 C2.6775624,4.2651614 4.02863958,2.76109203 5.77548374,1.65659341 C7.52253198,0.552146291 9.62039805,0 12.0693881,0 C14.4980208,0 16.5225192,0.506868132 18.1430363,1.5206044 C19.7632983,2.53428915 21.0980489,3.9890625 22.1429513,5.88451236 C23.1878537,7.78016827 23.7144376,10.0301683 23.7144376,12.6386848 C23.7144376,17.0563702 21.8980013,20.7981799 18.2614042,23.8680804 L24,23.8680804 L24,27 L13.7755688,27 L13.7755688,24.0658826 C18.0327808,22.0631868 20.1593204,18.4326923 20.1593204,13.1827953 C20.1593204,10.2239011 19.4081437,7.78841003 17.9062496,5.8762706 C16.4041514,3.96433723 14.4531737,3.00412088 12.0490308,3.00412088 C9.57555092,3.00412088 7.59589964,3.96835508 6.1103321,5.89275412 C4.62854009,7.81741071 3.88573081,10.1869162 3.88573081,13.0012706 C3.88573081,18.3256525 6.00410716,22.0136848 10.2368292,24.0658826 L10.2368292,27 L0,27 L0,23.8680804 Z" id="Fill-1" fill="#5280FE" mask="url(#mask-2)"></path>
            </g>
        </g>
    </g>
</svg>