<?xml version="1.0" encoding="UTF-8"?>
<svg width="18px" height="17px" viewBox="0 0 18 17" version="1.1" xmlns="http://www.w3.org/2000/svg" xmlns:xlink="http://www.w3.org/1999/xlink">
    <!-- Generator: Sketch 53.2 (72643) - https://sketchapp.com -->
    <title>_GJWchaifendanyuange</title>
    <desc>Created with Sketch.</desc>
    <defs>
        <polygon id="path-1" points="5.04319438e-17 0 18 0 18 17 5.04319438e-17 17"></polygon>
    </defs>
    <g id="dianzibignli" stroke="none" stroke-width="1" fill="none" fill-rule="evenodd">
        <g id="插入表格" transform="translate(-1143.000000, -255.000000)">
            <g id="_GJWchaifendanyuange" transform="translate(1143.000000, 255.000000)">
                <mask id="mask-2" fill="white">
                    <use xlink:href="#path-1"></use>
                </mask>
                <g id="Clip-2"></g>
                <path d="M2,13.5999557 L3.15998254,13.5999557 L3.15998254,3.40004427 L2,3.40004427 L2,13.5999557 Z M15.8400175,13.5999557 L17,13.5999557 L17,3.40004427 L15.8400175,3.40004427 L15.8400175,13.5999557 Z M3.15998254,0 L7.80002598,0 C8.44067963,0 8.96000852,0.507388021 8.96000852,1.1333112 L8.96000852,15.8666888 C8.96000852,16.492612 8.44067963,17 7.80002598,17 L3.15998254,17 C2.51932889,17 2,16.492612 2,15.8666888 L2,1.1333112 C2,0.507388021 2.51932889,0 3.15998254,0 Z M11.199974,0 L15.8400175,0 C16.4806711,0 17,0.507388021 17,1.1333112 L17,15.8666888 C17,16.492612 16.4806711,17 15.8400175,17 L11.199974,17 C10.5593204,17 10.0399915,16.492612 10.0399915,15.8666888 L10.0399915,1.1333112 C10.0399915,0.507388021 10.5593204,0 11.199974,0 Z M3.15998254,15.8666888 L7.80002598,15.8666888 L7.80002598,1.1333112 L3.15998254,1.1333112 L3.15998254,15.8666888 Z M11.199974,15.8666888 L15.8400175,15.8666888 L15.8400175,1.1333112 L11.199974,1.1333112 L11.199974,15.8666888 Z" id="Fill-1" fill="#ABABAB" mask="url(#mask-2)"></path>
                <path d="M1.97872443,8.59884086 L4.95207333,8.59884086 C5.15469844,8.59884086 5.34199095,8.71226886 5.44324811,8.89644116 C5.54459389,9.08059021 5.54459389,9.30744622 5.44324811,9.49161852 C5.34199095,9.67569783 5.15469844,9.78912583 4.95207333,9.78912583 L1.89813968,9.78912583 L3.04398519,10.9914069 C3.25888524,11.2248886 3.25584974,11.5961393 3.03705008,11.8257153 C2.81825042,12.0552914 2.46444859,12.0584531 2.24192657,11.8328758 L0.167041078,9.65707601 C0.0601560586,9.54574035 0,9.39427828 0,9.23626021 C0,9.07824214 0.0601560586,8.92675682 0.167041078,8.81551415 L2.24192657,6.63845901 C2.46365094,6.40604668 2.82301415,6.40632566 3.0444948,6.63899372 C3.26597545,6.87175477 3.26573173,7.2487942 3.04398519,7.48120653 L1.97759442,8.59884086 L1.97872443,8.59884086 Z M16.020766,8.12634429 L13.0473949,8.12634429 C12.7340959,8.12634429 12.4801554,8.39279199 12.4801554,8.72142865 C12.4801554,9.05018156 12.7340959,9.31662926 13.0473949,9.31662926 L16.1012399,9.31662926 L14.955483,10.5188173 C14.7337587,10.7512064 14.7334928,11.1282691 14.9549734,11.3609139 C15.1764541,11.5936749 15.5357287,11.5939539 15.7575638,11.3615648 L17.8324272,9.18567211 C17.9396667,9.07433644 18,8.92259539 18,8.76429835 C18,8.6060013 17.9396667,8.45426025 17.8324272,8.34292459 L15.7575638,6.16703186 C15.5349532,5.94154749 15.1812178,5.9447325 14.9624182,6.17430855 C14.7436185,6.4038846 14.740583,6.77504223 14.955483,7.00859372 L16.0218738,8.1275067 L16.020766,8.12634429 Z" id="Fill-3" fill="#ABABAB" mask="url(#mask-2)"></path>
            </g>
        </g>
    </g>
</svg>