<?xml version="1.0" encoding="UTF-8"?>
<svg width="14px" height="12px" viewBox="0 0 14 12" version="1.1" xmlns="http://www.w3.org/2000/svg" xmlns:xlink="http://www.w3.org/1999/xlink">
    <!-- Generator: Sketch 53.2 (72643) - https://sketchapp.com -->
    <title>zhonghuaxian-2 copy</title>
    <desc>Created with Sketch.</desc>
    <defs>
        <polygon id="path-1" points="8.4049234e-17 0 14 0 14 12 8.4049234e-17 12"></polygon>
    </defs>
    <g id="dianzibignli" stroke="none" stroke-width="1" fill="none" fill-rule="evenodd">
        <g id="zhonghuaxian-2-copy">
            <mask id="mask-2" fill="white">
                <use xlink:href="#path-1"></use>
            </mask>
            <g id="Clip-2"></g>
            <path d="M7.93305272,6.7544217 C8.3296832,6.86092829 8.6148052,6.94663339 8.78572333,7.01385235 C9.27440369,7.19904445 9.62343999,7.42598655 9.8351584,7.69688376 C10.0480584,7.97024333 10.1539176,8.28752125 10.1539176,8.65231919 C10.1539176,9.0112001 10.0434429,9.34240693 9.82349063,9.64590294 C9.60250446,9.94925195 9.26860672,10.1876973 8.81718201,10.3613862 C8.36690192,10.5351117 7.8469475,10.6231322 7.25831566,10.6231322 C6.59513561,10.6231322 5.99945142,10.5074009 5.46897385,10.2781434 C4.93964089,10.048739 4.54877045,9.74766856 4.29636252,9.37599804 C4.04498845,9.00432752 3.88444578,8.52839226 3.81462375,7.94712647 L2.36050891,8.07447131 C2.38140752,8.85026415 2.59430748,9.54512963 3.00031649,10.1588472 C3.40518087,10.7748434 3.96593558,11.2357105 4.67785444,11.5414851 C5.39110253,11.8471127 6.27523183,12 7.33042694,12 C8.16223587,12 8.91251807,11.8494281 9.57684274,11.5449397 C10.242349,11.2414437 10.751891,10.8164832 11.1078689,10.2710871 C11.4626652,9.72455171 11.6406726,9.14328591 11.6406726,8.52497435 C11.6518973,7.88755187 11.4505544,7.26464634 11.0683609,6.75328239 L14,6.75328239 L14,5.59530803 L9.42091549,5.59530803 C8.92418584,5.40651425 8.14130033,5.19232501 7.07096665,4.95141724 C5.81801015,4.66890648 5.04321085,4.3932683 4.74538722,4.12464971 C4.44723128,3.86566008 4.28092857,3.48781526 4.29159941,3.09402018 C4.29159941,2.61466701 4.505644,2.20481142 4.93155468,1.86426964 C5.35964385,1.52391161 6.03899632,1.35364072 6.97201211,1.35364072 C7.8678461,1.35364072 8.54616472,1.54125844 9.00453102,1.91524432 C9.46289732,2.29036951 9.73158844,2.84396123 9.81178593,3.57811433 L11.2904548,3.46701377 C11.2735808,2.81639741 11.0754133,2.18342189 10.7181431,1.63846684 C10.3633467,1.10009035 9.85491239,0.692403106 9.19520313,0.415735877 C8.53564157,0.137819089 7.77365467,0 6.90927936,0 C6.12391999,0 5.41085652,0.132085815 4.76857508,0.396073687 C4.1287675,0.660098311 3.64012406,1.04569775 3.30622633,1.55518736 C2.97247629,2.06467697 2.80602589,2.6123884 2.80602589,3.19824817 C2.80602589,3.73100164 2.94219915,4.21267017 3.21436107,4.64218795 C3.44945195,5.01286618 3.7879651,5.3301441 4.23233746,5.59644733 L0,5.59644733 L0,6.7544217 L7.93305272,6.7544217 Z" id="Fill-1" fill="#000000" mask="url(#mask-2)"></path>
        </g>
    </g>
</svg>