<?xml version="1.0" standalone="no"?><!DOCTYPE svg PUBLIC "-//W3C//DTD SVG 1.1//EN" "http://www.w3.org/Graphics/SVG/1.1/DTD/svg11.dtd"><svg t="1577413746465" class="icon" viewBox="0 0 1024 1024" version="1.1" xmlns="http://www.w3.org/2000/svg" p-id="2468" width="32" height="32" xmlns:xlink="http://www.w3.org/1999/xlink"><defs><style type="text/css"></style></defs><path d="M906.4 1023.2H676.8v-60h199.2V60.8H468.8v241.6c0 16.8-13.6 30.4-30.4 30.4H163.2v630.4h208v60H133.6c-16.8 0-30.4-13.6-30.4-30.4v-704c0-7.2 2.4-14.4 7.2-19.2 2.4-3.2 4.8-6.4 7.2-8.8L372 14.4c5.6-8 14.4-13.6 25.6-13.6h508.8c16.8 0 30.4 13.6 30.4 30.4v962.4c0 16-13.6 29.6-30.4 29.6zM408.8 63.2l-216 209.6h216V63.2zM262.4 662.4v-48h549.6v48H262.4z m0-244.8h549.6v48H262.4v-48z m0 145.6v-48h549.6v48H262.4z m258.4 203.2l94.4 94.4h-56v124.8h-72.8v-124.8h-60l94.4-94.4z" fill="#3F72FE" p-id="2469"></path></svg>