<?xml version="1.0" encoding="UTF-8"?>
<svg width="12px" height="12px" viewBox="0 0 12 12" version="1.1" xmlns="http://www.w3.org/2000/svg" xmlns:xlink="http://www.w3.org/1999/xlink">
    <!-- Generator: Sketch 53.2 (72643) - https://sketchapp.com -->
    <title>shangbiao copy 3</title>
    <desc>Created with Sketch.</desc>
    <g id="dianzibignli" stroke="none" stroke-width="1" fill="none" fill-rule="evenodd">
        <g id="shangbiao-copy-3" fill="#000000">
            <path d="M8.72777626,0.00310415029 L7.31434923,0.00310415029 L5.34005595,2.91881985 C5.04033572,3.35333754 4.78181784,3.7725562 4.56181765,4.17007749 C4.40240583,3.85259893 4.14111851,3.40582302 3.76987349,2.82018389 L1.99085334,0 L0.44265677,0 L3.79197242,5.26733127 L0,11 L1.559133,11 L4.0256502,7.16586759 C4.12190205,7.01490453 4.27591631,6.740599 4.49580346,6.33994189 C4.64162247,6.60499832 4.78732844,6.84848406 4.92478264,7.07651241 L7.39404101,11 L9,11 L5.28509123,5.18108023 L8.72777626,0.00310415029 Z" id="Fill-1"></path>
            <path d="M10.9792873,11.0800662 C11.0284667,11.0077278 11.1421478,10.8596164 11.3229593,10.6391311 C11.5038504,10.4186812 11.6279144,10.2497853 11.6976207,10.1291859 C11.8035477,9.95352707 11.8785384,9.78463118 11.9275851,9.6193469 C11.9766583,9.45739097 12,9.2850605 12,9.10593172 C12,8.79239437 11.917335,8.52711806 11.7492963,8.31700732 C11.5787615,8.10332038 11.3487971,8 11.0543045,8 C10.7829412,8 10.5633332,8.08961751 10.382442,8.27565084 C10.2015242,8.46168418 10.0956238,8.75794244 10.0646078,9.18174012 L10.6356418,9.25754853 C10.6460247,9.03359329 10.6872909,8.87510733 10.7597058,8.7786915 C10.8295183,8.68216944 10.9250624,8.63387301 11.046524,8.63387301 C11.1679856,8.63387301 11.2609273,8.67869947 11.3307398,8.77178695 C11.39795,8.86126282 11.4340379,8.99570679 11.4340379,9.16446105 C11.4340379,9.31618409 11.3927718,9.47456382 11.3152849,9.63304977 C11.2558553,9.74674468 11.098173,9.9639016 10.839795,10.2842373 C10.5167561,10.6804876 10.3049551,10.9973533 10.1964523,11.2385876 C10.0878432,11.4797865 10.0233151,11.7312537 10,12 L12,12 L12,11.2903186 L10.8604281,11.2903186 C10.8888417,11.2248847 10.9302406,11.1524046 10.9792873,11.0800662 Z" id="Fill-2"></path>
        </g>
    </g>
</svg>