<?xml version="1.0" encoding="UTF-8"?>
<svg width="12px" height="12px" viewBox="0 0 12 12" version="1.1" xmlns="http://www.w3.org/2000/svg" xmlns:xlink="http://www.w3.org/1999/xlink">
    <!-- Generator: Sketch 53.2 (72643) - https://sketchapp.com -->
    <title>shangbiao copy 2</title>
    <desc>Created with Sketch.</desc>
    <g id="dianzibignli" stroke="none" stroke-width="1" fill="none" fill-rule="evenodd">
        <g id="shangbiao-copy-2" fill="#000000">
            <path d="M8.72777626,1.00310415 L7.31434923,1.00310415 L5.34005595,3.91881985 C5.04033572,4.35333754 4.78181784,4.7725562 4.56181765,5.17007749 C4.40240583,4.85259893 4.14111851,4.40582302 3.76987349,3.82018389 L1.99085334,1 L0.44265677,1 L3.79197242,6.26733127 L0,12 L1.559133,12 L4.0256502,8.16586759 C4.12190205,8.01490453 4.27591631,7.740599 4.49580346,7.33994189 C4.64162247,7.60499832 4.78732844,7.84848406 4.92478264,8.07651241 L7.39404101,12 L9,12 L5.28509123,6.18108023 L8.72777626,1.00310415 Z" id="Fill-1"></path>
            <path d="M10.9792873,3.08006621 C11.0284667,3.00772778 11.1421478,2.85961635 11.3229593,2.63913109 C11.5038504,2.41868123 11.6279144,2.24978534 11.6976207,2.12918588 C11.8035477,1.95352707 11.8785384,1.78463118 11.9275851,1.6193469 C11.9766583,1.45739097 12,1.2850605 12,1.10593172 C12,0.792394374 11.917335,0.527118059 11.7492963,0.317007321 C11.5787615,0.10332038 11.3487971,0 11.0543045,0 C10.7829412,0 10.5633332,0.0896175057 10.382442,0.275650842 C10.2015242,0.461684179 10.0956238,0.757942444 10.0646078,1.18174012 L10.6356418,1.25754853 C10.6460247,1.03359329 10.6872909,0.87510733 10.7597058,0.778691499 C10.8295183,0.682169445 10.9250624,0.633873009 11.046524,0.633873009 C11.1679856,0.633873009 11.2609273,0.678699466 11.3307398,0.77178695 C11.39795,0.861262824 11.4340379,0.995706787 11.4340379,1.16446105 C11.4340379,1.31618409 11.3927718,1.47456382 11.3152849,1.63304977 C11.2558553,1.74674468 11.098173,1.9639016 10.839795,2.28423727 C10.5167561,2.68048757 10.3049551,2.99735326 10.1964523,3.23858758 C10.0878432,3.47978649 10.0233151,3.73125371 10,4 L12,4 L12,3.29031858 L10.8604281,3.29031858 C10.8888417,3.2248847 10.9302406,3.15240464 10.9792873,3.08006621 Z" id="Fill-2"></path>
        </g>
    </g>
</svg>