<?xml version="1.0" encoding="UTF-8"?>
<svg width="32px" height="32px" viewBox="0 0 32 32" version="1.1" xmlns="http://www.w3.org/2000/svg" xmlns:xlink="http://www.w3.org/1999/xlink">
    <!-- Generator: Sketch 60.1 (88133) - https://sketch.com -->
    <title>表格属性</title>
    <desc>Created with Sketch.</desc>
    <g id="护理文书" stroke="none" stroke-width="1" fill="none" fill-rule="evenodd">
        <g id="表格属性" fill="#2C2C2E">
            <path d="M3.01257143,2.33726733 C2.62870721,2.33726733 2.31735219,2.64862235 2.31735219,3.03248656 L2.31735219,28.9873833 C2.31735219,29.3710665 2.62888826,29.6825573 3.01257143,29.6825573 L28.9674682,29.6825573 C29.1518642,29.6825573 29.3286563,29.6093692 29.4589646,29.4788798 C29.589454,29.3485714 29.6626421,29.1717793 29.6626421,28.9873833 L29.6626421,3.03248656 C29.6626421,2.84804526 29.589454,2.67125318 29.4589646,2.54094484 C29.3286563,2.41045545 29.1518642,2.33726733 28.9674682,2.33726733 L3.01257143,2.33726733 Z M3.01257143,0.0199151344 L28.9674682,0.0199151344 C30.6304724,0.0199151344 31.9800396,1.3696181 31.9800396,3.03248656 L31.9800396,28.9873833 C31.9800396,30.6503876 30.6304724,31.9999547 28.9674682,31.9999547 L3.01257143,31.9999547 C2.21356719,31.9999547 1.44733239,31.6825799 0.882421499,31.117669 C0.317374823,30.5526223 0,29.7863423 0,28.9873833 L0,3.03248656 C0,1.3696181 1.34970297,0.0199151344 3.01257143,0.0199151344 Z" id="Fill-1"></path>
            <path d="M22.7105856,18.5591853 L30.8214314,18.5591853 C31.4612956,18.5591853 31.9800396,19.0779293 31.9800396,19.7177482 C31.9800396,20.3577935 31.4612956,20.8765375 30.8214314,20.8765375 L22.7105856,20.8765375 L22.7105856,30.8413465 C22.7105856,31.4812107 22.1916605,31.9999547 21.5517963,31.9999547 C20.9119321,31.9999547 20.3930523,31.4812107 20.3930523,30.8413465 L20.3930523,20.8765375 L11.5869873,20.8765375 L11.5869873,30.8413465 C11.5869873,31.4812107 11.0682433,31.9999547 10.428198,31.9999547 C9.78837907,31.9999547 9.26963508,31.4812107 9.26963508,30.8413465 L9.26963508,20.8765375 L1.15878925,20.8765375 C0.518743989,20.8765375 0,20.3577935 0,19.7177482 C0,19.0779293 0.518743989,18.5591853 1.15878925,18.5591853 L9.26963508,18.5591853 L9.26963508,9.75293918 L1.15878925,9.75293918 L1.15878925,7.43558699 L30.8214314,7.43558699 L30.8214314,9.75293918 L22.7105856,9.75293918 L22.7105856,18.5591853 Z M11.5869873,18.5591853 L20.3930523,18.5591853 L20.3930523,9.75293918 L11.5869873,9.75293918 L11.5869873,18.5591853 Z" id="Fill-2"></path>
        </g>
    </g>
</svg>