<?xml version="1.0" encoding="UTF-8"?>
<svg width="32px" height="33px" viewBox="0 0 32 33" version="1.1" xmlns="http://www.w3.org/2000/svg" xmlns:xlink="http://www.w3.org/1999/xlink">
    <!-- Generator: Sketch 60.1 (88133) - https://sketch.com -->
    <title>单元格样式</title>
    <desc>Created with Sketch.</desc>
    <defs>
        <polygon id="path-1" points="0.00312195122 0.0097300813 31.9686764 0.0097300813 31.9686764 32.1560455 0.00312195122 32.1560455"></polygon>
    </defs>
    <g id="护理文书" stroke="none" stroke-width="1" fill="none" fill-rule="evenodd">
        <g id="单元格样式">
            <mask id="mask-2" fill="white">
                <use xlink:href="#path-1"></use>
            </mask>
            <g id="Clip-2"></g>
            <path d="M21.1008,11.1261659 L10.4054634,11.1261659 L10.4054634,29.7924163 L15.0331317,29.7924163 C15.6217236,29.7924163 16.0987577,30.2686699 16.0987577,30.8562732 C16.0986016,31.1385496 15.9859512,31.4093268 15.7861984,31.6087154 C15.5863935,31.8081041 15.3154602,31.920078 15.0331317,31.9196629 L3.43373008,31.9196629 C1.53719675,31.9196629 0,30.3853268 0,28.4922276 L0,3.43716423 C0,1.54427317 1.53740488,0.0097300813 3.43352195,0.0097300813 L28.2981463,0.0097300813 C30.1947317,0.0097300813 31.7321366,1.54427317 31.7321366,3.43716423 L31.7321366,15.4371642 C31.7317203,15.7194927 31.6193301,15.9902179 31.4195252,16.1898146 C31.2197203,16.3892033 30.948787,16.5011772 30.6664585,16.500761 C30.0778667,16.500761 29.6008325,16.0245593 29.6008325,15.4369561 L29.6008325,3.43737236 C29.6008325,2.71927154 29.0174959,2.13713171 28.2981463,2.13713171 L23.2321041,2.13713171 L23.2321041,15.4922146 C23.2318959,15.7745431 23.1195057,16.0452683 22.9194927,16.2446569 C22.7197398,16.4442537 22.4488065,16.5560715 22.166478,16.5558634 C21.5778341,16.5558634 21.1008,16.0796098 21.1008,15.4920065 L21.1008,11.1261659 Z M10.4054634,8.9987122 L21.1008,8.9987122 L21.1008,2.13713171 L10.4054634,2.13713171 L10.4054634,8.9987122 Z M8.27421138,29.7924163 L8.27421138,17.0353431 L2.13130407,17.0353431 L2.13130407,28.4922276 C2.13130407,29.2103285 2.71422439,29.7924163 3.43352195,29.7924163 L8.27421138,29.7924163 Z M2.13130407,14.9080976 L8.27400325,14.9080976 L8.27400325,2.13713171 L3.43352195,2.13713171 C2.71422439,2.13713171 2.13130407,2.71906341 2.13130407,3.43716423 L2.13130407,14.9080976 Z M20.7205463,20.1011512 C20.0011967,20.1011512 19.4180683,20.6832911 19.4180683,21.4011837 L19.4180683,28.7286114 C19.4180683,29.4467122 20.0011967,30.0288 20.7205463,30.0288 L28.5351545,30.0288 C29.254452,30.0288 29.8375805,29.4467122 29.8375805,28.7286114 L29.8375805,21.4011837 C29.8375805,20.6832911 29.254452,20.1011512 28.5351545,20.1011512 L20.7205463,20.1011512 Z M20.7205463,17.9739577 L28.5351545,17.9739577 C30.4314797,17.9739577 31.9686764,19.5082927 31.9686764,21.4011837 L31.9686764,28.7286114 C31.9686764,30.6215024 30.4314797,32.1560455 28.5351545,32.1560455 L20.7205463,32.1560455 C18.8241691,32.1560455 17.2867642,30.6215024 17.2867642,28.7286114 L17.2867642,21.4011837 C17.2867642,19.5082927 18.8241691,17.9739577 20.7205463,17.9739577 Z M26.5658276,23.3233171 C26.7266081,23.1525984 26.9508163,23.0558699 27.1853789,23.0558699 C27.4199415,23.0558699 27.6438894,23.1525984 27.804878,23.3233171 C28.147148,23.6798439 28.147148,24.2578732 27.804878,24.6144 L25.2473756,27.2794016 C25.0865951,27.4501724 24.862387,27.5469008 24.6278244,27.5469008 C24.3933138,27.5469008 24.1691057,27.4501724 24.0081171,27.2794016 L21.4506146,24.6144 C21.1085528,24.2578732 21.1085528,23.6798439 21.4506146,23.3231089 C21.6116033,23.1523902 21.8357593,23.0556618 22.070322,23.0556618 C22.3048846,23.0556618 22.5290407,23.1523902 22.6898211,23.3231089 L24.6278244,25.3428553 L26.5658276,23.3233171 Z" id="Fill-1" fill="#2C2C2E" mask="url(#mask-2)"></path>
        </g>
    </g>
</svg>