<?xml version="1.0" encoding="UTF-8"?>
<svg width="8px" height="13px" viewBox="0 0 8 13" version="1.1" xmlns="http://www.w3.org/2000/svg" xmlns:xlink="http://www.w3.org/1999/xlink">
    <!-- Generator: Sketch 53.2 (72643) - https://sketchapp.com -->
    <title>xiahuaxian copy</title>
    <desc>Created with Sketch.</desc>
    <g id="dianzibignli" stroke="none" stroke-width="1" fill="none" fill-rule="evenodd">
        <path d="M7.6,13 L0.4,13 C0.179155556,13 0,12.7760556 0,12.5 C0,12.2240833 0.179155556,12 0.4,12 L7.6,12 C7.82084444,12 8,12.2240833 8,12.5 C8,12.7760556 7.82084444,13 7.6,13 Z M4,10 C1.79435556,10 0,8.27450193 0,6.15387903 L0,0.384612097 C0,0.172284852 0.179155556,0 0.4,0 C0.620844444,0 0.8,0.172284852 0.8,0.384612097 L0.8,6.15387903 C0.8,7.85074487 2.23524444,9.23077581 4,9.23077581 C5.76475556,9.23077581 7.2,7.85074487 7.2,6.15387903 L7.2,0.384612097 C7.2,0.172284852 7.37915556,0 7.6,0 C7.82084444,0 8,0.172284852 8,0.384612097 L8,6.15387903 C8,8.27450193 6.20564444,10 3.99991111,10 L4,10 Z" id="xiahuaxian-copy" fill="#000000"></path>
    </g>
</svg>