<?xml version="1.0" standalone="no"?><!DOCTYPE svg PUBLIC "-//W3C//DTD SVG 1.1//EN" "http://www.w3.org/Graphics/SVG/1.1/DTD/svg11.dtd"><svg class="icon" width="200px" height="200.00px" viewBox="0 0 1024 1024" version="1.1" xmlns="http://www.w3.org/2000/svg"><path d="M123.4 136.6c-6.3-5.2-14.1-8.5-22.8-8.5-20.2 0-36.6 17-36.6 38.1v507.5c0 13.4 6.7 25.1 16.7 31.9L263.2 848V257.5c0-3.6 0.8-7 2.1-10.2L123.4 136.6z m406.9 5.6L330.7 255.4c0.1 0.7 0.4 1.3 0.4 2v591.8L530.6 736c0-0.6-0.3-1-0.3-1.6V142.2z m265.7 390V318.5c0-12-5.5-22.6-13.8-29.6l-0.3-0.2c-0.9-0.7-1.8-1.5-2.7-2.1L596 143.6v590.8c0 3.6-0.8 7.1-2.1 10.3l42.4 33.1c-3.7-15.3-5.9-31.3-5.9-47.8 0.1-99.3 71.7-181.6 165.6-197.8z m26.2 50.3c-76.1 0-137.8 63.1-137.8 141 0 57.7 33.9 107.2 82.4 129 9 6.7 19.6 14.6 24.1 17.9 8.6 6.1 22.8 21.8 22.8 21.8 4.7 4.8 12.4 4.8 17.1 0 0 0 13.3-15.3 22.8-21.8 4.7-3.2 15.5-11.3 24.4-18 48.3-21.9 82.1-71.3 82.1-128.9-0.1-77.9-61.8-141-137.9-141z m0 182.8c-23.8 0-43.1-19.4-43.1-43.4s19.3-43.4 43.1-43.4 43.1 19.4 43.1 43.4c-0.1 24-19.4 43.4-43.1 43.4z" fill="#3F72FE" /></svg>