<?xml version="1.0" standalone="no"?><!DOCTYPE svg PUBLIC "-//W3C//DTD SVG 1.1//EN" "http://www.w3.org/Graphics/SVG/1.1/DTD/svg11.dtd"><svg class="icon" width="16px" height="16.00px" viewBox="0 0 1024 1024" version="1.1" xmlns="http://www.w3.org/2000/svg"><path fill="#000000" d="M514.72752657 45.57543414c128.14747293 0 244.16264075 52.06780949 328.33050763 135.98291998 83.9151105 83.9151105 135.98292001 200.18303466 135.98292 328.33050765s-51.81505314 244.16264075-135.98292 328.3305076c-84.16786683 84.16786683-200.18303466 135.98292001-328.33050763 135.98292002s-244.16264075-52.06780949-328.3305076-135.98292002c-83.9151105-83.9151105-135.98292001-200.18303466-135.98292003-328.3305076s52.06780949-244.16264075 135.98292003-328.33050765c84.16786683-84.16786683 200.18303466-135.98292001 328.3305076-135.98291998z m305.07692275 158.98374852c-78.1017143-78.1017143-186.02867867-126.37817844-305.07692275-126.3781785-119.30100046 0-226.9752085 48.27646415-305.0769228 126.3781785-78.1017143 78.1017143-126.37817844 186.02867867-126.37817841 305.07692275 0 119.04824411 48.27646415 226.9752085 126.37817841 305.0769228 78.1017143 78.1017143 186.02867867 126.37817844 305.0769228 126.37817844 119.30100046 0 226.9752085-48.27646415 305.07692275-126.37817844 78.1017143-78.1017143 126.37817844-186.02867867 126.3781785-305.0769228s-48.27646415-226.9752085-126.3781785-305.07692275z"  /><path fill="#000000" d="M311.51141562 342.31139714h407.19049098v37.15518447H311.51141562v-37.15518447z"  /><path fill="#000000" d="M496.52906887 749.50188814V378.70831257H533.68425337V749.50188814h-37.1551845z"  /></svg>