<?xml version="1.0" standalone="no"?><!DOCTYPE svg PUBLIC "-//W3C//DTD SVG 1.1//EN" "http://www.w3.org/Graphics/SVG/1.1/DTD/svg11.dtd"><svg class="icon" width="200px" height="200.00px" viewBox="0 0 1024 1024" version="1.1" xmlns="http://www.w3.org/2000/svg"><path d="M445.44 527.36c10.24-10.24 20.48-15.36 35.84-25.6 10.24-10.24 20.48-15.36 30.72-25.6 10.24-5.12 20.48-15.36 30.72-25.6 10.24-10.24 15.36-20.48 20.48-30.72 5.12-10.24 10.24-25.6 10.24-46.08 0-15.36-5.12-30.72-10.24-40.96-5.12-15.36-15.36-25.6-25.6-30.72-10.24-10.24-20.48-15.36-35.84-20.48-15.36-5.12-25.6-10.24-40.96-10.24-20.48 0-35.84 5.12-51.2 10.24s-30.72 15.36-40.96 30.72c-10.24 10.24-20.48 25.6-25.6 40.96-5.12 15.36-5.12 20.48-5.12 40.96h66.56v-15.36c0-10.24 5.12-15.36 10.24-25.6 5.12-5.12 10.24-15.36 15.36-20.48 5.12-5.12 15.36-5.12 25.6-5.12 15.36 0 25.6 5.12 35.84 15.36 10.24 10.24 15.36 20.48 15.36 35.84 0 10.24 0 20.48-5.12 25.6-5.12 15.36-15.36 20.48-20.48 25.6l-20.48 20.48c-10.24 5.12-20.48 10.24-25.6 15.36-15.36 10.24-30.72 15.36-40.96 25.6-15.36 10.24-25.6 20.48-35.84 35.84-10.24 10.24-15.36 25.6-20.48 40.96-5.12 15.36-10.24 30.72-10.24 51.2h245.76v-61.44H424.96c5.12-15.36 10.24-25.6 20.48-30.72zM76.8 153.6h834.56v491.52h76.8V138.24c0-35.84-30.72-66.56-66.56-66.56H66.56C30.72 76.8 0 102.4 0 138.24v727.04c0 35.84 30.72 66.56 66.56 66.56h563.2v-76.8H76.8V153.6z m204.8 460.8V271.36h-66.56c0 10.24-5.12 25.6-10.24 35.84l-20.48 20.48c-10.24 5.12-20.48 10.24-30.72 10.24s-15.36 5.12-25.6 0v56.32h87.04v215.04h66.56z m512 0c15.36-5.12 30.72-10.24 40.96-20.48 10.24-10.24 20.48-20.48 25.6-35.84 5.12-15.36 5.12-30.72 5.12-51.2s0-30.72-10.24-46.08-25.6-20.48-46.08-25.6c15.36-5.12 25.6-15.36 35.84-25.6 10.24-10.24 10.24-25.6 10.24-40.96s-5.12-30.72-10.24-40.96c-5.12-10.24-15.36-20.48-25.6-30.72-10.24-10.24-20.48-15.36-35.84-20.48-15.36-5.12-25.6-5.12-40.96-5.12s-30.72 5.12-46.08 10.24-25.6 15.36-35.84 25.6c-10.24 10.24-20.48 20.48-25.6 35.84-5.12 15.36-10.24 35.84-10.24 51.2h66.56c0-15.36 5.12-35.84 10.24-46.08 10.24-10.24 20.48-15.36 40.96-15.36 10.24 0 25.6 5.12 30.72 10.24 10.24 5.12 15.36 20.48 15.36 30.72 0 10.24 0 15.36-5.12 20.48L768 409.6c-5.12 5.12-15.36 5.12-25.6 5.12h-25.6v46.08h30.72c10.24 0 15.36 0 25.6 5.12s15.36 10.24 20.48 15.36c5.12 5.12 5.12 15.36 5.12 30.72s-5.12 30.72-15.36 40.96c-10.24 10.24-25.6 15.36-40.96 15.36-10.24 0-20.48 0-25.6-5.12-5.12-5.12-15.36-10.24-20.48-15.36-5.12-5.12-10.24-15.36-10.24-20.48-5.12-10.24-5.12-20.48-5.12-30.72H614.4c0 20.48 0 40.96 10.24 56.32 5.12 15.36 15.36 25.6 25.6 35.84 10.24 10.24 25.6 20.48 40.96 25.6 15.36 5.12 35.84 5.12 51.2 5.12 20.48-5.12 35.84 0 51.2-5.12z m117.76 220.16V721.92h-76.8v112.64H721.92v76.8h112.64V1024h76.8V911.36H1024v-76.8H911.36z" fill="#3F72FE" /></svg>