<?xml version="1.0" standalone="no"?><!DOCTYPE svg PUBLIC "-//W3C//DTD SVG 1.1//EN" "http://www.w3.org/Graphics/SVG/1.1/DTD/svg11.dtd"><svg class="icon" width="16px" height="16.00px" viewBox="0 0 1024 1024" version="1.1" xmlns="http://www.w3.org/2000/svg"><path fill="#000000" d="M306.490922 376.834258V313.01726c-224.894064 0-241.686154 148.659386-241.686154 148.659386S62.899783 201.434526 306.490922 201.434526V137.793916L448.729803 257.243532l-142.238881 119.590726zM375.211493 829.197644c-2.928033-14.463775-4.37441-37.076653-4.37441-67.768078l1.023047-107.913874c0-40.145795-4.2333-67.626968-12.41768-82.655183-8.18438-15.063493-22.330658-27.445895-42.509388-37.076653-20.284563-9.771868-50.975988-14.745995-92.14483-14.745995-45.261033 0-79.586041 8.18438-102.516416 24.41203-22.930375 16.192373-39.299135 41.168843-48.647673 74.929411l83.819341 15.204603c5.679678-16.22765 13.158508-27.587005 22.330657-34.183898 9.066318-6.420505 21.907328-9.630758 38.417198-9.630758 24.376753 0 40.886623 3.80997 49.67072 11.394633 8.74882 7.443553 13.158508 20.143453 13.158508 37.81748v9.207428c-16.79209 7.161333-46.601578 14.604885-89.816516 22.789265-31.996693 6.138285-56.514555 13.299618-73.447755 21.44872-16.9332 8.18438-30.232818 20.002343-39.581355 35.489165-9.489648 15.486823-14.181555 33.16085-14.181556 52.880973 0 29.6331 10.371585 54.32735 31.114756 73.871086 20.74317 19.579013 49.071003 29.35088 84.983498 29.35088 20.425673 0 39.581355-3.80997 57.537603-11.535743 17.956248-7.584663 34.889448-19.120405 50.693768-34.466117 0.599718 1.763875 1.587488 5.397458 3.210252 10.794915 3.492473 12.13546 6.420505 21.1665 8.925208 27.304785h91.404003c-8.18438-16.686258-13.758225-32.31419-16.65098-46.919075zM281.161677 726.822338c0 22.189548-1.164158 37.25304-3.633582 45.119923-3.492473 11.959073-10.936025 22.189548-22.048438 30.515037-15.028215 10.936025-30.973645 16.36876-47.624625 16.36876-14.887105 0-27.163675-4.65663-36.794433-14.181555-9.630758-9.348538-14.463775-20.60206-14.463775-33.44307 0-13.299618 5.997175-24.094533 18.097357-32.561133 7.90216-5.256348 24.517863-10.653805 50.235161-16.192372 25.717298-5.397458 44.379095-10.230475 56.232335-14.005168v18.379578zM766.509526 318.873325h-103.257244l-188.381851 567.332759h103.539463l39.863576-128.798153h193.355978l42.191891 128.798153h106.149998L766.509526 318.873325z m-118.144349 342.897302l65.263376-210.430289 66.60392 210.430289h-131.867296z"  /></svg>