<?xml version="1.0" encoding="UTF-8"?>
<svg width="13px" height="13px" viewBox="0 0 13 13" version="1.1" xmlns="http://www.w3.org/2000/svg" xmlns:xlink="http://www.w3.org/1999/xlink">
    <!-- Generator: Sketch 53.2 (72643) - https://sketchapp.com -->
    <title>formatpainter copy</title>
    <desc>Created with Sketch.</desc>
    <g id="dianzibignli" stroke="none" stroke-width="1" fill="none" fill-rule="evenodd">
        <path d="M12.2934795,1.44446534 L11.3043286,1.44446534 L11.3043286,0.361092826 C11.3043286,0.160976795 11.1153565,0 10.8804384,0 L0.423890245,0 C0.188972165,0 0,0.160976795 0,0.361092826 L0,4.45372896 C0,4.65384499 0.188972165,4.81482178 0.423890245,4.81482178 L10.8804384,4.81482178 C11.1153565,4.81482178 11.3043286,4.65384499 11.3043286,4.45372896 L11.3043286,2.40741089 L11.8695892,2.40741089 L11.8695892,5.4166745 L5.66984941,5.4166745 C5.27949681,5.4166745 4.96332887,5.6860036 4.96332887,6.01852723 L4.96332887,8.06484529 L4.18617835,8.06484529 C4.10837278,8.06484529 4.04480801,8.11899323 4.04480801,8.18517822 L4.04480801,11.6157952 C4.04480801,11.6247477 4.04661847,11.6353366 4.04834061,11.6443644 C4.04661847,11.6744194 4.04480801,11.7059978 4.04480801,11.7361281 C4.04480801,12.4342961 4.70898147,13 5.52847906,13 C6.34808704,13 7.01226051,12.4342961 7.01226051,11.7361281 C7.01226051,11.7045308 7.01045005,11.6744194 7.00870583,11.6443644 C7.01045005,11.6353366 7.01226051,11.62629 7.01226051,11.6157952 L7.01226051,8.18517822 C7.01226051,8.11899323 6.94860742,8.06484529 6.87089016,8.06484529 L6.09373965,8.06484529 L6.09373965,6.37962005 L12.2934795,6.37962005 C12.68381,6.37962005 13,6.11029096 13,5.77776733 L13,2.04631806 C13,1.71379444 12.68381,1.44446534 12.2934795,1.44446534 Z M1,4 L11,4 L11,1 L1,1 L1,4 Z M6,11.7 C6,11.8650188 5.77503125,12 5.5,12 C5.225125,12 5,11.8650188 5,11.7 L5,9 L6,9 L6,11.7 Z" id="formatpainter-copy" fill="#000000"></path>
    </g>
</svg>